SplineFontDB: 3.0
FontName: Vazir
FullName: Vazir
FamilyName: Vazir
Weight: Regular
Copyright: Copyright (c) 2003 by Bitstream, Inc. All Rights Reserved.\nDejaVu changes are in public domain\nCopyright (c) 2015 by Saber Rastikerdar. All Rights Reserved.
Version: 2-Beta-bugfix0
ItalicAngle: 0
UnderlinePosition: -100
UnderlineWidth: 100
Ascent: 1536
Descent: 512
InvalidEm: 0
LayerCount: 2
Layer: 0 1 "Back" 1
Layer: 1 1 "Fore" 0
XUID: [1021 502 1027637223 15828163]
UniqueID: 4072388
UseUniqueID: 1
FSType: 0
OS2Version: 1
OS2_WeightWidthSlopeOnly: 0
OS2_UseTypoMetrics: 1
CreationTime: 1431850356
ModificationTime: 1451757839
PfmFamily: 33
TTFWeight: 400
TTFWidth: 5
LineGap: 0
VLineGap: 0
Panose: 2 11 6 3 3 8 4 2 2 4
OS2TypoAscent: 2250
OS2TypoAOffset: 0
OS2TypoDescent: -750
OS2TypoDOffset: 0
OS2TypoLinegap: 0
OS2WinAscent: 2250
OS2WinAOffset: 0
OS2WinDescent: 750
OS2WinDOffset: 0
HheadAscent: 2250
HheadAOffset: 0
HheadDescent: -750
HheadDOffset: 0
OS2SubXSize: 1331
OS2SubYSize: 1433
OS2SubXOff: 0
OS2SubYOff: 286
OS2SupXSize: 1331
OS2SupYSize: 1433
OS2SupXOff: 0
OS2SupYOff: 983
OS2StrikeYSize: 102
OS2StrikeYPos: 530
OS2Vendor: 'PfEd'
OS2CodePages: 600001ff.dfff0000
Lookup: 1 0 0 "'case' Case-Sensitive Forms in Latin lookup 0" { "'case' Case-Sensitive Forms in Latin lookup 0 subtable"  } ['case' ('DFLT' <'dflt' > 'latn' <'CAT ' 'ESP ' 'GAL ' 'dflt' > ) ]
Lookup: 6 1 0 "'ccmp' Glyph Composition/Decomposition lookup 2" { "'ccmp' Glyph Composition/Decomposition lookup 2 subtable"  } ['ccmp' ('arab' <'KUR ' 'SND ' 'URD ' 'dflt' > 'hebr' <'dflt' > 'nko ' <'dflt' > ) ]
Lookup: 6 0 0 "'ccmp' Glyph Composition/Decomposition lookup 3" { "'ccmp' Glyph Composition/Decomposition lookup 3 subtable"  } ['ccmp' ('cyrl' <'MKD ' 'SRB ' 'dflt' > 'grek' <'dflt' > 'latn' <'ISM ' 'KSM ' 'LSM ' 'MOL ' 'NSM ' 'ROM ' 'SKS ' 'SSM ' 'dflt' > ) ]

StartChar: exclam
Encoding: 33 33 1
Width: 787
VWidth: 2158
GlyphClass: 2
Flags: W
LayerCount: 2
Fore
SplineSet
301.725585938 201.890625 m 1,0,-1
 495.231445312 201.890625 l 1,1,-1
 495.231445312 0 l 1,2,-1
 301.725585938 0 l 1,3,-1
 301.725585938 201.890625 l 1,0,-1
301.725585938 1474.01171875 m 1,4,-1
 495.231445312 1474.01171875 l 1,5,-1
 495.231445312 827.83203125 l 1,6,-1
 475.596679688 477.459960938 l 1,7,-1
 322.342773438 477.459960938 l 1,8,-1
 301.71875 828.067382812 l 1,9,-1
 301.725585938 1474.01171875 l 1,4,-1
EndSplineSet
EndChar

StartChar: parenleft
Encoding: 40 40 2
Width: 766
VWidth: 2158
GlyphClass: 2
Flags: W
GlyphCompositionVertical: 3  uni239D%0,0,46,2854 uni239C%1,46,46,2884 uni239B%0,46,0,2893
LayerCount: 2
Fore
SplineSet
614.377929688 1534.5625 m 1,0,1
 548.782226562 1421.18359375 548.782226562 1421.18359375 500.346679688 1309.921875 c 128,-1,2
 451.911132812 1198.66113281 451.911132812 1198.66113281 419.948242188 1088.02148438 c 0,3,4
 387.610351562 976.083984375 387.610351562 976.083984375 371.440429688 862.640625 c 128,-1,5
 355.26953125 749.197265625 355.26953125 749.197265625 355.26953125 634.267578125 c 0,6,7
 355.555664062 403.916015625 355.555664062 403.916015625 420.444335938 179.0234375 c 0,8,9
 484.680664062 -43.1025390625 484.680664062 -43.1025390625 614.388671875 -268.012695312 c 1,10,-1
 464.697265625 -268.012695312 l 1,11,12
 316.8203125 -35.7001953125 316.8203125 -35.7001953125 243.45703125 187.833984375 c 0,13,14
 169.705078125 412.555664062 169.705078125 412.555664062 169.705078125 634.267578125 c 0,15,16
 169.705078125 854.987304688 169.705078125 854.987304688 242.961914062 1078.71777344 c 0,17,18
 315.830078125 1301.26269531 315.830078125 1301.26269531 464.694335938 1534.5625 c 1,19,-1
 614.377929688 1534.5625 l 1,0,1
EndSplineSet
EndChar

StartChar: parenright
Encoding: 41 41 3
Width: 766
VWidth: 2158
GlyphClass: 2
Flags: W
GlyphCompositionVertical: 3  uni23A0%0,0,46,2854 uni239F%1,46,46,2884 uni239E%0,46,0,2893
LayerCount: 2
Fore
SplineSet
160.715820312 1534.5625 m 1,0,-1
 310.416992188 1534.5625 l 1,1,2
 458.30078125 1301.26464844 458.30078125 1301.26464844 531.6640625 1078.7109375 c 0,3,4
 605.415039062 854.983398438 605.415039062 854.983398438 605.415039062 634.267578125 c 0,5,6
 605.415039062 523.416015625 605.415039062 523.416015625 586.979492188 411.813476562 c 128,-1,7
 568.543945312 300.2109375 568.543945312 300.2109375 531.662109375 187.833984375 c 0,8,9
 494.94921875 75.96875 494.94921875 75.96875 439.627929688 -37.986328125 c 128,-1,10
 384.306640625 -151.94140625 384.306640625 -151.94140625 310.421875 -268.012695312 c 1,11,-1
 160.73046875 -268.012695312 l 1,12,13
 290.439453125 -43.1025390625 290.439453125 -43.1025390625 354.674804688 179.0234375 c 0,14,15
 419.849609375 404.401367188 419.849609375 404.401367188 419.849609375 634.267578125 c 0,16,17
 419.849609375 749.19921875 419.849609375 749.19921875 403.5546875 862.64453125 c 128,-1,18
 387.258789062 976.090820312 387.258789062 976.090820312 354.672851562 1088.02929688 c 0,19,20
 290.440429688 1308.67382812 290.440429688 1308.67382812 160.715820312 1534.5625 c 1,0,-1
EndSplineSet
EndChar

StartChar: period
Encoding: 46 46 4
Width: 496
VWidth: 2158
GlyphClass: 2
Flags: W
LayerCount: 2
Fore
SplineSet
152.333007812 201.890625 m 1,0,-1
 353.780273438 201.890625 l 1,1,-1
 353.780273438 0 l 1,2,-1
 152.333007812 0 l 1,3,-1
 152.333007812 201.890625 l 1,0,-1
EndSplineSet
EndChar

StartChar: colon
Encoding: 58 58 5
Width: 657
VWidth: 2158
GlyphClass: 2
Flags: W
LayerCount: 2
Fore
SplineSet
233.233398438 201.890625 m 1,0,-1
 434.680664062 201.890625 l 1,1,-1
 434.680664062 0 l 1,2,-1
 233.233398438 0 l 1,3,-1
 233.233398438 201.890625 l 1,0,-1
233.233398438 832.005859375 m 1,4,-1
 434.680664062 832.005859375 l 1,5,-1
 434.680664062 630.115234375 l 1,6,-1
 233.233398438 630.115234375 l 1,7,-1
 233.233398438 832.005859375 l 1,4,-1
EndSplineSet
EndChar

StartChar: afii57388
Encoding: 1548 1548 7
Width: 674
VWidth: 2165
GlyphClass: 2
Flags: W
LayerCount: 2
Fore
SplineSet
366.744140625 0 m 0,0,1
 251.885742188 0 251.885742188 0 227.23046875 113.00390625 c 0,2,3
 215.802734375 165.986328125 215.802734375 165.986328125 236.573242188 255.9453125 c 0,4,5
 274.198242188 421.465820312 274.198242188 421.465820312 451.75 590.75 c 1,6,-1
 512.190429688 552.1171875 l 1,7,8
 372.365234375 436.421875 372.365234375 436.421875 360.681640625 262.379882812 c 2,9,-1
 360.391601562 258.055664062 l 1,10,-1
 364.724609375 258.112304688 l 2,11,12
 368.103515625 258.157226562 368.103515625 258.157226562 371.40625 258.127929688 c 128,-1,13
 374.708007812 258.098632812 374.708007812 258.098632812 377.9296875 257.99609375 c 128,-1,14
 381.150390625 257.893554688 381.150390625 257.893554688 384.294921875 257.71875 c 0,15,16
 521.545898438 250.065429688 521.545898438 250.065429688 512.703125 100.8515625 c 0,17,18
 506.780273438 0 506.780273438 0 366.744140625 0 c 0,0,1
EndSplineSet
EndChar

StartChar: uni0615
Encoding: 1557 1557 8
Width: -27
VWidth: 2304
GlyphClass: 4
Flags: W
AnchorPoint: "Anchor-10" 557.519 1383.15 mark 0
AnchorPoint: "Anchor-9" 557.519 1383.15 mark 0
AnchorPoint: "Anchor-1" 569.519 2080.6 basemark 0
AnchorPoint: "Anchor-1" 557.519 1383.15 mark 0
LayerCount: 2
Fore
SplineSet
474.836914062 1530.54980469 m 1,0,-1
 574.0390625 1530.54980469 l 2,1,2
 661 1531 661 1531 713.122809335 1561.77490235 c 0,3,4
 769 1596 769 1596 769 1631 c 0,5,6
 769 1667 769 1667 744 1681 c 24,7,8
 708 1700 708 1700 673.151809324 1684.89682503 c 0,9,10
 557 1633 557 1633 474.836914062 1530.54980469 c 1,0,-1
846.700195312 1640.93164062 m 0,11,12
 847.000184408 1451.88378906 847.000184408 1451.88378906 600.02734375 1451.88378906 c 2,13,-1
 293.467773438 1451.88378906 l 1,14,-1
 293.467773438 1530.54980469 l 1,15,-1
 384.991210938 1530.54980469 l 1,16,-1
 384.991210938 1981.38769531 l 1,17,-1
 464.787109375 1980.38769531 l 5,18,-1
 464 1578 l 1,19,20
 547 1708 547 1708 647.014648438 1747.5234375 c 0,21,22
 710 1773 710 1773 779.298608858 1746.85175385 c 0,23,24
 847 1721 847 1721 846.700195312 1640.93164062 c 0,11,12
EndSplineSet
EndChar

StartChar: uni061B
Encoding: 1563 1563 9
Width: 663
VWidth: 2165
GlyphClass: 2
Flags: W
LayerCount: 2
Fore
SplineSet
255.405273438 201.890625 m 1,0,-1
 456.852539062 201.890625 l 1,1,-1
 456.852539062 0 l 1,2,-1
 255.405273438 0 l 1,3,-1
 255.405273438 201.890625 l 1,0,-1
348.642578125 457.893554688 m 0,4,5
 233.368164062 459.908203125 233.368164062 459.908203125 209.130859375 570.879882812 c 0,6,7
 197.84765625 624.283203125 197.84765625 624.283203125 218.471679688 713.837890625 c 0,8,9
 256.244140625 879.764648438 256.244140625 879.764648438 433.674804688 1048.67089844 c 1,10,-1
 495.28515625 1010.34765625 l 1,11,12
 354.412109375 891.5859375 354.412109375 891.5859375 342.581054688 720.280273438 c 2,13,-1
 342.28125 715.9375 l 1,14,-1
 346.633789062 716.004882812 l 2,15,16
 357.279296875 716.170898438 357.279296875 716.170898438 367.163085938 715.607421875 c 0,17,18
 435.83203125 711.69140625 435.83203125 711.69140625 467.475585938 672.841796875 c 128,-1,19
 499.118164062 633.9921875 499.118164062 633.9921875 494.600585938 558.740234375 c 0,20,21
 493.4453125 538.66015625 493.4453125 538.66015625 487.076171875 522.645507812 c 128,-1,22
 480.706054688 506.630859375 480.706054688 506.630859375 468.946289062 494.498046875 c 128,-1,23
 457.185546875 482.366210938 457.185546875 482.366210938 439.990234375 474.282226562 c 128,-1,24
 422.793945312 466.198242188 422.793945312 466.198242188 399.962890625 462.0859375 c 128,-1,25
 377.131835938 457.974609375 377.131835938 457.974609375 348.642578125 457.893554688 c 0,4,5
EndSplineSet
EndChar

StartChar: uni061F
Encoding: 1567 1567 10
Width: 1051
VWidth: 2158
GlyphClass: 2
Flags: W
LayerCount: 2
Fore
SplineSet
681.84765625 201.890625 m 1,0,-1
 681.84765625 0 l 1,1,-1
 488.341796875 0 l 1,2,-1
 488.341796875 201.890625 l 1,3,-1
 681.84765625 201.890625 l 1,0,-1
494.297851562 475.13671875 m 1,4,-1
 494.297851562 516.129882812 l 2,5,6
 494.489257812 572.822265625 494.489257812 572.822265625 491.294921875 597.995117188 c 0,7,8
 488.09375 629.317382812 488.09375 629.317382812 482.209960938 649.340820312 c 0,9,10
 478.09375 662.125 478.09375 662.125 471.134765625 675.159179688 c 128,-1,11
 464.174804688 688.192382812 464.174804688 688.192382812 454.317382812 701.647460938 c 0,12,13
 443.330078125 716.663085938 443.330078125 716.663085938 426.73828125 735.000976562 c 128,-1,14
 410.146484375 753.338867188 410.146484375 753.338867188 387.874023438 775.104492188 c 2,15,-1
 300.49609375 860.497070312 l 2,16,17
 211.76953125 945.672851562 211.76953125 945.672851562 176.1953125 1012.83300781 c 0,18,19
 140.73046875 1080.43652344 140.73046875 1080.43652344 140.91796875 1154.41601562 c 0,20,21
 140.729492188 1309.95996094 140.729492188 1309.95996094 250.223632812 1405.50878906 c 0,22,23
 359.983398438 1501.02246094 359.983398438 1501.02246094 540.930664062 1500.8125 c 0,24,25
 574.977539062 1500.8828125 574.977539062 1500.8828125 608.200195312 1497.8359375 c 128,-1,26
 641.421875 1494.7890625 641.421875 1494.7890625 673.826171875 1488.625 c 128,-1,27
 706.229492188 1482.46191406 706.229492188 1482.46191406 737.833007812 1473.17871094 c 0,28,29
 831.288085938 1445.89746094 831.288085938 1445.89746094 923.247070312 1390.86914062 c 1,30,-1
 874.845703125 1245.16113281 l 1,31,32
 825.184570312 1277.890625 825.184570312 1277.890625 738.946289062 1312.64746094 c 0,33,34
 654.932617188 1346.40429688 654.932617188 1346.40429688 575.6796875 1346.01953125 c 0,35,36
 548.569335938 1346.11523438 548.569335938 1346.11523438 524.084960938 1342.70410156 c 128,-1,37
 499.600585938 1339.29296875 499.600585938 1339.29296875 477.727539062 1332.3671875 c 128,-1,38
 455.854492188 1325.44042969 455.854492188 1325.44042969 436.62109375 1314.96386719 c 128,-1,39
 417.387695312 1304.48632812 417.387695312 1304.48632812 400.86328125 1290.48242188 c 0,40,41
 367.713867188 1262.51855469 367.713867188 1262.51855469 351.069335938 1225.92480469 c 128,-1,42
 334.423828125 1189.33105469 334.423828125 1189.33105469 334.423828125 1144.484375 c 0,43,44
 334.423828125 1095.34570312 334.423828125 1095.34570312 360.219726562 1047.28515625 c 0,45,46
 373.086914062 1023.54296875 373.086914062 1023.54296875 393.7734375 998.467773438 c 128,-1,47
 414.458984375 973.392578125 414.458984375 973.392578125 442.861328125 947.038085938 c 2,48,-1
 532.178710938 858.713867188 l 2,49,50
 632.388671875 762.987304688 632.388671875 762.987304688 648.266601562 710.546875 c 0,51,52
 675.892578125 618.240234375 675.892578125 618.240234375 675.892578125 546.915039062 c 2,53,-1
 675.892578125 475.13671875 l 1,54,-1
 494.297851562 475.13671875 l 1,4,-1
EndSplineSet
EndChar

StartChar: uni0621
Encoding: 1569 1569 11
Width: 814
VWidth: 2304
GlyphClass: 2
Flags: W
AnchorPoint: "Anchor-7" 305.765 -257.44 basechar 0
AnchorPoint: "Anchor-10" 331.637 1280.62 basechar 0
LayerCount: 2
Fore
SplineSet
120.702148438 1.8271484375 m 1,0,-1
 120.702148438 164.1484375 l 1,1,-1
 358.524414062 249.44921875 l 1,2,-1
 343.911132812 252.1328125 l 2,3,4
 89.8633418046 299.210635144 89.8633418046 299.210635144 91.078125 531.056640625 c 0,5,6
 92 706 92 706 239.879882812 786.846679688 c 4,7,8
 399 873 399 873 615.534179688 811.241210938 c 5,9,-1
 615.534179688 662 l 5,10,11
 531 679 531 679 459.034179688 681 c 4,12,13
 388 683 388 683 338.620117188 663.676757812 c 4,14,15
 243 625 243 625 242.534179688 530 c 0,16,17
 243 398 243 398 427.5859375 361.67578125 c 0,18,19
 594 329 594 329 722.922851562 402.125976562 c 1,20,-1
 722.922851562 233.823242188 l 1,21,-1
 120.702148438 1.8271484375 l 1,0,-1
EndSplineSet
EndChar

StartChar: uni0627
Encoding: 1575 1575 17
Width: 453
VWidth: 2304
GlyphClass: 2
Flags: W
AnchorPoint: "Anchor-10" 225.512 1612.79 basechar 0
AnchorPoint: "Anchor-7" 228.68 -253.688 basechar 0
LayerCount: 2
Fore
SplineSet
150.903320312 1470.4140625 m 1,0,-1
 319.12890625 1470.4140625 l 1,1,-1
 319.12890625 0.583984375 l 1,2,-1
 150.903320312 0.583984375 l 1,3,-1
 150.903320312 1470.4140625 l 1,0,-1
EndSplineSet
Substitution2: "'fina' Terminal Forms in Arabic lookup 9 subtable" uniFE8E
EndChar

StartChar: uni062D
Encoding: 1581 1581 23
Width: 1248
VWidth: 2304
GlyphClass: 2
Flags: W
AnchorPoint: "Anchor-10" 472.008 1248.94 basechar 0
AnchorPoint: "Anchor-7" 409.007 -730 basechar 0
LayerCount: 2
Fore
SplineSet
1150.02539062 521.140625 m 1,0,1
 1081 535 1081 535 873.220703125 503.666992188 c 0,2,3
 555 455 555 455 392.666015625 295.610351562 c 0,4,5
 254 160 254 160 254.158203125 -12.880859375 c 0,6,7
 254 -377 254 -377 767.532643167 -377.629365324 c 0,8,9
 957 -378 957 -378 1107.27050781 -324.296875 c 1,10,-1
 1149.89550781 -472.696289062 l 1,11,12
 996 -539 996 -539 702.056640625 -535.910644531 c 0,13,14
 409 -533 409 -533 250.911621094 -392.363769531 c 0,15,16
 93 -251 93 -251 94.2641601562 -14.0673828127 c 0,17,18
 95 231 95 231 305.522460938 418.418945312 c 4,19,20
 481 575 481 575 774.56640625 604.956054688 c 1,21,22
 687 646 687 646 609.425984324 704.063059384 c 128,-1,23
 532 762 532 762 471.372070312 763.27734375 c 0,24,25
 342 766 342 766 214.829101562 597.65625 c 1,26,-1
 91.64453125 686.127929688 l 1,27,28
 177 791 177 791 200.62890625 814.715820312 c 0,29,30
 312 924 312 924 458.635742188 924.23828125 c 0,31,32
 569 924 569 924 663.26953125 848.25 c 0,33,34
 915 645 915 645 1156.82910156 655.774414062 c 1,35,-1
 1150.02539062 521.140625 l 1,0,1
EndSplineSet
Substitution2: "'fina' Terminal Forms in Arabic lookup 9 subtable" uniFEA2
Substitution2: "'medi' Medial Forms in Arabic lookup 11 subtable" uniFEA4
Substitution2: "'init' Initial Forms in Arabic lookup 13 subtable" uniFEA3
EndChar

StartChar: uni062F
Encoding: 1583 1583 25
Width: 939
VWidth: 2304
GlyphClass: 2
Flags: W
AnchorPoint: "Anchor-10" 292.572 1176.08 basechar 0
AnchorPoint: "Anchor-7" 340.008 -265.888 basechar 0
LayerCount: 2
Fore
SplineSet
847.833007812 288.1953125 m 0,0,1
 847.833007812 171.251953125 847.833007812 171.251953125 742.938476562 86.5043945312 c 128,-1,2
 638.043945312 1.7568359375 638.043945312 1.7568359375 416.658691406 1.7568359375 c 128,-1,3
 195.2734375 1.7568359375 195.2734375 1.7568359375 92.9443359375 22.302734375 c 1,4,-1
 92.9443359375 203.889648438 l 1,5,6
 237.294921875 180.237304688 237.294921875 180.237304688 350.703125 180.237304688 c 0,7,8
 675.677734375 180.237304688 675.677734375 180.237304688 675.677734375 321.438476562 c 0,9,10
 675.677734375 365.362304688 675.677734375 365.362304688 624.759765625 441.73828125 c 0,11,12
 523.873046875 593.068359375 523.873046875 593.068359375 305.88671875 746.797851562 c 1,13,-1
 400.487304688 890.103515625 l 1,14,15
 847.833007812 566.616210938 847.833007812 566.616210938 847.833007812 288.1953125 c 0,0,1
EndSplineSet
Substitution2: "'fina' Terminal Forms in Arabic lookup 9 subtable" uniFEAA
EndChar

StartChar: uni0631
Encoding: 1585 1585 27
Width: 765
VWidth: 2304
GlyphClass: 2
Flags: W
AnchorPoint: "Anchor-10" 440.707 857.056 basechar 0
AnchorPoint: "Anchor-7" 261.188 -663.857 basechar 0
LayerCount: 2
Fore
SplineSet
446.86328125 494.375976562 m 1,0,-1
 601.892578125 554.77734375 l 1,1,2
 674.984375 384.250976562 674.984375 384.250976562 673.548828125 166.095703125 c 0,3,4
 668.71853841 -414.488356947 668.71853841 -414.488356947 34.958984375 -480.125976562 c 1,5,-1
 5.3544921875 -315.846679688 l 1,6,7
 505.593505259 -272.929259176 505.593505259 -272.929259176 507.157226562 161.708984375 c 0,8,9
 507.703469341 364.004144939 507.703469341 364.004144939 446.86328125 494.375976562 c 1,0,-1
EndSplineSet
PairPos2: "'kern' Horizontal Kerning lookup 15-1" uniFEE7 dx=-150 dy=0 dh=-150 dv=0 dx=0 dy=0 dh=0 dv=0
PairPos2: "'kern' Horizontal Kerning lookup 15-2" uniFB90 dx=-190 dy=0 dh=-190 dv=0 dx=0 dy=0 dh=0 dv=0
PairPos2: "'kern' Horizontal Kerning lookup 15-2" uniFB8E dx=-190 dy=0 dh=-190 dv=0 dx=0 dy=0 dh=0 dv=0
PairPos2: "'kern' Horizontal Kerning lookup 15-2" uni06A9 dx=-190 dy=0 dh=-190 dv=0 dx=0 dy=0 dh=0 dv=0
PairPos2: "'kern' Horizontal Kerning lookup 15-2" uni064A dx=-50 dy=0 dh=-50 dv=0 dx=0 dy=0 dh=0 dv=0
PairPos2: "'kern' Horizontal Kerning lookup 15-2" afii57414 dx=-50 dy=0 dh=-50 dv=0 dx=0 dy=0 dh=0 dv=0
PairPos2: "'kern' Horizontal Kerning lookup 15-2" uni0649 dx=-50 dy=0 dh=-50 dv=0 dx=0 dy=0 dh=0 dv=0
PairPos2: "'kern' Horizontal Kerning lookup 15-2" uni0648 dx=-50 dy=0 dh=-50 dv=0 dx=0 dy=0 dh=0 dv=0
PairPos2: "'kern' Horizontal Kerning lookup 15-2" afii57412 dx=-50 dy=0 dh=-50 dv=0 dx=0 dy=0 dh=0 dv=0
PairPos2: "'kern' Horizontal Kerning lookup 15-2" uniFEEB dx=-150 dy=0 dh=-150 dv=0 dx=0 dy=0 dh=0 dv=0
PairPos2: "'kern' Horizontal Kerning lookup 15-2" uni0647 dx=-150 dy=0 dh=-150 dv=0 dx=0 dy=0 dh=0 dv=0
PairPos2: "'kern' Horizontal Kerning lookup 15-2" uni0646 dx=-50 dy=0 dh=-50 dv=0 dx=0 dy=0 dh=0 dv=0
PairPos2: "'kern' Horizontal Kerning lookup 15-2" uniFEE3 dx=-150 dy=0 dh=-150 dv=0 dx=0 dy=0 dh=0 dv=0
PairPos2: "'kern' Horizontal Kerning lookup 15-2" uni0645 dx=-150 dy=0 dh=-150 dv=0 dx=0 dy=0 dh=0 dv=0
PairPos2: "'kern' Horizontal Kerning lookup 15-2" uniFEFB dx=-150 dy=0 dh=-150 dv=0 dx=0 dy=0 dh=0 dv=0
PairPos2: "'kern' Horizontal Kerning lookup 15-2" uniFEDF dx=-150 dy=0 dh=-150 dv=0 dx=0 dy=0 dh=0 dv=0
PairPos2: "'kern' Horizontal Kerning lookup 15-2" uni0644 dx=-50 dy=0 dh=-50 dv=0 dx=0 dy=0 dh=0 dv=0
PairPos2: "'kern' Horizontal Kerning lookup 15-2" uniFEDB dx=-190 dy=0 dh=-190 dv=0 dx=0 dy=0 dh=0 dv=0
PairPos2: "'kern' Horizontal Kerning lookup 15-2" uni0643 dx=-150 dy=0 dh=-150 dv=0 dx=0 dy=0 dh=0 dv=0
PairPos2: "'kern' Horizontal Kerning lookup 15-2" uniFED7 dx=-150 dy=0 dh=-150 dv=0 dx=0 dy=0 dh=0 dv=0
PairPos2: "'kern' Horizontal Kerning lookup 15-2" uni0642 dx=-50 dy=0 dh=-50 dv=0 dx=0 dy=0 dh=0 dv=0
PairPos2: "'kern' Horizontal Kerning lookup 15-2" uniFED3 dx=-150 dy=0 dh=-150 dv=0 dx=0 dy=0 dh=0 dv=0
PairPos2: "'kern' Horizontal Kerning lookup 15-2" uni0641 dx=-150 dy=0 dh=-150 dv=0 dx=0 dy=0 dh=0 dv=0
PairPos2: "'kern' Horizontal Kerning lookup 15-2" uniFECF dx=-150 dy=0 dh=-150 dv=0 dx=0 dy=0 dh=0 dv=0
PairPos2: "'kern' Horizontal Kerning lookup 15-2" uniFECB dx=-150 dy=0 dh=-150 dv=0 dx=0 dy=0 dh=0 dv=0
PairPos2: "'kern' Horizontal Kerning lookup 15-2" uniFEC7 dx=-150 dy=0 dh=-150 dv=0 dx=0 dy=0 dh=0 dv=0
PairPos2: "'kern' Horizontal Kerning lookup 15-2" uni0638 dx=-150 dy=0 dh=-150 dv=0 dx=0 dy=0 dh=0 dv=0
PairPos2: "'kern' Horizontal Kerning lookup 15-2" uniFEC3 dx=-150 dy=0 dh=-150 dv=0 dx=0 dy=0 dh=0 dv=0
PairPos2: "'kern' Horizontal Kerning lookup 15-2" uni0637 dx=-150 dy=0 dh=-150 dv=0 dx=0 dy=0 dh=0 dv=0
PairPos2: "'kern' Horizontal Kerning lookup 15-2" uniFEBF dx=-150 dy=0 dh=-150 dv=0 dx=0 dy=0 dh=0 dv=0
PairPos2: "'kern' Horizontal Kerning lookup 15-2" uni0636 dx=-150 dy=0 dh=-150 dv=0 dx=0 dy=0 dh=0 dv=0
PairPos2: "'kern' Horizontal Kerning lookup 15-2" uniFEBB dx=-150 dy=0 dh=-150 dv=0 dx=0 dy=0 dh=0 dv=0
PairPos2: "'kern' Horizontal Kerning lookup 15-2" uni0635 dx=-150 dy=0 dh=-150 dv=0 dx=0 dy=0 dh=0 dv=0
PairPos2: "'kern' Horizontal Kerning lookup 15-2" uniFEB7 dx=-150 dy=0 dh=-150 dv=0 dx=0 dy=0 dh=0 dv=0
PairPos2: "'kern' Horizontal Kerning lookup 15-2" uni0634 dx=-150 dy=0 dh=-150 dv=0 dx=0 dy=0 dh=0 dv=0
PairPos2: "'kern' Horizontal Kerning lookup 15-2" uniFEB3 dx=-150 dy=0 dh=-150 dv=0 dx=0 dy=0 dh=0 dv=0
PairPos2: "'kern' Horizontal Kerning lookup 15-2" uni0633 dx=-150 dy=0 dh=-150 dv=0 dx=0 dy=0 dh=0 dv=0
PairPos2: "'kern' Horizontal Kerning lookup 15-2" uni0632 dx=-50 dy=0 dh=-50 dv=0 dx=0 dy=0 dh=0 dv=0
PairPos2: "'kern' Horizontal Kerning lookup 15-2" uni0631 dx=-50 dy=0 dh=-50 dv=0 dx=0 dy=0 dh=0 dv=0
PairPos2: "'kern' Horizontal Kerning lookup 15-2" uni0630 dx=-150 dy=0 dh=-150 dv=0 dx=0 dy=0 dh=0 dv=0
PairPos2: "'kern' Horizontal Kerning lookup 15-2" uni062F dx=-150 dy=0 dh=-150 dv=0 dx=0 dy=0 dh=0 dv=0
PairPos2: "'kern' Horizontal Kerning lookup 15-2" uniFEA7 dx=-150 dy=0 dh=-150 dv=0 dx=0 dy=0 dh=0 dv=0
PairPos2: "'kern' Horizontal Kerning lookup 15-2" uniFEA3 dx=-150 dy=0 dh=-150 dv=0 dx=0 dy=0 dh=0 dv=0
PairPos2: "'kern' Horizontal Kerning lookup 15-2" uniFE9F dx=-150 dy=0 dh=-150 dv=0 dx=0 dy=0 dh=0 dv=0
PairPos2: "'kern' Horizontal Kerning lookup 15-2" uniFE9B dx=-150 dy=0 dh=-150 dv=0 dx=0 dy=0 dh=0 dv=0
PairPos2: "'kern' Horizontal Kerning lookup 15-2" uni062B dx=-150 dy=0 dh=-150 dv=0 dx=0 dy=0 dh=0 dv=0
PairPos2: "'kern' Horizontal Kerning lookup 15-2" uniFE97 dx=-150 dy=0 dh=-150 dv=0 dx=0 dy=0 dh=0 dv=0
PairPos2: "'kern' Horizontal Kerning lookup 15-2" uni062A dx=-150 dy=0 dh=-150 dv=0 dx=0 dy=0 dh=0 dv=0
PairPos2: "'kern' Horizontal Kerning lookup 15-2" uni0629 dx=-150 dy=0 dh=-150 dv=0 dx=0 dy=0 dh=0 dv=0
PairPos2: "'kern' Horizontal Kerning lookup 15-2" uniFE91 dx=-50 dy=0 dh=-50 dv=0 dx=0 dy=0 dh=0 dv=0
PairPos2: "'kern' Horizontal Kerning lookup 15-2" uni0628 dx=-150 dy=0 dh=-150 dv=0 dx=0 dy=0 dh=0 dv=0
PairPos2: "'kern' Horizontal Kerning lookup 15-2" uni0627 dx=-190 dy=0 dh=-190 dv=0 dx=0 dy=0 dh=0 dv=0
PairPos2: "'kern' Horizontal Kerning lookup 15-2" uni0623 dx=-190 dy=0 dh=-190 dv=0 dx=0 dy=0 dh=0 dv=0
PairPos2: "'kern' Horizontal Kerning lookup 15-2" uni0622 dx=-190 dy=0 dh=-190 dv=0 dx=0 dy=0 dh=0 dv=0
PairPos2: "'kern' Horizontal Kerning lookup 15-2" uni0621 dx=-150 dy=0 dh=-150 dv=0 dx=0 dy=0 dh=0 dv=0
PairPos2: "'kern' Horizontal Kerning lookup 15-2" uniFB94 dx=-190 dy=0 dh=-190 dv=0 dx=0 dy=0 dh=0 dv=0
PairPos2: "'kern' Horizontal Kerning lookup 15-2" uniFB92 dx=-190 dy=0 dh=-190 dv=0 dx=0 dy=0 dh=0 dv=0
PairPos2: "'kern' Horizontal Kerning lookup 15-2" afii57509 dx=-190 dy=0 dh=-190 dv=0 dx=0 dy=0 dh=0 dv=0
PairPos2: "'kern' Horizontal Kerning lookup 15-2" afii57508 dx=-50 dy=0 dh=-50 dv=0 dx=0 dy=0 dh=0 dv=0
PairPos2: "'kern' Horizontal Kerning lookup 15-2" afii57506 dx=-150 dy=0 dh=-150 dv=0 dx=0 dy=0 dh=0 dv=0
PairPos2: "'kern' Horizontal Kerning lookup 15-2" afii57440 dx=-150 dy=0 dh=-150 dv=0 dx=0 dy=0 dh=0 dv=0
PairPos2: "'kern' Horizontal Kerning lookup 15-2" uniFE8B dx=-150 dy=0 dh=-150 dv=0 dx=0 dy=0 dh=0 dv=0
Substitution2: "'fina' Terminal Forms in Arabic lookup 9 subtable" uniFEAE
EndChar

StartChar: uni0633
Encoding: 1587 1587 29
Width: 2488
VWidth: 2304
GlyphClass: 2
Flags: W
AnchorPoint: "Anchor-10" 569.171 895.184 basechar 0
AnchorPoint: "Anchor-7" 399.72 -703.84 basechar 0
LayerCount: 2
Fore
SplineSet
1340.5 307.78515625 m 0,0,1
 1386.28515625 173.622070312 1386.28515625 173.622070312 1541.72558594 174.127929688 c 0,2,3
 1629.6640625 174.412109375 1629.6640625 174.412109375 1678.23144531 209.232421875 c 128,-1,4
 1726.79882812 244.052734375 1726.79882812 244.052734375 1734.53515625 313.084960938 c 2,5,-1
 1762.00195312 555.978515625 l 1,6,-1
 1877.23730469 555.978515625 l 1,7,-1
 1901.73046875 336.374023438 l 2,8,9
 1919.90722656 175.744140625 1919.90722656 175.744140625 2050.20019531 175.744140625 c 0,10,11
 2147.09570312 175.744140625 2147.09570312 175.744140625 2195.72753906 242.000976562 c 128,-1,12
 2244.359375 308.258789062 2244.359375 308.258789062 2244.43945312 438.912109375 c 0,13,14
 2244.28125 549.642578125 2244.28125 549.642578125 2177.60546875 670.427734375 c 1,15,-1
 2316.08203125 729.416992188 l 1,16,17
 2353.79492188 667.809570312 2353.79492188 667.809570312 2374.04492188 588.137695312 c 128,-1,18
 2394.29492188 508.466796875 2394.29492188 508.466796875 2396.98828125 410.75 c 0,19,20
 2399.91601562 304.479492188 2399.91601562 304.479492188 2367.73046875 221.426757812 c 128,-1,21
 2335.54492188 138.375 2335.54492188 138.375 2268.2578125 78.19921875 c 0,22,23
 2179.63769531 0.005859375 2179.63769531 0.005859375 2053.5625 0.5263671875 c 0,24,25
 1859.87011719 0.0078125 1859.87011719 0.0078125 1815.68066406 138.190429688 c 2,26,-1
 1811.85449219 150.157226562 l 1,27,-1
 1808.05761719 138.1796875 l 2,28,29
 1764.26367188 0 1764.26367188 0 1542.26367188 0 c 0,30,31
 1392.37890625 0 1392.37890625 0 1360.82421875 48.8583984375 c 2,32,-1
 1354.03515625 59.3701171875 l 1,33,-1
 1353.46777344 46.8701171875 l 2,34,35
 1330.41015625 -461.471679688 1330.41015625 -461.471679688 749.313476562 -461.4296875 c 0,36,37
 91.0966796875 -461.471679688 91.0966796875 -461.471679688 91.251953125 93.361328125 c 0,38,39
 91.09765625 252.81640625 91.09765625 252.81640625 166.25 469.770507812 c 1,40,-1
 330.288085938 434.532226562 l 1,41,42
 262.618164062 237.860351562 262.618164062 237.860351562 262.844726562 86.7314453125 c 0,43,44
 262.61328125 -292.068359375 262.61328125 -292.068359375 729.8984375 -291.604492188 c 0,45,46
 1203.06347656 -292.068359375 1203.06347656 -292.068359375 1203.13476562 74.779296875 c 0,47,48
 1203.12304688 104.055664062 1203.12304688 104.055664062 1201.28417969 135.559570312 c 128,-1,49
 1199.4453125 167.063476562 1199.4453125 167.063476562 1195.79394531 200.634765625 c 128,-1,50
 1192.14355469 234.206054688 1192.14355469 234.206054688 1186.69433594 269.880859375 c 128,-1,51
 1181.24511719 305.555664062 1181.24511719 305.555664062 1174.0078125 343.241210938 c 128,-1,52
 1166.77050781 380.926757812 1166.77050781 380.926757812 1157.76367188 420.588867188 c 128,-1,53
 1148.75683594 460.250976562 1148.75683594 460.250976562 1137.98632812 501.86328125 c 1,54,-1
 1293.75097656 535.224609375 l 1,55,56
 1328.39355469 343.017578125 1328.39355469 343.017578125 1340.5 307.78515625 c 0,0,1
EndSplineSet
Substitution2: "'fina' Terminal Forms in Arabic lookup 9 subtable" uniFEB2
Substitution2: "'medi' Medial Forms in Arabic lookup 11 subtable" uniFEB4
Substitution2: "'init' Initial Forms in Arabic lookup 13 subtable" uniFEB3
EndChar

StartChar: uni0635
Encoding: 1589 1589 31
Width: 2442
VWidth: 2304
GlyphClass: 2
Flags: W
AnchorPoint: "Anchor-10" 499.823 895.184 basechar 0
AnchorPoint: "Anchor-7" 447.023 -708.88 basechar 0
LayerCount: 2
Fore
SplineSet
1414.53222656 294.678710938 m 1,0,1
 1738 770 1738 770 2021.27636719 770.291992188 c 4,2,3
 2358 770 2358 770 2350.39355469 381.864257812 c 0,4,5
 2346 161 2346 161 2195.47995191 79.9892049931 c 128,-1,6
 2044.95988524 -1.02159000158 2044.95988524 -1.02159000158 1690.3984375 -0.7958984375 c 2,7,-1
 1688.86425781 -0.794921875 l 2,8,9
 1685.98983655 -0.84918061336 1685.98983655 -0.84918061336 1667.01660156 -0.7080078125 c 2,10,-1
 1571.86230469 0 l 2,11,12
 1424 1 1424 1 1379.47363281 74.484375 c 1,13,-1
 1348.14746094 74.560546875 l 1,14,-1
 1348.13183594 70.56640625 l 2,15,16
 1346 -461 1346 -461 749.313476562 -461.4296875 c 0,17,18
 92 -461 92 -461 91.251953125 93.361328125 c 0,19,20
 91 253 91 253 166.25 469.770507812 c 1,21,-1
 330.288085938 434.532226562 l 1,22,23
 263 238 263 238 262.844726562 86.7314453125 c 0,24,25
 263 -292 263 -292 733.913177775 -292.000763407 c 128,-1,26
 1205 -292 1205 -292 1203.13476562 74.779296875 c 0,27,28
 1202 257 1202 257 1137.98632812 501.86328125 c 1,29,-1
 1293.56835938 535.185546875 l 1,30,31
 1326 296 1326 296 1414.53222656 294.678710938 c 1,0,1
1522.98730469 191.940429688 m 1,32,-1
 1720.54785156 191.940429688 l 2,33,34
 1956.74187719 192.056279033 1956.74187719 192.056279033 2023.84082031 199.354492188 c 0,35,36
 2168 218 2168 218 2179.9140625 352.93359375 c 0,37,38
 2206.8330989 598.985684899 2206.8330989 598.985684899 2017.16113281 599.099609375 c 0,39,40
 1830.60663788 598.999789524 1830.60663788 598.999789524 1522.98730469 191.940429688 c 1,32,-1
EndSplineSet
Substitution2: "'fina' Terminal Forms in Arabic lookup 9 subtable" uniFEBA
Substitution2: "'medi' Medial Forms in Arabic lookup 11 subtable" uniFEBC
Substitution2: "'init' Initial Forms in Arabic lookup 13 subtable" uniFEBB
EndChar

StartChar: uni0637
Encoding: 1591 1591 33
Width: 1354
VWidth: 2304
GlyphClass: 2
Flags: W
AnchorPoint: "Anchor-10" 356.345 1596.01 basechar 0
AnchorPoint: "Anchor-7" 621.137 -304.96 basechar 0
LayerCount: 2
Fore
SplineSet
435.2421875 192.649414062 m 1,0,-1
 632.802734375 192.649414062 l 2,1,2
 884.941084037 193.37877177 884.941084037 193.37877177 936.095703125 200.063476562 c 0,3,4
 1077.00233729 217.626365239 1077.00233729 217.626365239 1092.16894531 353.642578125 c 0,5,6
 1120.46615941 600.029587713 1120.46615941 600.029587713 929.416015625 599.807617188 c 0,7,8
 743.081540159 599.99991585 743.081540159 599.99991585 435.2421875 192.649414062 c 1,0,-1
471.74609375 486.34375 m 1,9,10
 723 771 723 771 937.536132812 771 c 0,11,12
 1269 771 1269 771 1262.64941406 382.572265625 c 0,13,14
 1259 162 1259 162 1105.17730679 79.3488679145 c 0,15,16
 951 -3 951 -3 602.690429688 -0.087890625 c 0,17,18
 594 0 594 0 585.528320312 0 c 2,19,-1
 91.095703125 0 l 1,20,-1
 91.095703125 180.900390625 l 1,21,-1
 242.499023438 181.026367188 l 1,22,23
 271 229 271 229 303.521484375 274.760742188 c 1,24,-1
 303.521484375 1470.9765625 l 1,25,-1
 471.74609375 1470.9765625 l 1,26,-1
 471.74609375 486.34375 l 1,9,10
EndSplineSet
Substitution2: "'fina' Terminal Forms in Arabic lookup 9 subtable" uniFEC2
Substitution2: "'medi' Medial Forms in Arabic lookup 11 subtable" uniFEC4
Substitution2: "'init' Initial Forms in Arabic lookup 13 subtable" uniFEC3
EndChar

StartChar: uni0639
Encoding: 1593 1593 35
Width: 1206
VWidth: 2304
GlyphClass: 2
Flags: W
AnchorPoint: "Anchor-10" 457.264 1466.49 basechar 0
AnchorPoint: "Anchor-7" 351.568 -770.402 basechar 0
LayerCount: 2
Fore
SplineSet
91.3203125 -9.318359375 m 0,0,1
 92 299 92 299 422 496 c 1,2,3
 358 520 358 520 308 564 c 0,4,5
 201 656 201 656 199.928710938 795.55859375 c 0,6,7
 198 997 198 997 350 1095 c 0,8,9
 446 1157 446 1157 586.61328125 1154.13085938 c 0,10,11
 707 1151 707 1151 858.970703125 1074.24609375 c 1,12,-1
 818.180664062 935.711914062 l 1,13,14
 666 1008 666 1008 576.943359375 1003.08300781 c 0,15,16
 360 992 360 992 359.859375 799.030273438 c 0,17,18
 360 668 360 668 546.045898438 576.717773438 c 1,19,20
 752 653 752 653 984.260742188 658.271484375 c 1,21,-1
 989.231445312 511.084960938 l 1,22,23
 942 511 942 511 828.760742188 494.41796875 c 0,24,25
 716 478 716 478 595.436523438 426.522460938 c 128,-1,26
 475 375 475 375 390.797851562 293.517578125 c 0,27,28
 250 159 250 159 250.16796875 -13.0966796875 c 0,29,30
 250 -247 250 -247 467.987304688 -335.071289062 c 0,31,32
 574 -378 574 -378 764.358398438 -377.599609375 c 0,33,34
 955 -378 955 -378 1071.58691406 -336.958984375 c 1,35,-1
 1114.21386719 -485.361328125 l 1,36,37
 993 -536 993 -536 729.497070312 -536.225585938 c 0,38,39
 408 -536 408 -536 249.5 -395 c 128,-1,40
 91 -254 91 -254 91.3203125 -9.318359375 c 0,0,1
EndSplineSet
Substitution2: "'fina' Terminal Forms in Arabic lookup 9 subtable" uniFECA
Substitution2: "'medi' Medial Forms in Arabic lookup 11 subtable" uniFECC
Substitution2: "'init' Initial Forms in Arabic lookup 13 subtable" uniFECB
EndChar

StartChar: afii57440
Encoding: 1600 1600 37
Width: 650
VWidth: 2304
GlyphClass: 2
Flags: W
AnchorPoint: "Anchor-10" 329.976 1347.15 basechar 0
AnchorPoint: "Anchor-7" 329.976 -121.744 basechar 0
LayerCount: 2
Fore
SplineSet
-13.87109375 0 m 1,0,-1
 -13.87109375 181.001953125 l 1,1,-1
 673.822265625 181.001953125 l 1,2,-1
 673.822265625 0 l 1,3,-1
 -13.87109375 0 l 1,0,-1
EndSplineSet
EndChar

StartChar: uni0643
Encoding: 1603 1603 40
Width: 1842
VWidth: 2304
GlyphClass: 2
Flags: W
AnchorPoint: "Anchor-10" 623.544 1385.17 basechar 0
AnchorPoint: "Anchor-7" 528.504 -260.08 basechar 0
LayerCount: 2
Fore
SplineSet
1095.55664062 1249.84667969 m 1,0,-1
 1095.55664062 1192.44042969 l 1,1,2
 1076.984375 1191.10351562 1076.984375 1191.10351562 1060.59765625 1189.1796875 c 128,-1,3
 1044.2109375 1187.25488281 1044.2109375 1187.25488281 1029.84082031 1184.71582031 c 128,-1,4
 1015.47070312 1182.17578125 1015.47070312 1182.17578125 1003.15429688 1179.01074219 c 128,-1,5
 990.836914062 1175.84570312 990.836914062 1175.84570312 980.514648438 1172.04199219 c 0,6,7
 930.044921875 1153.11914062 930.044921875 1153.11914062 904.328125 1131.37011719 c 128,-1,8
 878.612304688 1109.62109375 878.612304688 1109.62109375 878.612304688 1084.26074219 c 0,9,10
 878.612304688 1046.5390625 878.612304688 1046.5390625 898.069335938 1021.52246094 c 0,11,12
 901.213867188 1017.32910156 901.213867188 1017.32910156 906.170898438 1013.56054688 c 128,-1,13
 911.127929688 1009.79296875 911.127929688 1009.79296875 917.90234375 1006.45507812 c 128,-1,14
 924.676757812 1003.1171875 924.676757812 1003.1171875 933.12890625 1000.16308594 c 128,-1,15
 941.581054688 997.208984375 941.581054688 997.208984375 951.944335938 994.5859375 c 128,-1,16
 962.307617188 991.962890625 962.307617188 991.962890625 974.200195312 989.684570312 c 128,-1,17
 986.092773438 987.40625 986.092773438 987.40625 999.974609375 985.365234375 c 0,18,19
 1017.59277344 982.7734375 1017.59277344 982.7734375 1032.31542969 978.301757812 c 128,-1,20
 1047.03710938 973.831054688 1047.03710938 973.831054688 1058.69140625 967.595703125 c 128,-1,21
 1070.34472656 961.360351562 1070.34472656 961.360351562 1079.140625 953.327148438 c 0,22,23
 1105.35644531 929.3828125 1105.35644531 929.3828125 1105.35644531 886.522460938 c 0,24,25
 1105.35644531 784.293945312 1105.35644531 784.293945312 1010.5 730.655273438 c 0,26,27
 937.483398438 689.362304688 937.483398438 689.362304688 837.583984375 688.4375 c 0,28,29
 773.524414062 688.4375 773.524414062 688.4375 717.459960938 697.912109375 c 1,30,-1
 717.459960938 762.181640625 l 1,31,32
 750.168945312 757.834960938 750.168945312 757.834960938 777.477539062 755.688476562 c 128,-1,33
 804.786132812 753.54296875 804.786132812 753.54296875 827.4140625 753.54296875 c 0,34,35
 906.173828125 753.54296875 906.173828125 753.54296875 956.883789062 773.508789062 c 0,36,37
 1045.13964844 807.40234375 1045.13964844 807.40234375 1045.13964844 863.923828125 c 0,38,39
 1045.13964844 926.760742188 1045.13964844 926.760742188 942.799804688 943.438476562 c 0,40,41
 922.552734375 946.5234375 922.552734375 946.5234375 905.438476562 952.329101562 c 128,-1,42
 888.325195312 958.133789062 888.325195312 958.133789062 874.422851562 966.578125 c 128,-1,43
 860.51953125 975.0234375 860.51953125 975.0234375 849.6328125 986.159179688 c 0,44,45
 833.200195312 1002.96679688 833.200195312 1002.96679688 825.278320312 1026.46875 c 128,-1,46
 817.356445312 1049.97070312 817.356445312 1049.97070312 818.018554688 1080.43457031 c 0,47,48
 820.01953125 1161.36328125 820.01953125 1161.36328125 895.302734375 1199.51269531 c 0,49,50
 937.759765625 1220.99316406 937.759765625 1220.99316406 988.4453125 1233.68554688 c 128,-1,51
 1039.13085938 1246.37792969 1039.13085938 1246.37792969 1095.55664062 1249.84667969 c 1,0,-1
839.813476562 181.884765625 m 0,52,53
 1056.64160156 175.528320312 1056.64160156 175.528320312 1185.34765625 188.893554688 c 0,54,55
 1519.57714844 223.600585938 1519.57714844 223.600585938 1538.47070312 403.801757812 c 2,56,-1
 1544.60644531 462.346679688 l 1,57,-1
 1544.60644531 1471.4140625 l 1,58,-1
 1717.04492188 1471.4140625 l 1,59,-1
 1717.04492188 430.875976562 l 2,60,61
 1717.04492188 412.186523438 1717.04492188 412.186523438 1714.24609375 371.329101562 c 0,62,63
 1709.07519531 295.87109375 1709.07519531 295.87109375 1671.75683594 235.002929688 c 128,-1,64
 1634.43847656 174.135742188 1634.43847656 174.135742188 1564.46289062 127.559570312 c 128,-1,65
 1494.48632812 80.982421875 1494.48632812 80.982421875 1391.79589844 48.9267578125 c 0,66,67
 1234.97558594 -0.0263671875 1234.97558594 -0.0263671875 953.048828125 2.1123046875 c 0,68,69
 593.243164062 5.0830078125 593.243164062 5.0830078125 467.1484375 40.482421875 c 0,70,71
 129.034179688 138.311523438 129.034179688 138.311523438 92.1298828125 479.012695312 c 0,72,73
 79.169921875 601.362304688 79.169921875 601.362304688 128.763671875 740.1171875 c 1,74,-1
 293.36328125 707.739257812 l 1,75,76
 276.323242188 634.594726562 276.323242188 634.594726562 270.227539062 582.952148438 c 128,-1,77
 264.130859375 531.309570312 264.130859375 531.309570312 268.997070312 500.171875 c 0,78,79
 304.55078125 264.297851562 304.55078125 264.297851562 544.462890625 206.479492188 c 0,80,81
 619.749023438 188.3359375 619.749023438 188.3359375 839.813476562 181.884765625 c 0,52,53
EndSplineSet
Substitution2: "'fina' Terminal Forms in Arabic lookup 9 subtable" uniFEDA
Substitution2: "'medi' Medial Forms in Arabic lookup 11 subtable" uniFEDC
Substitution2: "'init' Initial Forms in Arabic lookup 13 subtable" uniFEDB
EndChar

StartChar: uni0644
Encoding: 1604 1604 41
Width: 1314
VWidth: 2304
GlyphClass: 2
Flags: W
AnchorPoint: "Anchor-10" 454.595 1130.67 basechar 0
AnchorPoint: "Anchor-7" 420.95 -544.267 basechar 0
LayerCount: 2
Fore
SplineSet
1018.75878906 168.711914062 m 0,0,1
 1019 174 1019 174 1018.69140625 193.395996094 c 0,2,3
 1019 213 1019 213 1021.33691406 472.573242188 c 1,4,-1
 1021.33691406 1470.37597656 l 1,5,-1
 1188.50585938 1470.37597656 l 1,6,-1
 1188.50585938 472.59375 l 2,7,8
 1189 205 1189 205 1186.046875 202.193359375 c 1,9,10
 1181 -61 1181 -61 1045.92297975 -211.122979521 c 0,11,12
 910 -362 910 -362 636.911132812 -361.729492188 c 0,13,14
 395 -362 395 -362 243.217773438 -229.474121094 c 0,15,16
 91 -97 91 -97 91.3095703125 163.583007812 c 0,17,18
 91 298 91 298 137.984375 419.087890625 c 1,19,-1
 294.72265625 386.803710938 l 5,20,21
 257 258 257 258 256.6640625 171.552734375 c 4,22,23
 257 -8 257 -8 360.61328125 -105.849609375 c 4,24,25
 452 -192 452 -192 650.466796875 -191.743164062 c 0,26,27
 1002 -192 1002 -192 1018.75878906 168.711914062 c 0,0,1
EndSplineSet
Substitution2: "'fina' Terminal Forms in Arabic lookup 9 subtable" uniFEDE
Substitution2: "'medi' Medial Forms in Arabic lookup 11 subtable" uniFEE0
Substitution2: "'init' Initial Forms in Arabic lookup 13 subtable" uniFEDF
EndChar

StartChar: uni0645
Encoding: 1605 1605 42
Width: 1058
VWidth: 2304
GlyphClass: 2
Flags: W
AnchorPoint: "Anchor-10" 568.344 1051.9 basechar 0
AnchorPoint: "Anchor-7" 170.13 -657.613 basechar 0
LayerCount: 2
Fore
SplineSet
453.751953125 322.416015625 m 1,0,1
 665.518718327 264.667822234 665.518718327 264.667822234 726.072265625 266.560546875 c 0,2,3
 817.72265625 268.76953125 817.72265625 268.76953125 815.904296875 341.625 c 0,4,5
 814.4296875 388.690429688 814.4296875 388.690429688 782.416015625 460.1875 c 0,6,7
 710.57421875 617.810546875 710.57421875 617.810546875 600.237304688 615.647460938 c 0,8,9
 541.343647481 614.556692856 541.343647481 614.556692856 497.54724357 560.486683604 c 128,-1,10
 453.750839658 506.416674351 453.750839658 506.416674351 453.799804688 396.5078125 c 0,11,12
 453.751953125 361.37890625 453.751953125 361.37890625 453.751953125 325.471679688 c 2,13,-1
 453.751953125 322.416015625 l 1,0,1
91.095703125 -123.328125 m 2,14,15
 91.095703125 271.409840911 91.095703125 271.409840911 293.54296875 305.161132812 c 1,16,17
 293.848930138 319.185741302 293.848930138 319.185741302 293.442382812 329.823242188 c 0,18,19
 293.844726562 600.318359375 293.844726562 600.318359375 423.228515625 712.83984375 c 0,20,21
 496.209960938 776.60546875 496.209960938 776.60546875 594.92578125 776.391601562 c 0,22,23
 834.963867188 776.60546875 834.963867188 776.60546875 952.181640625 397.833984375 c 0,24,25
 965.931640625 353.317382812 965.931640625 353.317382812 966.970703125 321.090820312 c 0,26,27
 974.219726562 165.775390625 974.219726562 165.775390625 819.84375 119.15234375 c 0,28,29
 755.231445312 99.3515625 755.231445312 99.3515625 664.531588178 112.75138686 c 128,-1,30
 573.831731043 126.151211219 573.831731043 126.151211219 458.750826459 151.006757954 c 128,-1,31
 343.669921875 175.862304688 343.669921875 175.862304688 289.450195312 70.677734375 c 0,32,33
 258.391601562 9.630859375 258.391601562 9.630859375 258.391601562 -138.112304688 c 2,34,-1
 258.391601562 -515.328125 l 1,35,-1
 91.095703125 -515.328125 l 1,36,-1
 91.095703125 -123.328125 l 2,14,15
EndSplineSet
Substitution2: "'init' Initial Forms in Arabic lookup 13 subtable" uniFEE3
Substitution2: "'medi' Medial Forms in Arabic lookup 11 subtable" uniFEE4
Substitution2: "'fina' Terminal Forms in Arabic lookup 9 subtable" uniFEE2
EndChar

StartChar: uni0647
Encoding: 1607 1607 44
Width: 937
VWidth: 2304
GlyphClass: 2
Flags: W
AnchorPoint: "Anchor-10" 432.328 1215.24 basechar 0
AnchorPoint: "Anchor-7" 325.608 -258.031 basechar 0
LayerCount: 2
Fore
SplineSet
481.766601562 160.473632812 m 1,0,1
 668.735351562 160.970703125 668.735351562 160.970703125 668.416015625 326.233398438 c 0,2,3
 668.731445312 473.126953125 668.731445312 473.126953125 466.576171875 633.788085938 c 2,4,-1
 463.966796875 635.862304688 l 1,5,-1
 461.456054688 633.668945312 l 2,6,7
 267.896484375 464.569335938 267.896484375 464.569335938 267.896484375 337.087890625 c 0,8,9
 267.896484375 166.348632812 267.896484375 166.348632812 481.766601562 160.473632812 c 1,0,1
91.310546875 315.73046875 m 0,10,11
 91.09765625 449.692382812 91.09765625 449.692382812 246.421875 636.501953125 c 1,12,-1
 351.521484375 755.685546875 l 1,13,-1
 297.662109375 801.095703125 l 1,14,-1
 401.34375 918.870117188 l 1,15,16
 655.166015625 737.173828125 655.166015625 737.173828125 785.828125 498.844726562 c 0,17,18
 845.5234375 389.927734375 845.5234375 389.927734375 845.124023438 298.928710938 c 0,19,20
 845.522460938 147.14453125 845.522460938 147.14453125 694.319335938 55.37890625 c 0,21,22
 610.806640625 4.2275390625 610.806640625 4.2275390625 488.421875 4.6396484375 c 0,23,24
 354.14453125 4.2265625 354.14453125 4.2265625 271.5390625 45.466796875 c 0,25,26
 91.0986328125 133.6640625 91.0986328125 133.6640625 91.310546875 315.73046875 c 0,10,11
EndSplineSet
Substitution2: "'fina' Terminal Forms in Arabic lookup 9 subtable" uniFEEA
Substitution2: "'medi' Medial Forms in Arabic lookup 11 subtable" uniFEEC
Substitution2: "'init' Initial Forms in Arabic lookup 13 subtable" uniFEEB
EndChar

StartChar: uni0648
Encoding: 1608 1608 45
Width: 828
VWidth: 2304
GlyphClass: 2
Flags: W
AnchorPoint: "Anchor-10" 350.282 1091.25 basechar 0
AnchorPoint: "Anchor-7" 313.01 -648.819 basechar 0
LayerCount: 2
Fore
SplineSet
570.01171875 180.895507812 m 2,0,1
 569.525211055 527.028218186 569.525211055 527.028218186 416.323242188 526.463867188 c 0,2,3
 356.751953125 526.731445312 356.751953125 526.731445312 307.726074219 458.848632812 c 128,-1,4
 258.700195312 390.965820312 258.700195312 390.965820312 258.51171875 307.309570312 c 0,5,6
 258.703125 166.03515625 258.703125 166.03515625 432.64453125 165.31640625 c 0,7,8
 495.346085668 164.959919898 495.346085668 164.959919898 570.016601562 177.506835938 c 1,9,-1
 570.01171875 180.895507812 l 2,0,1
723.454101562 7.74609375 m 0,10,11
 684.223632812 -201.509765625 684.223632812 -201.509765625 542.573242187 -328.001953125 c 128,-1,12
 400.922851562 -454.494140625 400.922851562 -454.494140625 99.91015625 -480.27734375 c 1,13,-1
 70.8291015625 -316.796875 l 1,14,15
 469.692007308 -279.564423201 469.692007308 -279.564423201 557.299804688 12.4296875 c 1,16,17
 459.541403096 -1.05369615477 459.541403096 -1.05369615477 399.588867188 -0.705078125 c 0,18,19
 232.690429688 1.03515625 232.690429688 1.03515625 153.586914062 108.172851562 c 0,20,21
 40.2008780591 262.185039145 40.2008780591 262.185039145 145.160497624 490.360097698 c 128,-1,22
 250.120117188 718.53515625 250.120117188 718.53515625 415.666992188 718.947265625 c 0,23,24
 568.28623178 718.536209574 568.28623178 718.536209574 673.841796875 521.08984375 c 0,25,26
 734.602539062 407.87109375 734.602539062 407.87109375 736.1796875 248.039550781 c 128,-1,27
 737.756835938 88.2080078125 737.756835938 88.2080078125 723.454101562 7.74609375 c 0,10,11
EndSplineSet
Substitution2: "'fina' Terminal Forms in Arabic lookup 9 subtable" uniFEEE
EndChar

StartChar: uni0649
Encoding: 1609 1609 46
Width: 1384
VWidth: 2304
GlyphClass: 2
Flags: W
AnchorPoint: "Anchor-10" 450.198 997.785 basechar 0
AnchorPoint: "Anchor-7" 428.763 -655.706 basechar 0
LayerCount: 2
Fore
SplineSet
1145.16796875 -81.125 m 0,0,1
 1153 -53 1153 -53 1152.30273438 -31.2626953125 c 0,2,3
 1151 -10 1151 -10 1140.51269531 3.5888671875 c 128,-1,4
 1130 17 1130 17 1109.109375 22.1298828125 c 0,5,6
 1100 24 1100 24 1086.61035156 24.4111328125 c 0,7,8
 1033 25 1033 25 993.458007812 28.5810546875 c 0,9,10
 854 41 854 41 793.506835938 116.78125 c 0,11,12
 730 196 730 196 765.783203125 356.8046875 c 0,13,14
 803 525 803 525 936.321289062 618.9453125 c 0,15,16
 1075 717 1075 717 1278.19238281 690.299804688 c 1,17,-1
 1265.07421875 530.112304688 l 1,18,-1
 1240.5234375 530.112304688 l 2,19,20
 1147 530 1147 530 1071.45410156 498.568359375 c 0,21,22
 1002 470 1002 470 964.80859375 414.296875 c 0,23,24
 925 355 925 355 924.752929688 299.07421875 c 0,25,26
 925 233 925 233 966.3359375 212.072265625 c 0,27,28
 1000 195 1000 195 1122.07128906 188.422851562 c 0,29,30
 1323 176 1323 176 1321.78417969 13.9765625 c 0,31,32
 1321 -156 1321 -156 1176.30371094 -288.27734375 c 0,33,34
 997 -452 997 -452 681.870117188 -446.745117188 c 0,35,36
 261 -440 261 -440 143.920898438 -166.7265625 c 0,37,38
 96 -54 96 -54 95.8671875 87.1708984375 c 4,39,40
 96 303 96 303 221.26953125 536.951171875 c 1,41,-1
 375.9453125 475.525390625 l 1,42,43
 271 292 271 292 270.021484375 88.162109375 c 0,44,45
 267 -263 267 -263 675.346679688 -273.196289062 c 0,46,47
 864 -278 864 -278 978.135742188 -229.446289062 c 0,48,49
 1120 -170 1120 -170 1145.16796875 -81.125 c 0,0,1
EndSplineSet
Substitution2: "'fina' Terminal Forms in Arabic lookup 9 subtable" uniFEF0
Substitution2: "'medi' Medial Forms in Arabic lookup 11 subtable" uniFBE9
Substitution2: "'init' Initial Forms in Arabic lookup 13 subtable" uniFBE8
EndChar

StartChar: uni064B
Encoding: 1611 1611 48
Width: -27
VWidth: 2304
GlyphClass: 4
Flags: W
AnchorPoint: "Anchor-10" 609.519 1111.82 mark 0
AnchorPoint: "Anchor-9" 609.519 1111.82 mark 0
AnchorPoint: "Anchor-1" 569.519 1660.78 basemark 0
AnchorPoint: "Anchor-1" 609.519 1111.82 mark 0
LayerCount: 2
Fore
SplineSet
302.015625 1058.01181702 m 1,0,-1
 302.015625 1172.7510716 l 1,1,-1
 805.6796875 1378.70301363 l 1,2,-1
 805.6796875 1263.96280149 l 1,3,-1
 302.015625 1058.01181702 l 1,0,-1
302.015625 1331.51572327 m 1,4,-1
 302.015625 1446.25497785 l 1,5,-1
 805.6796875 1652.20691988 l 1,6,-1
 805.6796875 1537.46670774 l 1,7,-1
 302.015625 1331.51572327 l 1,4,-1
EndSplineSet
EndChar

StartChar: uni064C
Encoding: 1612 1612 49
Width: -27
VWidth: 2304
GlyphClass: 4
Flags: W
AnchorPoint: "Anchor-10" 676.432 1216.14 mark 0
AnchorPoint: "Anchor-9" 676.432 1216.14 mark 0
AnchorPoint: "Anchor-1" 567.983 1908.35 basemark 0
AnchorPoint: "Anchor-1" 676.432 1216.14 mark 0
LayerCount: 2
Fore
SplineSet
652.655273437 1732.86425781 m 0,0,1
 569.463867188 1732.86425781 569.463867188 1732.86425781 569.463867188 1658.640625 c 0,2,3
 569.463867188 1604.83203125 569.463867188 1604.83203125 631.455078125 1580.03515625 c 0,4,5
 654.595973423 1570.77996279 654.595973423 1570.77996279 700.032226562 1556.78613281 c 1,6,-1
 713.090820312 1587.25292969 l 2,7,8
 724.69140625 1614.32226562 724.69140625 1614.32226562 724.69140625 1653.09667969 c 128,-1,9
 724.69140625 1691.87109375 724.69140625 1691.87109375 699.799316406 1712.36767578 c 128,-1,10
 674.907226562 1732.86425781 674.907226562 1732.86425781 652.655273437 1732.86425781 c 0,0,1
337.235351562 1386.73925781 m 0,11,12
 381.55859375 1291.76660156 381.55859375 1291.76660156 449.545331419 1291.76660156 c 128,-1,13
 517.532069088 1291.76660156 517.532069088 1291.76660156 592.768554688 1364.57714844 c 0,14,15
 636.735351562 1407.35742188 636.735351562 1407.35742188 661.806640625 1457.5 c 2,16,-1
 672.059570312 1478.00976562 l 1,17,-1
 649.625 1482.76953125 l 2,18,19
 556.970389814 1502.40949695 556.970389814 1502.40949695 506.392578125 1572.21484375 c 0,20,21
 478.369140625 1610.89160156 478.369140625 1610.89160156 478.369140625 1641.17773438 c 128,-1,22
 478.369140625 1671.46386719 478.369140625 1671.46386719 479.809570312 1683.51953125 c 0,23,24
 485.569340947 1731.7297877 485.569340947 1731.7297877 521.375017128 1776.71450323 c 128,-1,25
 557.180693309 1821.69921875 557.180693309 1821.69921875 636.941420873 1821.69921875 c 128,-1,26
 716.702148438 1821.69921875 716.702148438 1821.69921875 765.114746094 1774.30517578 c 128,-1,27
 813.52734375 1726.91113281 813.52734375 1726.91113281 813.52734375 1645.08105469 c 0,28,29
 813.52734375 1603.7421875 813.52734375 1603.7421875 800.791015625 1563.41113281 c 2,30,-1
 793.893554688 1541.57617188 l 1,31,-1
 816.765625 1540.37597656 l 2,32,33
 840.023132417 1539.14706873 840.023132417 1539.14706873 880.192382812 1538.27148438 c 1,34,-1
 880.192382812 1449.32617188 l 1,35,36
 841.655273438 1449.65332031 841.655273438 1449.65332031 823.913085938 1451.43261719 c 2,37,-1
 752.243164062 1458.32324219 l 1,38,39
 718.992176962 1380.39323405 718.992176962 1380.39323405 655.074213481 1314.56331625 c 128,-1,40
 591.15625 1248.73339844 591.15625 1248.73339844 543.787109375 1225.83300781 c 128,-1,41
 496.41796875 1202.93164062 496.41796875 1202.93164062 447.08203125 1202.93164062 c 0,42,43
 330.686523438 1202.93164062 330.686523438 1202.93164062 271.645507812 1365.30664062 c 0,44,45
 257.052734375 1405.18261719 257.052734375 1405.18261719 255.86328125 1515.49121094 c 1,46,-1
 322.107421875 1515.49121094 l 1,47,48
 323.283203125 1416.96777344 323.283203125 1416.96777344 337.235351562 1386.73925781 c 0,11,12
854.4921875 1539.21972656 m 2,49,-1
 854.388671875 1539.22558594 l 2,50,51
 854.440429688 1539.22265625 854.440429688 1539.22265625 854.4921875 1539.21972656 c 2,49,-1
EndSplineSet
EndChar

StartChar: uni064D
Encoding: 1613 1613 50
Width: -27
VWidth: 2304
GlyphClass: 4
Flags: W
AnchorPoint: "Anchor-7" 552.623 75.7275 mark 0
AnchorPoint: "Anchor-6" 552.623 75.7275 mark 0
AnchorPoint: "Anchor-0" 635.519 -468.112 basemark 0
AnchorPoint: "Anchor-0" 552.623 75.7275 mark 0
LayerCount: 2
Fore
SplineSet
307.295898438 -515.428599567 m 1,0,-1
 307.295898438 -400.688387431 l 1,1,-1
 810.959960938 -194.737402955 l 1,2,-1
 810.959960938 -309.47665754 l 1,3,-1
 307.295898438 -515.428599567 l 1,0,-1
307.295898438 -241.924693317 m 1,4,-1
 307.295898438 -127.184481181 l 1,5,-1
 810.959960938 78.7665032954 l 1,6,-1
 810.959960938 -35.9727512898 l 1,7,-1
 307.295898438 -241.924693317 l 1,4,-1
EndSplineSet
EndChar

StartChar: uni064E
Encoding: 1614 1614 51
Width: -27
VWidth: 2304
GlyphClass: 4
Flags: W
AnchorPoint: "Anchor-10" 577.839 1361.15 mark 0
AnchorPoint: "Anchor-9" 577.839 1361.15 mark 0
AnchorPoint: "Anchor-1" 537.839 1686.13 basemark 0
AnchorPoint: "Anchor-1" 577.839 1361.15 mark 0
LayerCount: 2
Fore
SplineSet
271.391601562 1330.45909574 m 1,0,-1
 271.391601562 1445.19931378 l 1,1,-1
 775.055664062 1651.15125582 l 1,2,-1
 775.055664062 1536.41103778 l 1,3,-1
 271.391601562 1330.45909574 l 1,0,-1
EndSplineSet
EndChar

StartChar: uni064F
Encoding: 1615 1615 52
Width: -27
VWidth: 2304
GlyphClass: 4
Flags: W
AnchorPoint: "Anchor-10" 615.623 1281.01 mark 0
AnchorPoint: "Anchor-9" 615.623 1281.01 mark 0
AnchorPoint: "Anchor-1" 546.519 1923.2 basemark 0
AnchorPoint: "Anchor-1" 615.623 1281.01 mark 0
LayerCount: 2
Fore
SplineSet
822.727539062 1464.22460938 m 1,0,1
 766 1465 766 1465 690.735351562 1473.01953125 c 1,2,3
 638 1399 638 1399 563.377929688 1352.99902344 c 0,4,5
 445 1279 445 1279 311 1274 c 1,6,-1
 311 1362.74121094 l 1,7,8
 442 1367 442 1367 520.314453125 1432.41015625 c 0,9,10
 555 1461 555 1461 569.69921875 1477.09472656 c 2,11,-1
 591.280273438 1499.82519531 l 1,12,-1
 560.689453125 1506.61621094 l 2,13,14
 554 1508 554 1508 514.827148438 1528.14355469 c 0,15,16
 477 1548 477 1548 448.861328125 1586.5703125 c 0,17,18
 421 1625 421 1625 420.904296875 1671.78222656 c 0,19,20
 421 1763 421 1763 491.776367188 1816.36425781 c 0,21,22
 519 1837 519 1837 588.962890625 1836.546875 c 0,23,24
 659 1837 659 1837 707.650390625 1789.15234375 c 0,25,26
 756 1742 756 1742 756.0625 1659.92871094 c 0,27,28
 756 1626.25097656 756 1626.25097656 741.043945312 1578.18945312 c 2,29,-1
 734.313476562 1556.56152344 l 1,30,-1
 756.931640625 1555.22460938 l 2,31,32
 795 1553 795 1553 822.727539062 1553.02832031 c 1,33,-1
 822.727539062 1464.22460938 l 1,0,1
642.567382812 1571.63476562 m 1,34,-1
 655.625976562 1602.09960938 l 2,35,36
 667.227539062 1629.17382812 667.227539062 1629.17382812 667.227539062 1667.94628906 c 128,-1,37
 667.227539062 1706.71875 667.227539062 1706.71875 642.33203125 1727.21582031 c 128,-1,38
 617.435546875 1747.71191406 617.435546875 1747.71191406 587.264648438 1747.71191406 c 128,-1,39
 557.09375 1747.71191406 557.09375 1747.71191406 534.546875 1730.53710938 c 128,-1,40
 512 1713.36230469 512 1713.36230469 512 1666.52148438 c 128,-1,41
 512 1619.6796875 512 1619.6796875 573.990234375 1594.88183594 c 0,42,43
 597.16015625 1585.61523438 597.16015625 1585.61523438 642.567382812 1571.63476562 c 1,34,-1
EndSplineSet
EndChar

StartChar: uni0650
Encoding: 1616 1616 53
Width: -27
VWidth: 2304
GlyphClass: 4
Flags: W
AnchorPoint: "Anchor-7" 567.391 -16.2002 mark 0
AnchorPoint: "Anchor-6" 567.391 -16.2002 mark 0
AnchorPoint: "Anchor-0" 615.023 -326.944 basemark 0
AnchorPoint: "Anchor-0" 567.391 -16.2002 mark 0
LayerCount: 2
Fore
SplineSet
317.856445312 -352.804583874 m 1,0,-1
 317.856445312 -238.064361577 l 1,1,-1
 821.51953125 -32.1133848752 l 1,2,-1
 821.51953125 -146.853607173 l 1,3,-1
 317.856445312 -352.804583874 l 1,0,-1
EndSplineSet
EndChar

StartChar: uni0651
Encoding: 1617 1617 54
Width: -27
VWidth: 2304
GlyphClass: 4
Flags: W
AnchorPoint: "Anchor-10" 609.519 1390.22 mark 0
AnchorPoint: "Anchor-9" 609.519 1390.22 mark 0
AnchorPoint: "Anchor-1" 578.847 1840.34 basemark 0
AnchorPoint: "Anchor-1" 609.519 1390.22 mark 0
LayerCount: 2
Fore
SplineSet
577.407226562 1531.921875 m 1,0,1
 547 1367 547 1367 402.48400556 1366.87597656 c 0,2,3
 258 1367 258 1367 257.186523438 1552.89257812 c 0,4,5
 257 1590 257 1590 272.712890625 1693.63867188 c 1,6,-1
 347.826171875 1693.63867188 l 1,7,8
 335 1604 335 1604 335 1576 c 0,9,10
 335 1463 335 1463 414.949708912 1463.0777407 c 0,11,12
 525 1463 525 1463 530.60546875 1607.45214844 c 0,13,14
 532 1647 532 1647 531.875 1694.11621094 c 0,15,16
 532 1741 532 1741 531.86328125 1749.95605469 c 1,17,-1
 606.123046875 1749.95605469 l 1,18,19
 608 1714 608 1714 608.287109375 1665.99121094 c 0,20,21
 608.000414097 1525.20335128 608.000414097 1525.20335128 730.454841185 1525.40617962 c 2,22,-1
 731.086914062 1525.40722656 l 2,23,24
 805 1526 805 1526 805.22265625 1644.49707031 c 0,25,26
 806 1750 806 1750 794.323242188 1812.33496094 c 1,27,-1
 873.943359375 1812.33496094 l 1,28,29
 885 1733 885 1733 885 1639 c 0,30,31
 885 1486 885 1486 800.654296875 1449.91699219 c 0,32,33
 768 1436 768 1436 736 1435 c 0,34,35
 665 1432 665 1432 628 1459 c 0,36,37
 583 1492 583 1492 577.407226562 1531.921875 c 1,0,1
EndSplineSet
EndChar

StartChar: uni0652
Encoding: 1618 1618 55
Width: -27
VWidth: 2304
GlyphClass: 4
Flags: W
AnchorPoint: "Anchor-10" 588.527 1187.7 mark 0
AnchorPoint: "Anchor-9" 588.527 1187.7 mark 0
AnchorPoint: "Anchor-1" 573.743 1793.31 basemark 0
AnchorPoint: "Anchor-1" 588.527 1187.7 mark 0
LayerCount: 2
Fore
SplineSet
707.344726562 1457.10253906 m 0,0,1
 707.344726562 1505.78320312 707.344726562 1505.78320312 673.299804688 1539.828125 c 128,-1,2
 639.258789062 1573.87304688 639.258789062 1573.87304688 589.884765625 1573.87304688 c 0,3,4
 539.819335938 1573.87304688 539.819335938 1573.87304688 506.124023438 1540.17675781 c 128,-1,5
 472.427734375 1506.48046875 472.427734375 1506.48046875 472.427734375 1457.10253906 c 0,6,7
 472.427734375 1407.03808594 472.427734375 1407.03808594 506.124023438 1373.34277344 c 128,-1,8
 539.819335938 1339.64648438 539.819335938 1339.64648438 589.884765625 1339.64648438 c 0,9,10
 639.260742188 1339.64648438 639.260742188 1339.64648438 673.299804688 1373.69140625 c 128,-1,11
 707.344726562 1407.73535156 707.344726562 1407.73535156 707.344726562 1457.10253906 c 0,0,1
779.41796875 1457.21875 m 128,-1,13
 779.41796875 1377.71484375 779.41796875 1377.71484375 724.528320312 1322.47265625 c 128,-1,14
 669.673828125 1267.2734375 669.673828125 1267.2734375 590.212890625 1267.2734375 c 0,15,16
 563.655273438 1267.2734375 563.655273438 1267.2734375 539.920898438 1273.39550781 c 128,-1,17
 516.186523438 1279.51757812 516.186523438 1279.51757812 495.203125 1291.77636719 c 128,-1,18
 474.220703125 1304.03515625 474.220703125 1304.03515625 455.8984375 1322.47265625 c 0,19,20
 428.400390625 1350.14648438 428.400390625 1350.14648438 414.704101562 1383.76074219 c 128,-1,21
 401.006835938 1417.375 401.006835938 1417.375 401.006835938 1457.21875 c 0,22,23
 401.006835938 1536.6953125 401.006835938 1536.6953125 455.8671875 1591.56542969 c 128,-1,24
 510.7265625 1646.42480469 510.7265625 1646.42480469 590.212890625 1646.42480469 c 128,-1,25
 669.698242188 1646.42480469 669.698242188 1646.42480469 724.556640625 1591.56542969 c 128,-1,12
 779.41796875 1536.6953125 779.41796875 1536.6953125 779.41796875 1457.21875 c 128,-1,13
EndSplineSet
EndChar

StartChar: uni0653
Encoding: 1619 1619 56
Width: -27
VWidth: 2304
GlyphClass: 4
Flags: W
AnchorPoint: "Anchor-10" 396.335 1331.33 mark 0
AnchorPoint: "Anchor-9" 396.335 1331.33 mark 0
AnchorPoint: "Anchor-1" 396.335 1686.13 basemark 0
AnchorPoint: "Anchor-1" 396.335 1331.33 mark 0
LayerCount: 2
Fore
SplineSet
326.029992522 1410.10087922 m 2,0,1
 228.495443658 1423.57151922 228.495443658 1423.57151922 137.327308017 1308.44048659 c 1,2,-1
 63.8741540732 1391.43610033 l 1,3,4
 160.682060964 1537.04039112 160.682060964 1537.04039112 313.749262959 1517.59466526 c 2,5,-1
 476 1497 l 6,6,7
 590 1483 590 1483 666.477935129 1556.17310227 c 5,8,-1
 716.082342131 1468.39995101 l 1,9,10
 629.733537129 1368.15593601 629.733537129 1368.15593601 481.22265625 1388.66699219 c 2,11,-1
 326.029992522 1410.10087922 l 2,0,1
EndSplineSet
EndChar

StartChar: uni0657
Encoding: 1623 1623 59
Width: -27
VWidth: 2304
GlyphClass: 4
Flags: W
AnchorPoint: "Anchor-10" 569.519 1347.15 mark 0
AnchorPoint: "Anchor-9" 569.519 1347.15 mark 0
AnchorPoint: "Anchor-1" 569.519 2081.6 basemark 0
AnchorPoint: "Anchor-1" 569.519 1347.15 mark 0
LayerCount: 2
Fore
SplineSet
659.133789062 1603.78173828 m 0,0,1
 659 1430 659 1430 491.074544274 1431.54492188 c 0,2,3
 421 1432 421 1432 372.388183594 1478.93945313 c 0,4,5
 324 1526 324 1526 323.975585938 1608.16308594 c 0,6,7
 323.99979061 1641.70979344 323.99979061 1641.70979344 338.994140625 1689.90234375 c 2,8,-1
 345.723632812 1711.53125 l 1,9,-1
 323.10546875 1712.8671875 l 2,10,11
 287 1715 287 1715 257.310546875 1715.06347656 c 1,12,-1
 257.310546875 1803.8671875 l 1,13,14
 314 1803 314 1803 389.303710938 1795.07324219 c 1,15,16
 442 1870 442 1870 516.661132812 1915.09375 c 0,17,18
 698 2026 698 2026 785 2030.74121094 c 5,19,-1
 785 1942 l 5,20,21
 692 1939 692 1939 559.72265625 1835.68164062 c 0,22,23
 533 1815 533 1815 510.338867188 1790.99804688 c 2,24,-1
 488.760742188 1768.28125 l 1,25,-1
 519.344726562 1761.47558594 l 2,26,27
 528 1760 528 1760 565.211425781 1739.94873047 c 0,28,29
 603 1720 603 1720 631.176757812 1681.52148438 c 0,30,31
 659 1643 659 1643 659.133789062 1603.78173828 c 0,0,1
480.167480469 1520.38085938 m 0,32,33
 568.038085938 1520.38085938 568.038085938 1520.38085938 568.038085938 1594.60449219 c 0,34,35
 568.038085938 1648.41148902 568.038085938 1648.41148902 506.048828125 1673.20996094 c 0,36,37
 482.976628637 1682.4430983 482.976628637 1682.4430983 437.471679688 1696.45898438 c 1,38,-1
 424.413085938 1665.99316406 l 2,39,40
 412.810546875 1638.92285156 412.810546875 1638.92285156 412.810546875 1600.15429688 c 128,-1,41
 412.810546875 1561.38574219 412.810546875 1561.38574219 437.703125 1540.88330078 c 128,-1,42
 462.595703125 1520.38085938 462.595703125 1520.38085938 480.167480469 1520.38085938 c 0,32,33
EndSplineSet
EndChar

StartChar: uni065A
Encoding: 1626 1626 60
Width: 1129
VWidth: 2304
GlyphClass: 4
Flags: W
AnchorPoint: "Anchor-10" 569.519 1347.15 mark 0
AnchorPoint: "Anchor-9" 569.519 1347.15 mark 0
AnchorPoint: "Anchor-1" 567.259 1855.62 basemark 0
AnchorPoint: "Anchor-1" 569.519 1347.15 mark 0
LayerCount: 2
Fore
SplineSet
495.958007812 1434.93457031 m 1,0,-1
 296.83203125 1767.83300781 l 1,1,-1
 413.142578125 1767.83300781 l 1,2,-1
 569.518554688 1533.26269531 l 1,3,-1
 725.89453125 1767.83300781 l 1,4,-1
 842.206054688 1767.83300781 l 1,5,-1
 643.077148438 1434.93457031 l 1,6,-1
 495.958007812 1434.93457031 l 1,0,-1
EndSplineSet
EndChar

StartChar: afii57392
Encoding: 1632 1632 61
Width: 1215
VWidth: 2304
GlyphClass: 2
Flags: W
LayerCount: 2
Fore
SplineSet
498.73828125 555.268554688 m 128,-1,1
 498.73828125 511.766601562 498.73828125 511.766601562 529.918945312 480.586914062 c 128,-1,2
 561.09765625 449.407226562 561.09765625 449.407226562 604.600585938 449.407226562 c 128,-1,3
 648.1015625 449.407226562 648.1015625 449.407226562 679.280273438 480.586914062 c 128,-1,4
 710.461914062 511.767578125 710.461914062 511.767578125 710.461914062 555.268554688 c 128,-1,5
 710.461914062 598.768554688 710.461914062 598.768554688 679.280273438 629.94921875 c 128,-1,6
 648.100585938 661.129882812 648.100585938 661.129882812 604.600585938 661.129882812 c 128,-1,7
 561.098632812 661.129882812 561.098632812 661.129882812 529.918945312 629.94921875 c 128,-1,0
 498.73828125 598.76953125 498.73828125 598.76953125 498.73828125 555.268554688 c 128,-1,1
347.837890625 552.048828125 m 128,-1,9
 347.837890625 660.02734375 347.837890625 660.02734375 424.068359375 736.703125 c 0,10,11
 462.22265625 775.080078125 462.22265625 775.080078125 508.0078125 794.206054688 c 128,-1,12
 553.793945312 813.331054688 553.793945312 813.331054688 607.500976562 813.331054688 c 0,13,14
 714.754882812 813.331054688 714.754882812 813.331054688 790.93359375 736.703125 c 128,-1,15
 867.162109375 660.025390625 867.162109375 660.025390625 867.162109375 552.048828125 c 0,16,17
 867.162109375 538.528320312 867.162109375 538.528320312 865.974609375 525.513671875 c 128,-1,18
 864.787109375 512.5 864.787109375 512.5 862.409179688 499.979492188 c 128,-1,19
 860.03125 487.458984375 860.03125 487.458984375 856.463867188 475.438476562 c 128,-1,20
 852.896484375 463.416992188 852.896484375 463.416992188 848.134765625 451.883789062 c 128,-1,21
 843.374023438 440.350585938 843.374023438 440.350585938 837.420898438 429.30859375 c 128,-1,22
 831.467773438 418.267578125 831.467773438 418.267578125 824.317382812 407.708007812 c 128,-1,23
 817.166992188 397.147460938 817.166992188 397.147460938 808.823242188 387.072265625 c 128,-1,24
 800.478515625 376.998046875 800.478515625 376.998046875 790.93359375 367.397460938 c 0,25,26
 752.778320312 329.020507812 752.778320312 329.020507812 706.993164062 309.895507812 c 128,-1,27
 661.20703125 290.770507812 661.20703125 290.770507812 607.500976562 290.770507812 c 0,28,29
 500.250976562 290.770507812 500.250976562 290.770507812 424.068359375 367.397460938 c 128,-1,8
 347.837890625 444.069335938 347.837890625 444.069335938 347.837890625 552.048828125 c 128,-1,9
EndSplineSet
EndChar

StartChar: afii57393
Encoding: 1633 1633 62
Width: 1215
VWidth: 2304
GlyphClass: 2
Flags: W
LayerCount: 2
Fore
SplineSet
788.4609375 8.9755859375 m 1,0,-1
 620.524414062 8.9755859375 l 1,1,2
 619.840820312 396.87109375 619.840820312 396.87109375 576.65234375 798.0703125 c 0,3,4
 533.900390625 1191.30371094 533.900390625 1191.30371094 426.5390625 1388.38867188 c 1,5,-1
 578.935546875 1441.55371094 l 5,6,7
 635.3984375 1343.86816406 635.3984375 1343.86816406 678.822265625 1162.75585938 c 128,-1,8
 722.24609375 981.64453125 722.24609375 981.64453125 752.618164062 716.814453125 c 0,9,10
 788.265625 406.193359375 788.265625 406.193359375 788.4609375 8.9755859375 c 1,0,-1
EndSplineSet
EndChar

StartChar: afii57394
Encoding: 1634 1634 63
Width: 1215
VWidth: 2304
GlyphClass: 2
Flags: W
LayerCount: 2
Fore
SplineSet
315.646484375 1441.48828125 m 5,0,1
 389.458984375 1209.70800781 l 6,2,3
 451.99609375 1014 451.99609375 1014 694.0703125 1027.65917969 c 4,4,5
 832.99609375 1036 832.99609375 1036 877.784179688 1189.45214844 c 4,6,7
 897.99609375 1259 897.99609375 1259 894.346679688 1442.40332031 c 5,8,-1
 1063.11621094 1441.89941406 l 5,9,10
 1080.99609375 866 1080.99609375 866 706.624023438 860.952148438 c 4,11,12
 547.99609375 859 547.99609375 859 475.465820312 909 c 5,13,14
 521.99609375 766 521.99609375 766 547.465820312 447 c 4,15,16
 570.99609375 144 570.99609375 144 561.208984375 8.9755859375 c 5,17,-1
 393.272460938 8.9755859375 l 5,18,19
 391.99609375 330 391.99609375 330 345.000976562 694.365234375 c 4,20,21
 296.99609375 1059 296.99609375 1059 151.069335938 1388.50585938 c 5,22,-1
 315.646484375 1441.48828125 l 5,0,1
EndSplineSet
EndChar

StartChar: afii57395
Encoding: 1635 1635 64
Width: 1212
VWidth: 2304
GlyphClass: 2
Flags: W
LayerCount: 2
Fore
SplineSet
677.0703125 943.991210938 m 1,0,1
 608 859 608 859 491.270507812 860.436523438 c 0,2,3
 459 861 459 861 413.483398438 865.212890625 c 1,4,5
 436 808 436 808 466.147460938 608.712890625 c 0,6,7
 494 424 494 424 495.032226562 8.9755859375 c 1,8,-1
 327.10546875 8.9755859375 l 1,9,10
 327 307 327 307 286.130859375 659.25390625 c 0,11,12
 245 1019 245 1019 85.33203125 1388.17382812 c 1,13,-1
 245.935546875 1441.44726562 l 1,14,15
 316.07421875 1187 l 2,16,17
 359 1032 359 1032 473.24609375 1031.31933594 c 0,18,19
 583 1031 583 1031 588.125976562 1131.16113281 c 0,20,21
 594 1258 594 1258 594.864257812 1392.41601562 c 1,22,-1
 736.48046875 1392.41601562 l 1,23,24
 737 1120 737 1120 753.821289062 1090.625 c 0,25,26
 786 1035 786 1035 861.954101562 1034.73632812 c 0,27,28
 947 1035 947 1035 963 1138.43261719 c 0,29,30
 979 1241 979 1241 974.5390625 1442.41992188 c 1,31,-1
 1126.66796875 1442.57128906 l 1,32,33
 1125 1100 1125 1100 1066 978 c 0,34,35
 1010 859 1010 859 881.4375 860.555664062 c 0,36,37
 742 862 742 862 677.0703125 943.991210938 c 1,0,1
EndSplineSet
EndChar

StartChar: afii57396
Encoding: 1636 1636 65
Width: 1215
VWidth: 2304
GlyphClass: 2
Flags: W
LayerCount: 2
Fore
SplineSet
215 303 m 0,0,1
 215 578 215 578 539.374023438 793.546875 c 5,2,3
 288 809 288 809 288.370117188 1054.58984375 c 4,4,5
 288 1377 288 1377 769.374023438 1411.61230469 c 5,6,-1
 769.374023438 1239.546875 l 5,7,8
 462 1222 462 1222 462.17578125 1045.60839844 c 4,9,10
 462 907 462 907 699.374023438 908.546875 c 4,11,12
 759 909 759 909 800.978515625 914.96875 c 5,13,-1
 803 735 l 5,14,15
 375 545 375 545 375 339 c 0,16,17
 375 164.006825939 375 164.006825939 666 165 c 2,18,19
 959 166 l 1,20,-1
 961 0 l 1,21,-1
 628.204101562 0.3642578125 l 2,22,23
 215 1 215 1 215 303 c 0,0,1
EndSplineSet
EndChar

StartChar: afii57397
Encoding: 1637 1637 66
Width: 1215
VWidth: 2304
GlyphClass: 2
Flags: W
LayerCount: 2
Fore
SplineSet
588.14318497 987.182129516 m 1,0,1
 461.183906871 883.926329782 461.183906871 883.926329782 384.564822522 744.958249891 c 128,-1,2
 307.945738173 605.990169999 307.945738173 605.990169999 307.902343694 505.220475276 c 0,3,4
 307.942609577 236.320116144 307.942609577 236.320116144 634.579543594 236.81737412 c 0,5,6
 836.590937973 237.194069217 836.590937973 237.194069217 899.471844905 382.834215167 c 0,7,8
 918.299969031 425.818907534 918.299969031 425.818907534 918.024388373 469.096513516 c 0,9,10
 918.303904503 642.308500239 918.303904503 642.308500239 810.237862344 783.623979322 c 128,-1,11
 702.171820184 924.939458406 702.171820184 924.939458406 588.14318497 987.182129516 c 1,0,1
405.320476117 1125.53700468 m 1,12,-1
 499.631276406 1268.43237599 l 1,13,14
 608 1214 608 1214 744.211914062 1095.61914062 c 4,15,16
 977 892 977 892 1048.77798796 682.370716876 c 0,17,18
 1083 582 1083 582 1083.04296194 492.821825518 c 0,19,20
 1083 302 1083 302 992.146322502 207.13899166 c 0,21,22
 867 75 867 75 611.672700371 75.865239257 c 0,23,24
 277 76 277 76 168.818593393 314.828250221 c 0,25,26
 135 390 135 390 135.218761857 483.732568859 c 0,27,28
 136 635 136 635 229.240487435 801.360975031 c 0,29,30
 323 968 323 968 452.877031096 1096.05496018 c 1,31,-1
 405.320476117 1125.53700468 l 1,12,-1
EndSplineSet
EndChar

StartChar: afii57398
Encoding: 1638 1638 67
Width: 1215
VWidth: 2304
GlyphClass: 2
Flags: W
LayerCount: 2
Fore
SplineSet
763.630859375 1218.765625 m 5,0,1
 635 1181 635 1181 460.626953125 1181.31835938 c 4,2,3
 286 1181 286 1181 105.213867188 1233.35644531 c 5,4,-1
 105.213867188 1412.98242188 l 5,5,6
 299 1362 299 1362 502.045898438 1361.91992188 c 132,-1,7
 705 1362 705 1362 929.674804688 1413.73242188 c 5,8,9
 932 840 932 840 1017.16210938 396.325195312 c 4,10,11
 1052 216 1052 216 1104.78613281 8.9755859375 c 5,12,-1
 919.895507812 8.9755859375 l 5,13,14
 827 368 827 368 796.5 707.5 c 132,-1,15
 766 1047 766 1047 763.630859375 1218.765625 c 5,0,1
EndSplineSet
EndChar

StartChar: afii57399
Encoding: 1639 1639 68
Width: 1215
VWidth: 2304
GlyphClass: 2
Flags: W
LayerCount: 2
Fore
SplineSet
521.7578125 8.9755859375 m 1,0,1
 499.739257812 283.55078125 499.739257812 283.55078125 392.278320312 629.28125 c 0,2,3
 222.19140625 1173.80078125 222.19140625 1173.80078125 110.555664062 1388.34375 c 1,4,-1
 264.249023438 1441.484375 l 1,5,6
 434.283203125 1097.25976562 434.283203125 1097.25976562 533.4453125 749.068359375 c 0,7,8
 587.772460938 560.0546875 587.772460938 560.0546875 603.047851562 474.229492188 c 2,9,-1
 606.986328125 452.103515625 l 1,10,-1
 610.924804688 474.229492188 l 2,11,12
 626.19921875 560.0546875 626.19921875 560.0546875 680.529296875 749.077148438 c 0,13,14
 779.689453125 1097.25976562 779.689453125 1097.25976562 949.7265625 1441.49023438 c 1,15,-1
 1104.44433594 1388.34375 l 1,16,17
 959.518554688 1113.72558594 959.518554688 1113.72558594 821.537109375 628.743164062 c 0,18,19
 731.3203125 316.295898438 731.3203125 316.295898438 692.990234375 8.9755859375 c 1,20,-1
 521.7578125 8.9755859375 l 1,0,1
EndSplineSet
EndChar

StartChar: afii57400
Encoding: 1640 1640 69
Width: 1215
VWidth: 2304
GlyphClass: 2
Flags: W
LayerCount: 2
Fore
SplineSet
521.810546875 1442.41601562 m 1,0,-1
 693.04296875 1442.41601562 l 1,1,2
 727.788085938 1164.08105469 727.788085938 1164.08105469 840.020507812 755.033203125 c 128,-1,3
 952.252929688 345.984375 952.252929688 345.984375 1108.53320312 50.3564453125 c 1,4,-1
 949.900390625 9.65625 l 1,5,6
 750.547851562 413.234375 750.547851562 413.234375 636.01171875 865.56640625 c 0,7,8
 618.600585938 934.327148438 618.600585938 934.327148438 610.977539062 977.162109375 c 2,9,-1
 607.0390625 999.288085938 l 1,10,-1
 603.100585938 977.162109375 l 2,11,12
 587.825195312 891.336914062 587.825195312 891.336914062 533.49609375 702.314453125 c 0,13,14
 434.3359375 354.1328125 434.3359375 354.1328125 264.215820312 9.732421875 c 1,15,-1
 106.466796875 54.4853515625 l 1,16,17
 226.413085938 290.092773438 226.413085938 290.092773438 392.331054688 822.111328125 c 0,18,19
 499.791992188 1167.84179688 499.791992188 1167.84179688 521.810546875 1442.41601562 c 1,0,-1
EndSplineSet
EndChar

StartChar: afii57401
Encoding: 1641 1641 70
Width: 1215
VWidth: 2304
GlyphClass: 2
Flags: W
LayerCount: 2
Fore
SplineSet
916.9609375 8.9755859375 m 1,0,1
 817.044921875 463.104492188 817.044921875 463.104492188 793.208984375 683.538085938 c 1,2,-1
 777.294921875 683.538085938 l 2,3,4
 568.850585938 683.538085938 568.850585938 683.538085938 476.495117188 704.18359375 c 0,5,6
 288.256835938 746.263671875 288.256835938 746.263671875 200.96875 842.55859375 c 128,-1,7
 113.6796875 938.854492188 113.6796875 938.854492188 113.6796875 1059.02246094 c 0,8,9
 113.6796875 1219.66113281 113.6796875 1219.66113281 213.80859375 1319.86816406 c 0,10,11
 350.71484375 1457.92871094 350.71484375 1457.92871094 526.624023438 1457.40625 c 128,-1,12
 702.533203125 1456.8828125 702.533203125 1456.8828125 790.890625 1371.68847656 c 0,13,14
 916.673828125 1249.3203125 916.673828125 1249.3203125 931.362304688 1052.06445312 c 0,15,16
 942.682617188 899.19921875 942.682617188 899.19921875 973.244140625 645.21875 c 128,-1,17
 1003.8046875 391.239257812 1003.8046875 391.239257812 1101.3203125 8.9755859375 c 1,18,-1
 916.9609375 8.9755859375 l 1,0,1
767.904296875 852.59765625 m 1,19,-1
 767.904296875 968.615234375 l 2,20,21
 768.405273438 1111.31054688 768.405273438 1111.31054688 718.01953125 1184.64648438 c 0,22,23
 649.303710938 1286.21484375 649.303710938 1286.21484375 516.30078125 1285.78515625 c 0,24,25
 419.581054688 1286.21484375 419.581054688 1286.21484375 350.811523438 1219.59472656 c 128,-1,26
 282.041992188 1152.97558594 282.041992188 1152.97558594 282.041992188 1070.37207031 c 128,-1,27
 282.04296875 987.768554688 282.04296875 987.768554688 356.578125 927.973632812 c 0,28,29
 400.397460938 893.083984375 400.397460938 893.083984375 485.099609375 872.840820312 c 128,-1,30
 569.802734375 852.59765625 569.802734375 852.59765625 750.17578125 852.59765625 c 2,31,-1
 767.904296875 852.59765625 l 1,19,-1
EndSplineSet
EndChar

StartChar: afii57381
Encoding: 1642 1642 71
Width: 1215
VWidth: 2304
GlyphClass: 2
Flags: W
LayerCount: 2
Fore
SplineSet
852.633789062 90.42578125 m 0,0,1
 813.168945312 129.7890625 813.168945312 129.7890625 812.896484375 185.528320312 c 0,2,3
 813.168945312 240.7890625 813.168945312 240.7890625 852.633789062 280.631835938 c 0,4,5
 892.168945312 320.7890625 892.168945312 320.7890625 947.736328125 320.37109375 c 0,6,7
 1003.16894531 320.7890625 1003.16894531 320.7890625 1042.83886719 280.631835938 c 0,8,9
 1082.16894531 240.7890625 1082.16894531 240.7890625 1082.578125 185.529296875 c 0,10,11
 1082.16894531 129.7890625 1082.16894531 129.7890625 1042.83886719 90.42578125 c 0,12,13
 1003.16894531 50.7890625 1003.16894531 50.7890625 947.736328125 50.6884765625 c 0,14,15
 892.168945312 50.7890625 892.168945312 50.7890625 852.633789062 90.42578125 c 0,0,1
182.46484375 1179.63671875 m 0,16,17
 143 1219 143 1219 142.727539062 1274.73925781 c 0,18,19
 143 1330 143 1330 182.46484375 1369.84277344 c 0,20,21
 222 1410 222 1410 277.567382812 1409.58203125 c 0,22,23
 333 1410 333 1410 372.669921875 1369.84277344 c 0,24,25
 412 1330 412 1330 412.409179688 1274.74023438 c 0,26,27
 412 1219 412 1219 372.669921875 1179.63671875 c 0,28,29
 333 1140 333 1140 277.567382812 1139.89941406 c 0,30,31
 222 1140 222 1140 182.46484375 1179.63671875 c 0,16,17
916.15625 1447.51855469 m 1,32,-1
 1040 1382 l 5,33,-1
 327.79296875 10.251953125 l 1,34,-1
 204 72 l 1,35,-1
 916.15625 1447.51855469 l 1,32,-1
EndSplineSet
EndChar

StartChar: uni066B
Encoding: 1643 1643 72
Width: 723
VWidth: 2304
GlyphClass: 2
Flags: W
LayerCount: 2
Fore
SplineSet
469.731445312 519.982421875 m 1,0,-1
 599.818359375 519.056640625 l 1,1,2
 413.1484375 137.47265625 413.1484375 137.47265625 226.124023438 -243.125976562 c 1,3,-1
 93.072265625 -241.381835938 l 1,4,5
 281.645507812 139.6328125 281.645507812 139.6328125 469.731445312 519.982421875 c 1,0,-1
EndSplineSet
EndChar

StartChar: uni066C
Encoding: 1644 1644 73
Width: 707
VWidth: 2304
GlyphClass: 2
Flags: W
LayerCount: 2
Fore
SplineSet
302.506835938 1660.49023438 m 1,0,-1
 505.463867188 1660.49023438 l 1,1,-1
 505.463867188 1510.76464844 l 1,2,-1
 327.06640625 1163.75390625 l 1,3,-1
 214.98828125 1163.75390625 l 1,4,-1
 302.506835938 1504.23339844 l 1,5,-1
 302.506835938 1660.49023438 l 1,0,-1
EndSplineSet
EndChar

StartChar: afii63167
Encoding: 1645 1645 74
Width: 1233
VWidth: 2304
GlyphClass: 2
Flags: W
LayerCount: 2
Fore
SplineSet
143.59375 831.12890625 m 1,0,-1
 507.78125 831.12890625 l 1,1,-1
 621.49609375 1177.34863281 l 1,2,-1
 735.209960938 831.12890625 l 1,3,-1
 1099.3984375 831.12890625 l 1,4,-1
 805.176757812 616.043945312 l 1,5,-1
 917.745117188 270.225585938 l 1,6,-1
 621.49609375 484.296875 l 1,7,-1
 325.24609375 270.225585938 l 1,8,-1
 437.813476562 616.043945312 l 1,9,-1
 143.59375 831.12890625 l 1,0,-1
EndSplineSet
EndChar

StartChar: uni066E
Encoding: 1646 1646 75
Width: 1808
VWidth: 2304
GlyphClass: 2
Flags: W
AnchorPoint: "Anchor-10" 798.96 1111.66 basechar 0
AnchorPoint: "Anchor-7" 798.96 -187.744 basechar 0
LayerCount: 2
Fore
SplineSet
1541.32714844 511.176757812 m 0,0,1
 1541.32714844 574.47265625 1541.32714844 574.47265625 1517.2421875 702.5234375 c 1,2,-1
 1679.73730469 736.666015625 l 1,3,4
 1716.47949219 622.553710938 1716.47949219 622.553710938 1716.47949219 506.150390625 c 0,5,6
 1716.47949219 144.106445312 1716.47949219 144.106445312 1345.32421875 38.724609375 c 0,7,8
 1205.31152344 -0.0009765625 1205.31152344 -0.0009765625 990.716796875 -0.0009765625 c 0,9,10
 615.396484375 -0.0009765625 615.396484375 -0.0009765625 458.362304688 45.044921875 c 0,11,12
 91.3828125 152.020507812 91.3828125 152.020507812 91.3828125 523.297851562 c 0,13,14
 91.3828125 621.756835938 91.3828125 621.756835938 127.018554688 744.900390625 c 1,15,-1
 292.775390625 708.513671875 l 1,16,17
 267.729492188 572.344726562 267.729492188 572.344726562 267.729492188 541.224609375 c 0,18,19
 267.729492188 270.884765625 267.729492188 270.884765625 547.891601562 210.268554688 c 0,20,21
 678.041015625 182.090820312 678.041015625 182.090820312 931.233398438 182.090820312 c 128,-1,22
 1184.42578125 182.090820312 1184.42578125 182.090820312 1261.61425781 200.736328125 c 0,23,24
 1541.32714844 268.299804688 1541.32714844 268.299804688 1541.32714844 511.176757812 c 0,0,1
EndSplineSet
Substitution2: "'init' Initial Forms in Arabic lookup 13 subtable" uni066E.init
Substitution2: "'medi' Medial Forms in Arabic lookup 11 subtable" uni066E.medi
Substitution2: "'fina' Terminal Forms in Arabic lookup 9 subtable" uni066E.fina
EndChar

StartChar: uni066F
Encoding: 1647 1647 76
Width: 1516
VWidth: 2304
GlyphClass: 2
Flags: W
AnchorPoint: "Anchor-10" 323.64 1105.33 basechar 0
AnchorPoint: "Anchor-7" 489.432 -568.96 basechar 0
LayerCount: 2
Fore
SplineSet
1022.16015625 401.922851562 m 0,0,1
 1066.9369289 381.810971282 1066.9369289 381.810971282 1130.9759886 381.810971282 c 128,-1,2
 1195.01504831 381.810971282 1195.01504831 381.810971282 1268.01855469 394.234375 c 1,3,-1
 1268.0078125 397.622070312 l 2,4,5
 1267.47851562 563.778320312 1267.47851562 563.778320312 1233.40234375 658.158203125 c 0,6,7
 1200.62503877 743.185500924 1200.62503877 743.185500924 1114.88526853 743.185500924 c 0,8,9
 1114.6016155 743.185500924 1114.6016155 743.185500924 1114.31738281 743.184570312 c 0,10,11
 1054.45507812 743.432617188 1054.45507812 743.432617188 1005.43107087 675.550715011 c 128,-1,12
 956.406616078 607.668193133 956.406616078 607.668193133 956.406168519 519.114222179 c 128,-1,13
 956.406168519 430.564063245 956.406168519 430.564063245 1022.16015625 401.922851562 c 0,0,1
1253.65429688 228.676757812 m 1,14,15
 1106 216 1106 216 1098.11523438 216.01953125 c 0,16,17
 923 216 923 216 855.770507812 312.692382812 c 4,18,19
 800 393 800 393 800.044921875 495.733398438 c 0,20,21
 800 607 800 607 843.771650865 703.892121911 c 0,22,23
 949 936 949 936 1112.3867441 935.625 c 0,24,25
 1276 936 1276 936 1365.08789062 751.6953125 c 0,26,27
 1434 608 1434 608 1434.07714844 377.629882812 c 0,28,29
 1434 300 1434 300 1428.62695312 206.372070312 c 0,30,31
 1412 -67 1412 -67 1269.59570312 -220.888671875 c 0,32,33
 1107 -398 1107 -398 747.411132812 -397.484375 c 0,34,35
 459 -397 459 -397 274.583007812 -253.932128906 c 128,-1,36
 90 -111 90 -111 90.0405273425 154.977597429 c 128,-1,37
 90 421 90 421 188.826171875 641.436523438 c 1,38,-1
 360.1015625 606.807617188 l 1,39,40
 262 373 262 373 263.547851562 203.58203125 c 0,41,42
 264 158 264 158 269.928710938 117.46875 c 0,43,44
 322 -227 322 -227 728.7265625 -227.111328125 c 0,45,46
 1011 -227 1011 -227 1149.80859375 -88.626953125 c 0,47,48
 1255 15 1255 15 1253.65429688 228.676757812 c 1,14,15
EndSplineSet
Substitution2: "'init' Initial Forms in Arabic lookup 13 subtable" uni066F.init
Substitution2: "'medi' Medial Forms in Arabic lookup 11 subtable" uni066F.medi
Substitution2: "'fina' Terminal Forms in Arabic lookup 9 subtable" uni066F.fina
EndChar

StartChar: uni0670
Encoding: 1648 1648 77
Width: -27
VWidth: 2304
GlyphClass: 4
Flags: W
AnchorPoint: "Anchor-10" 569.519 1347.15 mark 0
AnchorPoint: "Anchor-9" 569.519 1347.15 mark 0
AnchorPoint: "Anchor-1" 569.519 2081.6 basemark 0
AnchorPoint: "Anchor-1" 569.519 1347.15 mark 0
LayerCount: 2
Fore
SplineSet
525.1015625 1402.16699219 m 1,0,-1
 525.1015625 2026.58496094 l 1,1,-1
 613.936523438 2026.58496094 l 1,2,-1
 613.936523438 1402.16699219 l 1,3,-1
 525.1015625 1402.16699219 l 1,0,-1
EndSplineSet
EndChar

StartChar: uni0674
Encoding: 1652 1652 78
Width: 647
VWidth: 2304
GlyphClass: 2
Flags: W
LayerCount: 2
Fore
SplineSet
256.468051177 1623.42111155 m 1,0,1
 143.837890625 1676.0962418 143.837890625 1676.0962418 143.837890625 1783.30078125 c 0,2,3
 143.837890625 1874.86266116 143.837890625 1874.86266116 207.878476702 1931.34523918 c 0,4,5
 262.011825677 1978.56082905 262.011825677 1978.56082905 342.745632782 1978.83656687 c 128,-1,6
 423.479439886 1979.11230469 423.479439886 1979.11230469 479.956054688 1946.83294049 c 1,7,-1
 479.956054688 1863.43383082 l 1,8,9
 385.227111126 1907.95704235 385.227111126 1907.95704235 301.827209583 1882.73456535 c 0,10,11
 230.672917436 1861.2166485 230.672917436 1861.2166485 224.590823882 1792.25523649 c 0,12,13
 216.61948935 1699.97581204 216.61948935 1699.97581204 339.940044625 1662.61722197 c 0,14,15
 377.000287062 1651.38876265 377.000287062 1651.38876265 503.684570312 1680.17676914 c 1,16,-1
 503.684570312 1591.23732717 l 1,17,-1
 141.578125 1509.9424683 l 1,18,-1
 141.578125 1596.91025461 l 1,19,-1
 256.468051177 1623.42111155 l 1,0,1
EndSplineSet
EndChar

StartChar: uni06A1
Encoding: 1697 1697 82
Width: 1824
VWidth: 2304
GlyphClass: 2
Flags: W
AnchorPoint: "Anchor-10" 537.533 1295.18 basechar 0
AnchorPoint: "Anchor-7" 523.805 -261.537 basechar 0
LayerCount: 2
Fore
SplineSet
1563.83300781 591.375976562 m 0,0,1
 1563.83300781 615.678710938 1563.83300781 615.678710938 1562.25585938 638.61328125 c 128,-1,2
 1560.67773438 661.546875 1560.67773438 661.546875 1557.515625 683.146484375 c 128,-1,3
 1554.35449219 704.74609375 1554.35449219 704.74609375 1549.609375 724.973632812 c 128,-1,4
 1544.86425781 745.202148438 1544.86425781 745.202148438 1538.52441406 764.088867188 c 128,-1,5
 1532.18554688 782.974609375 1532.18554688 782.974609375 1524.25683594 800.487304688 c 0,6,7
 1504.31152344 844.544921875 1504.31152344 844.544921875 1479.19824219 867.008789062 c 128,-1,8
 1454.0859375 889.471679688 1454.0859375 889.471679688 1423.74414062 889.471679688 c 0,9,10
 1364.06542969 889.471679688 1364.06542969 889.471679688 1312.92382812 819.430664062 c 0,11,12
 1262.2109375 749.975585938 1262.2109375 749.975585938 1262.2109375 666.837890625 c 0,13,14
 1262.2109375 636.556640625 1262.2109375 636.556640625 1269.45117188 612.834960938 c 128,-1,15
 1276.69140625 589.114257812 1276.69140625 589.114257812 1291.31347656 571.98828125 c 128,-1,16
 1305.93554688 554.862304688 1305.93554688 554.862304688 1327.8125 544.755859375 c 0,17,18
 1349.41601562 534.776367188 1349.41601562 534.776367188 1375.34765625 529.80859375 c 128,-1,19
 1401.27832031 524.841796875 1401.27832031 524.841796875 1431.52246094 524.841796875 c 0,20,21
 1491.58789062 524.841796875 1491.58789062 524.841796875 1558.78613281 536.474609375 c 2,22,-1
 1561.88671875 537.01171875 l 1,23,-1
 1562.09472656 540.151367188 l 2,24,25
 1563.83300781 566.399414062 1563.83300781 566.399414062 1563.83300781 591.375976562 c 0,0,1
1529.60546875 372.172851562 m 2,26,27
 1472.23046875 365.814453125 1472.23046875 365.814453125 1439.88183594 362.370117188 c 128,-1,28
 1407.53320312 358.92578125 1407.53320312 358.92578125 1404.67285156 358.837890625 c 0,29,30
 1263.03222656 359.038085938 1263.03222656 359.038085938 1184.44726562 437.973632812 c 0,31,32
 1103.80371094 519.307617188 1103.80371094 519.307617188 1104.05273438 636.415039062 c 0,33,34
 1104.85058594 745.94921875 1104.85058594 745.94921875 1153.61621094 855.091796875 c 0,35,36
 1173.23828125 898.518554688 1173.23828125 898.518554688 1196.15039062 933.200195312 c 128,-1,37
 1219.0625 967.880859375 1219.0625 967.880859375 1245.22070312 993.809570312 c 128,-1,38
 1271.37890625 1019.73730469 1271.37890625 1019.73730469 1300.86230469 1037.01464844 c 128,-1,39
 1330.34667969 1054.29199219 1330.34667969 1054.29199219 1363.06835938 1062.93359375 c 128,-1,40
 1395.79003906 1071.57519531 1395.79003906 1071.57519531 1431.87304688 1071.65917969 c 0,41,42
 1477.33691406 1071.55371094 1477.33691406 1071.55371094 1515.64746094 1059.66992188 c 128,-1,43
 1553.95800781 1047.78613281 1553.95800781 1047.78613281 1585.28222656 1024.0234375 c 128,-1,44
 1616.60644531 1000.26171875 1616.60644531 1000.26171875 1640.91210938 964.565429688 c 128,-1,45
 1665.21777344 928.870117188 1665.21777344 928.870117188 1682.59375 881.145507812 c 0,46,47
 1732.546875 743.006835938 1732.546875 743.006835938 1732.87207031 580.181640625 c 0,48,49
 1732.72070312 489.142578125 1732.72070312 489.142578125 1716.81347656 412.671875 c 128,-1,50
 1700.90625 336.201171875 1700.90625 336.201171875 1669.29296875 274.256835938 c 0,51,52
 1585.94042969 110.225585938 1585.94042969 110.225585938 1380.16308594 49.1533203125 c 0,53,54
 1212.20410156 -1.056640625 1212.20410156 -1.056640625 933.546875 -1.4404296875 c 0,55,56
 610.354492188 -1.056640625 610.354492188 -1.056640625 454.461914062 41.4794921875 c 0,57,58
 409.09765625 54.1474609375 409.09765625 54.1474609375 369.430664062 71.2763671875 c 128,-1,59
 329.764648438 88.4052734375 329.764648438 88.4052734375 295.75390625 110.021484375 c 128,-1,60
 261.744140625 131.637695312 261.744140625 131.637695312 233.415039062 157.734375 c 128,-1,61
 205.084960938 183.83203125 205.084960938 183.83203125 182.404296875 214.440429688 c 128,-1,62
 159.724609375 245.048828125 159.724609375 245.048828125 142.70703125 280.157226562 c 128,-1,63
 125.690429688 315.265625 125.690429688 315.265625 114.315429688 354.909179688 c 128,-1,64
 102.940429688 394.552734375 102.940429688 394.552734375 97.2109375 438.715820312 c 128,-1,65
 91.4814453125 482.879882812 91.4814453125 482.879882812 91.3857421875 531.6015625 c 0,66,67
 91.1025390625 630.223632812 91.1025390625 630.223632812 130.862304688 740.119140625 c 1,68,-1
 295.4375 707.747070312 l 1,69,70
 281.54296875 650.607421875 281.54296875 650.607421875 274.66015625 612.62890625 c 128,-1,71
 267.77734375 574.650390625 267.77734375 574.650390625 267.655273438 554.036132812 c 0,72,73
 267.899414062 274.813476562 267.899414062 274.813476562 546.560546875 206.483398438 c 0,74,75
 598.676757812 193.719726562 598.676757812 193.719726562 746.1484375 186.46484375 c 0,76,77
 893.788085938 178.911132812 893.788085938 178.911132812 942.85546875 179.224609375 c 0,78,79
 1164.79199219 178.911132812 1164.79199219 178.911132812 1339.23144531 230.447265625 c 0,80,81
 1515.03222656 282.172851562 1515.03222656 282.172851562 1533.95117188 367.330078125 c 2,82,-1
 1535.16308594 372.7890625 l 1,83,-1
 1529.60546875 372.172851562 l 2,26,27
EndSplineSet
Substitution2: "'init' Initial Forms in Arabic lookup 13 subtable" uni06A1.init
Substitution2: "'medi' Medial Forms in Arabic lookup 11 subtable" uni06A1.medi
Substitution2: "'fina' Terminal Forms in Arabic lookup 9 subtable" uni06A1.fina
EndChar

StartChar: uni06A9
Encoding: 1705 1705 83
Width: 1732
VWidth: 2304
GlyphClass: 2
Flags: W
AnchorPoint: "Anchor-10" 399.672 1270.95 basechar 0
AnchorPoint: "Anchor-7" 508.44 -268.718 basechar 0
LayerCount: 2
Fore
SplineSet
814.70703125 0 m 1,0,1
 582 3 582 3 441.275390625 43.6484375 c 0,2,3
 89 145 89 145 89.126953125 534.330078125 c 0,4,5
 89 632 89 632 125.641601562 740.0859375 c 1,6,-1
 285.147460938 707.717773438 l 1,7,8
 264 584 264 584 263.202148438 547.8515625 c 0,9,10
 259 276 259 276 544.46484375 206.479492188 c 0,11,12
 628 186 628 186 814.623046875 181.002929688 c 1,13,-1
 1102.74316406 181.028320312 l 2,14,15
 1414 181 1414 181 1387.18359375 352.482421875 c 0,16,17
 1359 539 1359 539 934.146484375 778.6953125 c 0,18,19
 852 825 852 825 852.474667914 940.27725011 c 0,20,21
 851.999378165 1055.15029157 851.999378165 1055.15029157 969.484375 1112.23730469 c 2,22,-1
 1701.57519531 1467.96679688 l 1,23,-1
 1701.57519531 1290.29785156 l 1,24,-1
 1006.25 955.544921875 l 1,25,26
 1331 720 1331 720 1397.60058594 647.254882812 c 0,27,28
 1536 496 1536 496 1548.27734375 378.639648438 c 0,29,30
 1561 249 1561 249 1506 162 c 4,31,32
 1403 0 1403 0 1146.37011719 0 c 2,33,-1
 814.70703125 0 l 1,0,1
EndSplineSet
Substitution2: "'init' Initial Forms in Arabic lookup 13 subtable" uniFB90
Substitution2: "'medi' Medial Forms in Arabic lookup 11 subtable" uniFB91
Substitution2: "'fina' Terminal Forms in Arabic lookup 9 subtable" uniFB8F
EndChar

StartChar: afii57514
Encoding: 1722 1722 85
Width: 1445
VWidth: 2304
GlyphClass: 2
Flags: W
AnchorPoint: "Anchor-10" 670.124 838.688 basechar 0
AnchorPoint: "Anchor-7" 693.853 -557.365 basechar 0
LayerCount: 2
Fore
SplineSet
1203.13476562 74.779296875 m 0,0,1
 1203.06445569 250.431230114 1203.06445569 250.431230114 1137.98632812 501.86328125 c 1,2,-1
 1293.85644531 535.248046875 l 1,3,4
 1356.75683594 231.3046875 1356.75683594 231.3046875 1353.46484375 46.76171875 c 0,5,6
 1344.03320312 -461.471679688 1344.03320312 -461.471679688 749.313476562 -461.4296875 c 0,7,8
 91.0966796875 -461.471679688 91.0966796875 -461.471679688 91.251953125 93.361328125 c 0,9,10
 91.09765625 252.81640625 91.09765625 252.81640625 166.25 469.770507812 c 1,11,-1
 330.288085938 434.532226562 l 1,12,13
 262.618164062 237.860351562 262.618164062 237.860351562 262.844726562 86.7314453125 c 0,14,15
 262.61328125 -292.068359375 262.61328125 -292.068359375 732.838378905 -292.068359375 c 128,-1,16
 1203.06347656 -292.068359375 1203.06347656 -292.068359375 1203.13476562 74.779296875 c 0,0,1
EndSplineSet
Substitution2: "'init' Initial Forms in Arabic lookup 13 subtable" uni06BA.init
Substitution2: "'medi' Medial Forms in Arabic lookup 11 subtable" uni06BA.medi
Substitution2: "'fina' Terminal Forms in Arabic lookup 9 subtable" uniFB9F
EndChar

StartChar: uni06F4
Encoding: 1780 1780 92
Width: 1215
VWidth: 2304
GlyphClass: 2
Flags: W
LayerCount: 2
Fore
SplineSet
414.677734375 1138.64453125 m 2,0,1
 465.30859375 1393.01855469 465.30859375 1393.01855469 677.247070312 1448.3515625 c 0,2,3
 762.189453125 1470.375 762.189453125 1470.375 855.560546875 1465.65332031 c 0,4,5
 946.62890625 1461.04882812 946.62890625 1461.04882812 1011.04882812 1437.27832031 c 1,6,-1
 1011.04882812 1297.21875 l 1,7,8
 965.068359375 1311.34179688 965.068359375 1311.34179688 916.365234375 1318.2109375 c 128,-1,9
 867.663085938 1325.08007812 867.663085938 1325.08007812 815.247070312 1324.88867188 c 0,10,11
 773.42578125 1325.02050781 773.42578125 1325.02050781 737.56640625 1317.05371094 c 128,-1,12
 701.708007812 1309.08691406 701.708007812 1309.08691406 671.7734375 1292.95019531 c 128,-1,13
 641.837890625 1276.81445312 641.837890625 1276.81445312 618.0546875 1252.55078125 c 0,14,15
 502.235351562 1134.94335938 502.235351562 1134.94335938 574.70703125 1016.95800781 c 0,16,17
 627.553710938 931.841796875 627.553710938 931.841796875 833.859375 931.692382812 c 0,18,19
 891.25 931.838867188 891.25 931.838867188 1071.8203125 958.291992188 c 1,20,-1
 1074.08007812 812.388671875 l 1,21,22
 867.44921875 785.657226562 867.44921875 785.657226562 802.803710938 785.231445312 c 0,23,24
 777.186523438 785.29296875 777.186523438 785.29296875 752.275390625 787.319335938 c 128,-1,25
 727.364257812 789.345703125 727.364257812 789.345703125 703.153320312 793.336914062 c 128,-1,26
 678.942382812 797.328125 678.942382812 797.328125 655.4296875 803.286132812 c 128,-1,27
 631.91796875 809.244140625 631.91796875 809.244140625 609.102539062 817.166992188 c 128,-1,28
 586.287109375 825.090820312 586.287109375 825.090820312 564.163085938 834.981445312 c 128,-1,29
 542.040039062 844.873046875 542.040039062 844.873046875 520.609375 856.729492188 c 128,-1,30
 499.1796875 868.5859375 499.1796875 868.5859375 478.434570312 882.412109375 c 2,31,-1
 466.721679688 890.21875 l 1,32,-1
 472.578125 877.419921875 l 2,33,34
 482.015625 856.794921875 482.015625 856.794921875 494.275390625 798.278320312 c 128,-1,35
 506.534179688 739.760742188 506.534179688 739.760742188 521.12890625 645.025390625 c 0,36,37
 546.58203125 478.268554688 546.58203125 478.268554688 550.5 77.947265625 c 0,38,39
 550.638671875 60.9541015625 550.638671875 60.9541015625 550.567382812 43.4111328125 c 128,-1,40
 550.497070312 25.8671875 550.497070312 25.8671875 550.233398438 8.9755859375 c 1,41,-1
 382.09765625 8.9755859375 l 1,42,43
 381.904296875 104.838867188 381.904296875 104.838867188 379.806640625 192.309570312 c 128,-1,44
 377.708007812 279.780273438 377.708007812 279.780273438 373.696289062 359.198242188 c 128,-1,45
 369.684570312 438.615234375 369.684570312 438.615234375 363.741210938 510.076171875 c 128,-1,46
 357.797851562 581.536132812 357.797851562 581.536132812 349.928710938 645.174804688 c 128,-1,47
 342.059570312 708.813476562 342.059570312 708.813476562 332.231445312 764.930664062 c 0,48,49
 320.036132812 834.557617188 320.036132812 834.557617188 301.86328125 908.693359375 c 128,-1,50
 283.689453125 982.828125 283.689453125 982.828125 259.7109375 1060.86816406 c 128,-1,51
 235.732421875 1138.90722656 235.732421875 1138.90722656 206.006835938 1220.81054688 c 128,-1,52
 176.28125 1302.71386719 176.28125 1302.71386719 140.919921875 1388.1484375 c 1,53,-1
 303.584960938 1441.39453125 l 1,54,55
 371.930664062 1245.79199219 371.930664062 1245.79199219 406.951171875 1138.1875 c 2,56,-1
 411.689453125 1123.62988281 l 1,57,-1
 414.677734375 1138.64453125 l 2,0,1
EndSplineSet
EndChar

StartChar: uni06F5
Encoding: 1781 1781 93
Width: 1215
VWidth: 2304
GlyphClass: 2
Flags: W
LayerCount: 2
Fore
SplineSet
844.094726562 184.194335938 m 4,0,1
 984 184 984 184 984 318.809570312 c 0,2,3
 984 426 984 426 963.846679688 498.203125 c 0,4,5
 873 819 873 819 582 1079 c 1,6,7
 351 815 351 815 263 517 c 0,8,9
 237 429 237 429 241.583007812 330.559570312 c 0,10,11
 249 188 249 188 402.41015625 188.030273438 c 0,12,13
 513 188 513 188 556.13671875 404.133789062 c 1,14,-1
 672.853515625 404.036132812 l 1,15,16
 707 184 707 184 844.094726562 184.194335938 c 4,0,1
1157.6927123 337.33267636 m 0,17,18
 1163 9 1163 9 843.21224949 9.29058809804 c 0,19,20
 674.208573754 9.00035818359 674.208573754 9.00035818359 618.3671875 163.99609375 c 2,21,-1
 614.606445312 174.434570312 l 1,22,23
 555 9 555 9 372.974609375 8.8330078125 c 0,24,25
 49 9 49 9 63 350 c 0,26,27
 69 490 69 490 122 631 c 0,28,29
 229 910 229 910 460.772460938 1197.1015625 c 1,30,31
 416.970703125 1238.1015625 l 1,32,33
 529 1375 l 1,34,35
 546 1358 546 1358 634.713867188 1273.66894531 c 0,36,37
 1150 791 1150 791 1157.6927123 337.33267636 c 0,17,18
EndSplineSet
EndChar

StartChar: uni06F6
Encoding: 1782 1782 94
Width: 1215
VWidth: 2304
GlyphClass: 2
Flags: W
LayerCount: 2
Fore
SplineSet
200.970703125 8.9755859375 m 1,0,1
 334 460 334 460 543.970703125 690.192382812 c 1,2,3
 301 690 301 690 225.970703125 905.760742188 c 0,4,5
 212 946 212 946 212 1003 c 0,6,7
 212 1096 212 1096 254.970703125 1181.76074219 c 0,8,9
 360 1392 360 1392 663.0234375 1390.22753906 c 0,10,11
 710 1390 710 1390 787.970703125 1376.79980469 c 1,12,-1
 763.970703125 1222.19238281 l 1,13,14
 754 1235 754 1235 663.970703125 1235.19335938 c 0,15,16
 466 1235 466 1235 390.970703125 1086.76074219 c 0,17,18
 369 1043 369 1043 368.948242188 988.951171875 c 0,19,20
 369 824 369 824 625.9921875 819.192382812 c 4,21,22
 636 819 636 819 1027 963.493164062 c 1,23,-1
 1034 799 l 5,24,25
 772 742 772 742 567.970703125 450.192382812 c 4,26,27
 476 319 476 319 382.46875 8.9755859375 c 5,28,-1
 200.970703125 8.9755859375 l 1,0,1
EndSplineSet
EndChar

StartChar: uniFB8F
Encoding: 64399 64399 109
Width: 1824
VWidth: 2304
GlyphClass: 2
Flags: W
AnchorPoint: "Anchor-10" 448.248 1241.55 basechar 0
AnchorPoint: "Anchor-7" 529.56 -220.48 basechar 0
LayerCount: 2
Fore
SplineSet
1526.25 142.280273438 m 1,0,1
 1415.72858405 0.00530153150234 1415.72858405 0.00530153150234 1177.81347656 0.5283203125 c 2,2,-1
 816.577148438 0.5283203125 l 1,3,4
 581.889648438 3.162109375 581.889648438 3.162109375 441.275390625 43.6484375 c 0,5,6
 88.9853515625 144.741210938 88.9853515625 144.741210938 89.126953125 534.330078125 c 0,7,8
 88.988212276 632.361235473 88.988212276 632.361235473 125.641601562 740.0859375 c 1,9,-1
 285.147460938 707.717773438 l 1,10,11
 263.66796875 583.896484375 263.66796875 583.896484375 263.202148438 547.8515625 c 0,12,13
 259.404296875 275.875976562 259.404296875 275.875976562 544.46484375 206.479492188 c 0,14,15
 628.306640625 186.314453125 628.306640625 186.314453125 846.079101562 181.53125 c 1,16,-1
 1134.18554688 181.555664062 l 2,17,18
 1445.64769237 181.582768944 1445.64769237 181.582768944 1418.62109375 353.044921875 c 0,19,20
 1388.56054688 537.084960938 1388.56054688 537.084960938 965.610351562 779.211914062 c 0,21,22
 884.149414062 826.215820312 884.149414062 826.215820312 884.149414062 941.024902346 c 128,-1,23
 884.149414062 1055.83398438 884.149414062 1055.83398438 1000.92675781 1112.765625 c 2,24,-1
 1733.01757812 1468.49511719 l 1,25,-1
 1733.01757812 1290.82519531 l 1,26,-1
 1037.69824219 956.076171875 l 1,27,28
 1363.41065815 719.338568239 1363.41065815 719.338568239 1429.04785156 647.776367188 c 0,29,30
 1540.82617188 526.174804688 1540.82617188 526.174804688 1594.45556641 354.12890625 c 128,-1,31
 1648.08496094 182.083007812 1648.08496094 182.083007812 1796.67675781 181.953125 c 2,32,-1
 1831.78027344 181.953125 l 1,33,-1
 1831.78027344 1.0556640625 l 1,34,-1
 1804.375 1.0556640625 l 2,35,36
 1598.57613566 1.0556640625 1598.57613566 1.0556640625 1526.25 142.280273438 c 1,0,1
EndSplineSet
EndChar

StartChar: uniFB9F
Encoding: 64415 64415 117
Width: 1537
VWidth: 2304
GlyphClass: 2
Flags: W
AnchorPoint: "Anchor-10" 602.318 725.696 basechar 0
AnchorPoint: "Anchor-7" 566.394 -625.456 basechar 0
LayerCount: 2
Fore
SplineSet
1203.13476562 74.77734375 m 0,0,1
 1203.13476562 162.709960938 1203.13476562 162.709960938 1186.76269531 269.861328125 c 128,-1,2
 1170.38964844 377.013671875 1170.38964844 377.013671875 1137.98828125 501.86328125 c 1,3,-1
 1293.75097656 535.224609375 l 1,4,5
 1311.41015625 437.247070312 1311.41015625 437.247070312 1322.81933594 381.640625 c 128,-1,6
 1334.22949219 326.034179688 1334.22949219 326.034179688 1340.50195312 307.778320312 c 0,7,8
 1362.234375 244.708007812 1362.234375 244.708007812 1413.51269531 213.06640625 c 128,-1,9
 1464.79003906 181.424804688 1464.79003906 181.424804688 1544.671875 181.424804688 c 2,10,-1
 1561 181.424804688 l 1,11,-1
 1561 0.5283203125 l 1,12,-1
 1530.72070312 0.525390625 l 2,13,14
 1432.61425781 0.0068359375 1432.61425781 0.0068359375 1359.72558594 49.9873046875 c 2,15,-1
 1353.79394531 54.0546875 l 1,16,-1
 1353.46777344 46.8701171875 l 2,17,18
 1330.41015625 -461.471679688 1330.41015625 -461.471679688 749.313476562 -461.4296875 c 0,19,20
 91.0966796875 -461.471679688 91.0966796875 -461.471679688 91.251953125 93.361328125 c 0,21,22
 91.09765625 252.81640625 91.09765625 252.81640625 166.25 469.770507812 c 1,23,-1
 330.288085938 434.532226562 l 1,24,25
 262.618164062 237.860351562 262.618164062 237.860351562 262.844726562 86.732421875 c 0,26,27
 262.61328125 -291.604492188 262.61328125 -291.604492188 729.90234375 -291.604492188 c 0,28,29
 1203.13476562 -291.604492188 1203.13476562 -291.604492188 1203.13476562 74.77734375 c 0,0,1
EndSplineSet
EndChar

StartChar: uniFBE8
Encoding: 64488 64488 120
Width: 612
VWidth: 2304
GlyphClass: 2
Flags: W
AnchorPoint: "Anchor-10" 320.398 1104.27 basechar 0
AnchorPoint: "Anchor-7" 293.998 -372.016 basechar 0
LayerCount: 2
Fore
SplineSet
57.5810546875 181.002929688 m 2,0,1
 270.002185242 181.002929689 270.002185242 181.002929689 324.525390625 254.100585938 c 0,2,3
 378 326 378 326 378.328396714 437.922661494 c 0,4,5
 378 550 378 550 311.359375 669.907226562 c 1,6,-1
 450.103515625 729.010742188 l 1,7,8
 531 621 531 621 530.838378906 409.492675781 c 0,9,10
 531 198 531 198 418.036621094 99.224609375 c 0,11,12
 305 0 305 0 48.974609375 0 c 2,13,-1
 -15.54296875 0 l 5,14,-1
 -15.54296875 181.002929688 l 5,15,-1
 57.5810546875 181.002929688 l 2,0,1
EndSplineSet
EndChar

StartChar: uniFBE9
Encoding: 64489 64489 121
Width: 695
VWidth: 2304
GlyphClass: 2
Flags: W
AnchorPoint: "Anchor-10" 297.718 1019.79 basechar 0
AnchorPoint: "Anchor-7" 343.126 -125.968 basechar 0
LayerCount: 2
Fore
SplineSet
402.095703125 114.806640625 m 1,0,1
 299.176212435 2.84217094304e-14 299.176212435 2.84217094304e-14 94.9345703125 0 c 2,2,-1
 -17.54296875 0 l 1,3,-1
 -17.54296875 181.002929688 l 1,4,-1
 45.4619140625 181.002929688 l 2,5,6
 212.844726562 181.024414062 212.844726562 181.024414062 262.705078125 230.34375 c 0,7,8
 310.727276689 277.831036983 310.727276689 277.831036983 321.287109375 363.32421875 c 2,9,-1
 345.141601562 556.431640625 l 1,10,-1
 461.495117188 556.431640625 l 1,11,-1
 485.346679688 363.341796875 l 2,12,13
 507.048738808 181.002929688 507.048738808 181.002929688 690.423828125 181.002929688 c 2,14,-1
 711.609375 181.002929688 l 1,15,-1
 711.609375 0 l 1,16,-1
 678.965820312 0 l 2,17,18
 507.542355919 0 507.542355919 0 402.095703125 114.806640625 c 1,0,1
EndSplineSet
EndChar

StartChar: uniFE73
Encoding: 65139 65139 129
Width: 578
VWidth: 2304
GlyphClass: 2
Flags: W
AnchorPoint: "Anchor-10" 213.595 1347.15 basechar 0
AnchorPoint: "Anchor-7" 213.595 -121.744 basechar 0
LayerCount: 2
Fore
SplineSet
299.819335938 366.381835938 m 2,0,1
 299.819335938 296.893554688 299.819335938 296.893554688 360.377929688 236.334960938 c 0,2,3
 415.284179688 181.424804688 415.284179688 181.424804688 534.491210938 181.424804688 c 2,4,-1
 601.5078125 181.424804688 l 1,5,-1
 601.5078125 8.9755859375 l 1,6,-1
 472.345703125 8.9755859375 l 2,7,8
 319.2421875 8.9755859375 319.2421875 8.9755859375 220.48046875 107.736328125 c 0,9,10
 127.369140625 200.84765625 127.369140625 200.84765625 127.369140625 352.822265625 c 2,11,-1
 127.369140625 383.680664062 l 1,12,-1
 299.819335938 383.680664062 l 1,13,-1
 299.819335938 366.381835938 l 2,0,1
EndSplineSet
EndChar

StartChar: uniFE8E
Encoding: 65166 65166 155
Width: 545
VWidth: 2304
GlyphClass: 2
Flags: W
AnchorPoint: "Anchor-10" 230.268 1606.4 basechar 0
AnchorPoint: "Anchor-7" 249.275 -256.912 basechar 0
LayerCount: 2
Fore
SplineSet
150.377929688 427.848632812 m 2,0,-1
 150.377929688 1470.43164062 l 1,1,-1
 318.603515625 1470.43164062 l 5,2,-1
 318.603515625 441.416992188 l 2,3,4
 318.188476562 339.22265625 318.188476562 339.22265625 349.090820312 283.841796875 c 0,5,6
 404.290039062 181.002929688 404.290039062 181.002929688 537.436523438 181.002929688 c 2,7,-1
 553.764648438 181.002929688 l 1,8,-1
 553.764648438 0 l 1,9,-1
 532.315429688 0 l 2,10,11
 312.8359375 0 312.8359375 0 208.415039062 173.337890625 c 0,12,13
 150.997070312 271.53125 150.997070312 271.53125 150.377929688 427.848632812 c 2,0,-1
EndSplineSet
EndChar

StartChar: uniFEA2
Encoding: 65186 65186 175
Width: 1280
VWidth: 2304
GlyphClass: 2
Flags: W
AnchorPoint: "Anchor-10" 648.18 1049.15 basechar 0
AnchorPoint: "Anchor-7" 452.303 -699.523 basechar 0
LayerCount: 2
Fore
SplineSet
776.629882812 607.091796875 m 1,0,1
 689 648 689 648 611.543445882 706.170618748 c 0,2,3
 534 765 534 765 473.483398438 765.389648438 c 0,4,5
 344 768 344 768 216.94140625 599.768554688 c 1,6,-1
 93.7568359375 688.240234375 l 1,7,8
 179 793 179 793 202.740234375 816.828125 c 0,9,10
 312 925 312 925 460.747070312 926.350585938 c 0,11,12
 571 927 571 927 665.381835938 850.361328125 c 0,13,14
 917 647 917 647 1163.94140625 657.88671875 c 1,15,-1
 1157.13574219 523.229492188 l 1,16,17
 1082 530 1082 530 1018.79199219 523.002929688 c 1,18,19
 1010.01092061 181.424804688 1010.01092061 181.424804688 1265.72949219 181.424804688 c 2,20,-1
 1288.98535156 181.424804688 l 1,21,-1
 1288.98535156 0.5283203125 l 1,22,-1
 1275.62988281 0.5283203125 l 2,23,24
 877 1 877 1 879.95703125 501.16015625 c 1,25,26
 564 456 564 456 394.797851562 293.517578125 c 0,27,28
 254 159 254 159 254.16796875 -13.096679687 c 0,29,30
 254 -185 254 -185 377.447753906 -281.536132812 c 128,-1,31
 501 -378 501 -378 730.002441406 -377.600585937 c 0,32,33
 959 -378 959 -378 1075.58691406 -336.958984375 c 1,34,-1
 1118.21191406 -485.357421875 l 1,35,36
 991 -539 991 -539 700.030273438 -535.906738281 c 128,-1,37
 409 -533 409 -533 250.915527344 -392.3671875 c 0,38,39
 93 -251 93 -251 95.3198242188 -6.72216796875 c 0,40,41
 97 244 97 244 299.158203125 411.61328125 c 0,42,43
 500 578 500 578 776.629882812 607.091796875 c 1,0,1
EndSplineSet
EndChar

StartChar: uniFEA3
Encoding: 65187 65187 176
Width: 1294
VWidth: 2304
GlyphClass: 2
Flags: W
AnchorPoint: "Anchor-10" 423.96 1159.43 basechar 0
AnchorPoint: "Anchor-7" 550.68 -264.304 basechar 0
LayerCount: 2
Fore
SplineSet
1199.78125 308.668945312 m 1,0,1
 1086.76074219 317.483398438 1086.76074219 317.483398438 943.083984375 233.888671875 c 0,2,3
 798.133789062 149.5546875 798.133789062 149.5546875 651.614257812 90.525390625 c 0,4,5
 427.40625 0 427.40625 0 31.3974609375 0 c 2,6,-1
 -15.982421875 0 l 1,7,-1
 -15.982421875 181.002929688 l 1,8,-1
 -4.142578125 181.002929688 l 2,9,10
 255.297851562 181.024414062 255.297851562 181.024414062 431.934570312 207.466796875 c 0,11,12
 633.313476562 237.143554688 633.313476562 237.143554688 865.2265625 368.455078125 c 2,13,-1
 877.057617188 375.153320312 l 1,14,-1
 863.484375 375.928710938 l 2,15,16
 827.609375 377.979492188 827.609375 377.979492188 673.288085938 480.861328125 c 0,17,18
 584.940429688 539.936523438 584.940429688 539.936523438 523.77734375 569.344726562 c 128,-1,19
 462.61328125 598.751953125 462.61328125 598.751953125 427.127929688 598.751953125 c 0,20,21
 296.819335938 598.751953125 296.819335938 598.751953125 170.6640625 433.125 c 1,22,-1
 47.4736328125 521.602539062 l 1,23,24
 76.1591796875 556.82421875 76.1591796875 556.82421875 97.7392578125 582.739257812 c 128,-1,25
 119.318359375 608.654296875 119.318359375 608.654296875 133.921875 625.426757812 c 128,-1,26
 148.524414062 642.198242188 148.524414062 642.198242188 156.456054688 650.189453125 c 0,27,28
 211.90625 705.026367188 211.90625 705.026367188 276.338867188 732.369140625 c 128,-1,29
 340.772460938 759.711914062 340.772460938 759.711914062 414.456054688 759.711914062 c 0,30,31
 568.297851562 759.711914062 568.297851562 759.711914062 703.421875 652.869140625 c 0,32,33
 975.138671875 436.754882812 975.138671875 436.754882812 1214.19921875 427.760742188 c 1,34,-1
 1199.78125 308.668945312 l 1,0,1
EndSplineSet
EndChar

StartChar: uniFEA4
Encoding: 65188 65188 177
Width: 1378
VWidth: 2304
GlyphClass: 2
Flags: W
AnchorPoint: "Anchor-10" 471.48 1134.04 basechar 0
AnchorPoint: "Anchor-7" 640.44 -240.016 basechar 0
LayerCount: 2
Fore
SplineSet
901.44140625 210.201171875 m 2,0,1
 777.05078125 141.12109375 777.05078125 141.12109375 651.614257812 90.525390625 c 0,2,3
 427.40625 0 427.40625 0 31.3974609375 0 c 2,4,-1
 -15.982421875 0 l 1,5,-1
 -15.982421875 181.002929688 l 1,6,-1
 -4.142578125 181.002929688 l 2,7,8
 255.297851562 181.024414062 255.297851562 181.024414062 431.934570312 207.466796875 c 0,9,10
 633.313476562 237.143554688 633.313476562 237.143554688 865.2265625 368.455078125 c 2,11,-1
 877.057617188 375.153320312 l 1,12,-1
 863.484375 375.928710938 l 2,13,14
 827.609375 377.979492188 827.609375 377.979492188 673.288085938 480.861328125 c 0,15,16
 584.940429688 539.936523438 584.940429688 539.936523438 523.77734375 569.344726562 c 128,-1,17
 462.61328125 598.751953125 462.61328125 598.751953125 427.127929688 598.751953125 c 0,18,19
 296.819335938 598.751953125 296.819335938 598.751953125 170.6640625 433.125 c 1,20,-1
 47.4736328125 521.602539062 l 1,21,22
 76.1591796875 556.82421875 76.1591796875 556.82421875 97.7392578125 582.739257812 c 128,-1,23
 119.318359375 608.654296875 119.318359375 608.654296875 133.921875 625.426757812 c 128,-1,24
 148.524414062 642.198242188 148.524414062 642.198242188 156.456054688 650.189453125 c 0,25,26
 211.90625 705.026367188 211.90625 705.026367188 276.338867188 732.369140625 c 128,-1,27
 340.772460938 759.711914062 340.772460938 759.711914062 414.456054688 759.711914062 c 0,28,29
 568.297851562 759.711914062 568.297851562 759.711914062 703.421875 652.869140625 c 0,30,31
 975.138671875 436.754882812 975.138671875 436.754882812 1214.19921875 427.760742188 c 1,32,-1
 1199.77832031 308.645507812 l 1,33,34
 1127.19726562 313.752929688 1127.19726562 313.752929688 1042.43164062 282.069335938 c 2,35,-1
 1039.43359375 280.948242188 l 1,36,-1
 1039.86914062 277.778320312 l 2,37,38
 1053.03320312 181.953125 1053.03320312 181.953125 1335.62597656 181.953125 c 2,39,-1
 1392.47265625 181.953125 l 1,40,-1
 1392.47265625 0 l 1,41,-1
 1313.02734375 0 l 2,42,43
 1141.81738281 0 1141.81738281 0 1040.63769531 52.0458984375 c 128,-1,44
 939.45703125 104.091796875 939.45703125 104.091796875 907.204101562 207.890625 c 2,45,-1
 905.743164062 212.58984375 l 1,46,-1
 901.44140625 210.201171875 l 2,0,1
EndSplineSet
EndChar

StartChar: uniFEAA
Encoding: 65194 65194 183
Width: 1086
VWidth: 2304
GlyphClass: 2
Flags: W
AnchorPoint: "Anchor-10" 408.109 1258.61 basechar 0
AnchorPoint: "Anchor-7" 369.576 -251.104 basechar 0
LayerCount: 2
Fore
SplineSet
637.7734375 479.84375 m 2,0,-1
 481.989257812 839.123046875 l 1,1,-1
 642.58203125 907.376953125 l 1,2,-1
 859.5234375 409.93359375 l 1,3,4
 957.556640625 179.396484375 957.556640625 179.396484375 1073.96289062 181.024414062 c 2,5,-1
 1098.59863281 181.368164062 l 1,6,-1
 1098.59863281 0.5283203125 l 1,7,-1
 1064.34472656 0.5283203125 l 2,8,9
 928.892656191 0.00883805063019 928.892656191 0.00883805063019 833.508789062 127.831054688 c 1,10,11
 719.257017218 -11.569158993 719.257017218 -11.569158993 349.12109375 -0.001953125 c 4,12,13
 167.932617188 6.1748046875 167.932617188 6.1748046875 91.8876953125 25.4033203125 c 1,14,-1
 91.8876953125 209.43359375 l 1,15,16
 248.5078125 174.745117188 248.5078125 174.745117188 427.483886719 179.478515625 c 128,-1,17
 606.459960938 184.211914062 606.459960938 184.211914062 667.619140625 210.422363281 c 128,-1,18
 728.778320312 236.6328125 728.778320312 236.6328125 698.844726562 330.57421875 c 0,19,20
 688.541015625 362.784179688 688.541015625 362.784179688 637.7734375 479.84375 c 2,0,-1
EndSplineSet
EndChar

StartChar: uniFEAE
Encoding: 65198 65198 187
Width: 841
VWidth: 2304
GlyphClass: 2
Flags: W
AnchorPoint: "Anchor-10" 458.808 859.808 basechar 0
AnchorPoint: "Anchor-7" 297.161 -689.925 basechar 0
LayerCount: 2
Fore
SplineSet
658.20703125 59.8310546875 m 2,0,1
 601.161132812 -421.940429688 601.161132812 -421.940429688 25.9599609375 -481.184570312 c 1,2,-1
 -3.6455078125 -316.90234375 l 1,3,4
 496.59375 -273.982421875 496.59375 -273.982421875 498.157226562 161.708984375 c 0,5,6
 498.430664062 263.915039062 498.430664062 263.915039062 483.850585938 346.604492188 c 128,-1,7
 469.270507812 429.293945312 469.270507812 429.293945312 439.942382812 492.323242188 c 1,8,-1
 592.428710938 554.522460938 l 1,9,10
 629.604492188 426.203125 629.604492188 426.203125 654.9765625 322.423828125 c 0,11,12
 671.922851562 252.06640625 671.922851562 252.06640625 716.775390625 216.53515625 c 128,-1,13
 761.627929688 181.002929688 761.627929688 181.002929688 833.518554688 181.002929688 c 2,14,-1
 848.2734375 181.002929688 l 1,15,-1
 848.2734375 0 l 1,16,-1
 813.61328125 0 l 2,17,18
 715.215820312 0 715.215820312 0 665.29296875 61.8720703125 c 2,19,-1
 659.325195312 69.2685546875 l 1,20,-1
 658.20703125 59.8310546875 l 2,0,1
EndSplineSet
PairPos2: "'kern' Horizontal Kerning lookup 15-1" uniFEE7 dx=-150 dy=0 dh=-150 dv=0 dx=0 dy=0 dh=0 dv=0
PairPos2: "'kern' Horizontal Kerning lookup 15-2" uniFB90 dx=-190 dy=0 dh=-190 dv=0 dx=0 dy=0 dh=0 dv=0
PairPos2: "'kern' Horizontal Kerning lookup 15-2" uniFB8E dx=-190 dy=0 dh=-190 dv=0 dx=0 dy=0 dh=0 dv=0
PairPos2: "'kern' Horizontal Kerning lookup 15-2" uni06A9 dx=-190 dy=0 dh=-190 dv=0 dx=0 dy=0 dh=0 dv=0
PairPos2: "'kern' Horizontal Kerning lookup 15-2" uni064A dx=-50 dy=0 dh=-50 dv=0 dx=0 dy=0 dh=0 dv=0
PairPos2: "'kern' Horizontal Kerning lookup 15-2" afii57414 dx=-50 dy=0 dh=-50 dv=0 dx=0 dy=0 dh=0 dv=0
PairPos2: "'kern' Horizontal Kerning lookup 15-2" uni0649 dx=-50 dy=0 dh=-50 dv=0 dx=0 dy=0 dh=0 dv=0
PairPos2: "'kern' Horizontal Kerning lookup 15-2" uni0648 dx=-50 dy=0 dh=-50 dv=0 dx=0 dy=0 dh=0 dv=0
PairPos2: "'kern' Horizontal Kerning lookup 15-2" afii57412 dx=-50 dy=0 dh=-50 dv=0 dx=0 dy=0 dh=0 dv=0
PairPos2: "'kern' Horizontal Kerning lookup 15-2" uniFEEB dx=-150 dy=0 dh=-150 dv=0 dx=0 dy=0 dh=0 dv=0
PairPos2: "'kern' Horizontal Kerning lookup 15-2" uni0647 dx=-150 dy=0 dh=-150 dv=0 dx=0 dy=0 dh=0 dv=0
PairPos2: "'kern' Horizontal Kerning lookup 15-2" uni0646 dx=-50 dy=0 dh=-50 dv=0 dx=0 dy=0 dh=0 dv=0
PairPos2: "'kern' Horizontal Kerning lookup 15-2" uniFEE3 dx=-150 dy=0 dh=-150 dv=0 dx=0 dy=0 dh=0 dv=0
PairPos2: "'kern' Horizontal Kerning lookup 15-2" uni0645 dx=-150 dy=0 dh=-150 dv=0 dx=0 dy=0 dh=0 dv=0
PairPos2: "'kern' Horizontal Kerning lookup 15-2" uniFEFB dx=-150 dy=0 dh=-150 dv=0 dx=0 dy=0 dh=0 dv=0
PairPos2: "'kern' Horizontal Kerning lookup 15-2" uniFEDF dx=-150 dy=0 dh=-150 dv=0 dx=0 dy=0 dh=0 dv=0
PairPos2: "'kern' Horizontal Kerning lookup 15-2" uni0644 dx=-50 dy=0 dh=-50 dv=0 dx=0 dy=0 dh=0 dv=0
PairPos2: "'kern' Horizontal Kerning lookup 15-2" uniFEDB dx=-190 dy=0 dh=-190 dv=0 dx=0 dy=0 dh=0 dv=0
PairPos2: "'kern' Horizontal Kerning lookup 15-2" uni0643 dx=-150 dy=0 dh=-150 dv=0 dx=0 dy=0 dh=0 dv=0
PairPos2: "'kern' Horizontal Kerning lookup 15-2" uniFED7 dx=-150 dy=0 dh=-150 dv=0 dx=0 dy=0 dh=0 dv=0
PairPos2: "'kern' Horizontal Kerning lookup 15-2" uni0642 dx=-50 dy=0 dh=-50 dv=0 dx=0 dy=0 dh=0 dv=0
PairPos2: "'kern' Horizontal Kerning lookup 15-2" uniFED3 dx=-150 dy=0 dh=-150 dv=0 dx=0 dy=0 dh=0 dv=0
PairPos2: "'kern' Horizontal Kerning lookup 15-2" uni0641 dx=-150 dy=0 dh=-150 dv=0 dx=0 dy=0 dh=0 dv=0
PairPos2: "'kern' Horizontal Kerning lookup 15-2" uniFECF dx=-150 dy=0 dh=-150 dv=0 dx=0 dy=0 dh=0 dv=0
PairPos2: "'kern' Horizontal Kerning lookup 15-2" uniFECB dx=-150 dy=0 dh=-150 dv=0 dx=0 dy=0 dh=0 dv=0
PairPos2: "'kern' Horizontal Kerning lookup 15-2" uniFEC7 dx=-150 dy=0 dh=-150 dv=0 dx=0 dy=0 dh=0 dv=0
PairPos2: "'kern' Horizontal Kerning lookup 15-2" uni0638 dx=-150 dy=0 dh=-150 dv=0 dx=0 dy=0 dh=0 dv=0
PairPos2: "'kern' Horizontal Kerning lookup 15-2" uniFEC3 dx=-150 dy=0 dh=-150 dv=0 dx=0 dy=0 dh=0 dv=0
PairPos2: "'kern' Horizontal Kerning lookup 15-2" uni0637 dx=-150 dy=0 dh=-150 dv=0 dx=0 dy=0 dh=0 dv=0
PairPos2: "'kern' Horizontal Kerning lookup 15-2" uniFEBF dx=-150 dy=0 dh=-150 dv=0 dx=0 dy=0 dh=0 dv=0
PairPos2: "'kern' Horizontal Kerning lookup 15-2" uni0636 dx=-150 dy=0 dh=-150 dv=0 dx=0 dy=0 dh=0 dv=0
PairPos2: "'kern' Horizontal Kerning lookup 15-2" uniFEBB dx=-150 dy=0 dh=-150 dv=0 dx=0 dy=0 dh=0 dv=0
PairPos2: "'kern' Horizontal Kerning lookup 15-2" uni0635 dx=-150 dy=0 dh=-150 dv=0 dx=0 dy=0 dh=0 dv=0
PairPos2: "'kern' Horizontal Kerning lookup 15-2" uniFEB7 dx=-150 dy=0 dh=-150 dv=0 dx=0 dy=0 dh=0 dv=0
PairPos2: "'kern' Horizontal Kerning lookup 15-2" uni0634 dx=-150 dy=0 dh=-150 dv=0 dx=0 dy=0 dh=0 dv=0
PairPos2: "'kern' Horizontal Kerning lookup 15-2" uniFEB3 dx=-150 dy=0 dh=-150 dv=0 dx=0 dy=0 dh=0 dv=0
PairPos2: "'kern' Horizontal Kerning lookup 15-2" uni0633 dx=-150 dy=0 dh=-150 dv=0 dx=0 dy=0 dh=0 dv=0
PairPos2: "'kern' Horizontal Kerning lookup 15-2" uni0632 dx=-50 dy=0 dh=-50 dv=0 dx=0 dy=0 dh=0 dv=0
PairPos2: "'kern' Horizontal Kerning lookup 15-2" uni0631 dx=-50 dy=0 dh=-50 dv=0 dx=0 dy=0 dh=0 dv=0
PairPos2: "'kern' Horizontal Kerning lookup 15-2" uni0630 dx=-150 dy=0 dh=-150 dv=0 dx=0 dy=0 dh=0 dv=0
PairPos2: "'kern' Horizontal Kerning lookup 15-2" uni062F dx=-150 dy=0 dh=-150 dv=0 dx=0 dy=0 dh=0 dv=0
PairPos2: "'kern' Horizontal Kerning lookup 15-2" uniFEA7 dx=-150 dy=0 dh=-150 dv=0 dx=0 dy=0 dh=0 dv=0
PairPos2: "'kern' Horizontal Kerning lookup 15-2" uniFEA3 dx=-150 dy=0 dh=-150 dv=0 dx=0 dy=0 dh=0 dv=0
PairPos2: "'kern' Horizontal Kerning lookup 15-2" uniFE9F dx=-150 dy=0 dh=-150 dv=0 dx=0 dy=0 dh=0 dv=0
PairPos2: "'kern' Horizontal Kerning lookup 15-2" uniFE9B dx=-150 dy=0 dh=-150 dv=0 dx=0 dy=0 dh=0 dv=0
PairPos2: "'kern' Horizontal Kerning lookup 15-2" uni062B dx=-150 dy=0 dh=-150 dv=0 dx=0 dy=0 dh=0 dv=0
PairPos2: "'kern' Horizontal Kerning lookup 15-2" uniFE97 dx=-150 dy=0 dh=-150 dv=0 dx=0 dy=0 dh=0 dv=0
PairPos2: "'kern' Horizontal Kerning lookup 15-2" uni062A dx=-150 dy=0 dh=-150 dv=0 dx=0 dy=0 dh=0 dv=0
PairPos2: "'kern' Horizontal Kerning lookup 15-2" uni0629 dx=-150 dy=0 dh=-150 dv=0 dx=0 dy=0 dh=0 dv=0
PairPos2: "'kern' Horizontal Kerning lookup 15-2" uniFE91 dx=-50 dy=0 dh=-50 dv=0 dx=0 dy=0 dh=0 dv=0
PairPos2: "'kern' Horizontal Kerning lookup 15-2" uni0628 dx=-150 dy=0 dh=-150 dv=0 dx=0 dy=0 dh=0 dv=0
PairPos2: "'kern' Horizontal Kerning lookup 15-2" uni0627 dx=-190 dy=0 dh=-190 dv=0 dx=0 dy=0 dh=0 dv=0
PairPos2: "'kern' Horizontal Kerning lookup 15-2" uni0623 dx=-190 dy=0 dh=-190 dv=0 dx=0 dy=0 dh=0 dv=0
PairPos2: "'kern' Horizontal Kerning lookup 15-2" uni0622 dx=-190 dy=0 dh=-190 dv=0 dx=0 dy=0 dh=0 dv=0
PairPos2: "'kern' Horizontal Kerning lookup 15-2" uni0621 dx=-150 dy=0 dh=-150 dv=0 dx=0 dy=0 dh=0 dv=0
PairPos2: "'kern' Horizontal Kerning lookup 15-2" uniFB94 dx=-190 dy=0 dh=-190 dv=0 dx=0 dy=0 dh=0 dv=0
PairPos2: "'kern' Horizontal Kerning lookup 15-2" uniFB92 dx=-190 dy=0 dh=-190 dv=0 dx=0 dy=0 dh=0 dv=0
PairPos2: "'kern' Horizontal Kerning lookup 15-2" afii57509 dx=-190 dy=0 dh=-190 dv=0 dx=0 dy=0 dh=0 dv=0
PairPos2: "'kern' Horizontal Kerning lookup 15-2" afii57508 dx=-50 dy=0 dh=-50 dv=0 dx=0 dy=0 dh=0 dv=0
PairPos2: "'kern' Horizontal Kerning lookup 15-2" afii57506 dx=-150 dy=0 dh=-150 dv=0 dx=0 dy=0 dh=0 dv=0
PairPos2: "'kern' Horizontal Kerning lookup 15-2" afii57440 dx=-150 dy=0 dh=-150 dv=0 dx=0 dy=0 dh=0 dv=0
PairPos2: "'kern' Horizontal Kerning lookup 15-2" uniFE8B dx=-150 dy=0 dh=-150 dv=0 dx=0 dy=0 dh=0 dv=0
EndChar

StartChar: uniFEB2
Encoding: 65202 65202 191
Width: 2567
VWidth: 2304
GlyphClass: 2
Flags: W
AnchorPoint: "Anchor-10" 670.008 932.144 basechar 0
AnchorPoint: "Anchor-7" 446.136 -679.312 basechar 0
LayerCount: 2
Fore
SplineSet
1340.46875 307.879882812 m 0,0,1
 1379.87304688 183.146484375 1379.87304688 183.146484375 1527.7734375 182.61328125 c 0,2,3
 1699.83007812 182.069335938 1699.83007812 182.069335938 1710.9921875 362.184570312 c 2,4,-1
 1723.10449219 557.646484375 l 1,5,-1
 1844.80273438 557.646484375 l 1,6,7
 1859.43652344 376.083984375 1859.43652344 376.083984375 1868.21972656 332.639648438 c 0,8,9
 1900.13671875 167.178710938 1900.13671875 167.178710938 2039.54785156 172.0546875 c 0,10,11
 2156.35351562 175.86328125 2156.35351562 175.86328125 2172.90039062 365.6953125 c 2,12,-1
 2189.60449219 557.340820312 l 1,13,-1
 2307.73046875 557.340820312 l 1,14,-1
 2337.56738281 368.208007812 l 2,15,16
 2346.90332031 309.033203125 2346.90332031 309.033203125 2365.20117188 269.528320312 c 128,-1,17
 2383.49902344 230.024414062 2383.49902344 230.024414062 2411.12207031 210.29296875 c 0,18,19
 2451.23828125 181.01953125 2451.23828125 181.01953125 2559.67773438 181.424804688 c 2,20,-1
 2577.71679688 181.424804688 l 1,21,-1
 2577.71679688 0.5283203125 l 1,22,-1
 2529.52832031 0.5283203125 l 2,23,24
 2333.43359375 0.005859375 2333.43359375 0.005859375 2264.05273438 123.537109375 c 2,25,-1
 2260.70898438 129.490234375 l 1,26,-1
 2257.15136719 123.662109375 l 2,27,28
 2181.02148438 -1.0390625 2181.02148438 -1.0390625 2038.24707031 0 c 0,29,30
 1845.76855469 1.0419921875 1845.76855469 1.0419921875 1782.765625 134.868164062 c 2,31,-1
 1779.046875 142.767578125 l 1,32,-1
 1775.49316406 134.791992188 l 2,33,34
 1714.96289062 -1.0556640625 1714.96289062 -1.0556640625 1550.18359375 -1.0556640625 c 128,-1,35
 1385.30273438 -1.0556640625 1385.30273438 -1.0556640625 1361.05566406 48.4482421875 c 2,36,-1
 1354.17675781 62.494140625 l 1,37,-1
 1353.46777344 46.8701171875 l 2,38,39
 1330.41015625 -461.471679688 1330.41015625 -461.471679688 749.313476562 -461.4296875 c 0,40,41
 91.0966796875 -461.471679688 91.0966796875 -461.471679688 91.251953125 93.361328125 c 0,42,43
 91.09765625 252.81640625 91.09765625 252.81640625 166.25 469.770507812 c 1,44,-1
 330.288085938 434.532226562 l 1,45,46
 262.618164062 237.860351562 262.618164062 237.860351562 262.844726562 86.7314453125 c 0,47,48
 262.61328125 -292.068359375 262.61328125 -292.068359375 729.8984375 -291.604492188 c 0,49,50
 1203.06347656 -292.068359375 1203.06347656 -292.068359375 1203.13476562 74.779296875 c 0,51,52
 1203.12304688 104.055664062 1203.12304688 104.055664062 1201.28417969 135.559570312 c 128,-1,53
 1199.4453125 167.063476562 1199.4453125 167.063476562 1195.79394531 200.634765625 c 128,-1,54
 1192.14355469 234.206054688 1192.14355469 234.206054688 1186.69433594 269.880859375 c 128,-1,55
 1181.24511719 305.555664062 1181.24511719 305.555664062 1174.0078125 343.241210938 c 128,-1,56
 1166.77050781 380.926757812 1166.77050781 380.926757812 1157.76367188 420.588867188 c 128,-1,57
 1148.75683594 460.250976562 1148.75683594 460.250976562 1137.98632812 501.86328125 c 1,58,-1
 1293.77148438 535.229492188 l 1,59,60
 1329.42871094 343.061523438 1329.42871094 343.061523438 1340.46875 307.879882812 c 0,0,1
EndSplineSet
EndChar

StartChar: uniFEB3
Encoding: 65203 65203 192
Width: 1544
VWidth: 2304
GlyphClass: 2
Flags: W
AnchorPoint: "Anchor-10" 725.448 1008.18 basechar 0
AnchorPoint: "Anchor-7" 738.12 -279.616 basechar 0
LayerCount: 2
Fore
SplineSet
1106.13574219 173.631835938 m 0,0,1
 1203.03125 173.631835938 1203.03125 173.631835938 1251.66308594 239.888671875 c 128,-1,2
 1300.29492188 306.146484375 1300.29492188 306.146484375 1300.37597656 436.799804688 c 0,3,4
 1300.21679688 547.530273438 1300.21679688 547.530273438 1233.54199219 668.315429688 c 1,5,-1
 1372.2890625 727.419921875 l 1,6,7
 1412.421875 673.047851562 1412.421875 673.047851562 1432.62402344 593.383789062 c 128,-1,8
 1452.82617188 513.720703125 1452.82617188 513.720703125 1452.921875 408.751953125 c 0,9,10
 1452.82519531 299.713867188 1452.82519531 299.713867188 1420.62402344 216.62109375 c 128,-1,11
 1388.42382812 133.529296875 1388.42382812 133.529296875 1324.19335938 76.0869140625 c 0,12,13
 1235.57421875 -2.1064453125 1235.57421875 -2.1064453125 1109.49804688 -1.5859375 c 0,14,15
 915.805664062 -2.1044921875 915.805664062 -2.1044921875 871.616210938 136.079101562 c 2,16,-1
 867.790039062 148.045898438 l 1,17,-1
 863.993164062 136.068359375 l 2,18,19
 820.204101562 -2.09765625 820.204101562 -2.09765625 611.947265625 -1.0556640625 c 0,20,21
 403.184570312 -0.0126953125 403.184570312 -0.0126953125 339.59765625 124.7265625 c 2,22,-1
 335.927734375 131.92578125 l 1,23,-1
 332.428710938 124.642578125 l 2,24,25
 272.548828125 0 272.548828125 0 32.923828125 0 c 2,26,-1
 -13.87109375 0 l 1,27,-1
 -13.87109375 181.002929688 l 1,28,-1
 5.625 181.002929688 l 2,29,30
 113.852539062 181.013671875 113.852539062 181.013671875 177.073242188 233.544921875 c 128,-1,31
 240.293945312 286.077148438 240.293945312 286.077148438 257.4921875 390.35546875 c 2,32,-1
 284.80859375 555.978515625 l 1,33,-1
 387.240234375 555.978515625 l 1,34,-1
 404.3203125 390.368164062 l 2,35,36
 411.731445312 318.913085938 411.731445312 318.913085938 438.8125 270.887695312 c 128,-1,37
 465.89453125 222.86328125 465.89453125 222.86328125 512.555664062 198.590820312 c 128,-1,38
 559.215820312 174.317382812 559.215820312 174.317382812 625.091796875 174.127929688 c 0,39,40
 774.940429688 173.620117188 774.940429688 173.620117188 790.471679688 310.97265625 c 2,41,-1
 817.9375 553.866210938 l 1,42,-1
 933.172851562 553.866210938 l 1,43,-1
 957.666992188 334.26171875 l 2,44,45
 975.842773438 173.631835938 975.842773438 173.631835938 1106.13574219 173.631835938 c 0,0,1
EndSplineSet
EndChar

StartChar: uniFEB4
Encoding: 65204 65204 193
Width: 1623
VWidth: 2299
GlyphClass: 2
Flags: W
AnchorPoint: "Anchor-10" 671.088 1002.9 basechar 0
AnchorPoint: "Anchor-7" 729.168 -252.16 basechar 0
LayerCount: 2
Fore
SplineSet
865.626953125 139.29296875 m 2,0,1
 821.80859375 1.0556640625 821.80859375 1.0556640625 619.872070312 1.0556640625 c 0,2,3
 417.442382812 1.0556640625 417.442382812 1.0556640625 351.032226562 129.499023438 c 2,4,-1
 347.874023438 135.608398438 l 1,5,-1
 344.125976562 129.841796875 l 2,6,7
 259.716796875 0 259.716796875 0 76.2509765625 0 c 2,8,-1
 -17.41015625 0 l 1,9,-1
 -17.41015625 181.000976562 l 1,10,-1
 38.7275390625 181.001953125 l 2,11,12
 239.594726562 183.168945312 239.594726562 183.168945312 264.225585938 355.530273438 c 2,13,-1
 293.064453125 557.340820312 l 1,14,-1
 394.97265625 557.340820312 l 1,15,-1
 419.47265625 383.079101562 l 2,16,17
 448.491210938 176.799804688 448.491210938 176.799804688 620.26171875 176.799804688 c 0,18,19
 693.149414062 176.799804688 693.149414062 176.799804688 735.140625 216.775390625 c 128,-1,20
 777.130859375 256.750976562 777.130859375 256.750976562 787.396484375 335.616210938 c 2,21,-1
 816.25390625 557.340820312 l 1,22,-1
 927.315429688 557.340820312 l 1,23,-1
 953.504882812 338.123046875 l 2,24,25
 958.130859375 298.430664062 958.130859375 298.430664062 970.34375 268.412109375 c 128,-1,26
 982.556640625 238.393554688 982.556640625 238.393554688 1002.25878906 218.208007812 c 128,-1,27
 1021.95996094 198.021484375 1021.95996094 198.021484375 1049.23730469 187.784179688 c 128,-1,28
 1076.51367188 177.545898438 1076.51367188 177.545898438 1111.12988281 177.439453125 c 0,29,30
 1176.23535156 177.654296875 1176.23535156 177.654296875 1213.70117188 220.6484375 c 128,-1,31
 1251.16796875 263.643554688 1251.16796875 263.643554688 1260.59472656 347.953125 c 2,32,-1
 1284.08300781 558.015625 l 1,33,-1
 1398.06054688 558.015625 l 1,34,-1
 1421.87792969 344.62890625 l 2,35,36
 1439.98730469 181.953125 1439.98730469 181.953125 1622.49121094 181.953125 c 2,37,-1
 1631.36328125 181.953125 l 1,38,-1
 1631.36328125 0 l 1,39,-1
 1575.19335938 0 l 2,40,41
 1410.18359375 0 1410.18359375 0 1348.97167969 129.713867188 c 2,42,-1
 1344.40917969 139.381835938 l 1,43,-1
 1341.50488281 129.09375 l 2,44,45
 1323.43554688 65.091796875 1323.43554688 65.091796875 1268.05371094 33.07421875 c 128,-1,46
 1212.671875 1.0556640625 1212.671875 1.0556640625 1118.83203125 1.0556640625 c 0,47,48
 931.927734375 1.0556640625 931.927734375 1.0556640625 873.123046875 139.646484375 c 2,49,-1
 868.896484375 149.606445312 l 1,50,-1
 865.626953125 139.29296875 l 2,0,1
EndSplineSet
EndChar

StartChar: uniFEBA
Encoding: 65210 65210 199
Width: 2524
VWidth: 2304
GlyphClass: 2
Flags: W
AnchorPoint: "Anchor-10" 499.823 895.184 basechar 0
AnchorPoint: "Anchor-7" 396.504 -741.616 basechar 0
LayerCount: 2
Fore
SplineSet
2323.31640625 225.758789062 m 1,0,1
 2351.06342106 180.897460938 2351.06342106 180.897460938 2514.20605469 180.897460938 c 2,2,-1
 2532.68847656 180.897460938 l 1,3,-1
 2532.68847656 0 l 1,4,-1
 2491.60839844 0 l 2,5,6
 2290 0 2290 0 2221.49609375 95.419921875 c 1,7,8
 2069.45654891 -3.70235265884 2069.45654891 -3.70235265884 1667.01660156 -0.7080078125 c 2,9,-1
 1571.86035156 0 l 2,10,11
 1424 1 1424 1 1379.47363281 74.484375 c 1,12,-1
 1348.14746094 74.560546875 l 1,13,-1
 1348.13183594 70.56640625 l 2,14,15
 1346 -461 1346 -461 749.313476562 -461.4296875 c 0,16,17
 92 -461 92 -461 91.251953125 93.361328125 c 0,18,19
 91 253 91 253 166.25 469.770507812 c 1,20,-1
 330.288085938 434.532226562 l 1,21,22
 263 238 263 238 262.844726562 86.7314453125 c 0,23,24
 263 -292 263 -292 733.913177775 -292.000763407 c 128,-1,25
 1205 -292 1205 -292 1203.13476562 74.779296875 c 0,26,27
 1202 257 1202 257 1137.98632812 501.86328125 c 1,28,-1
 1293.56835938 535.185546875 l 1,29,30
 1326 296 1326 296 1414.53222656 294.678710938 c 1,31,32
 1738 770 1738 770 2012.27636719 770.291992188 c 4,33,34
 2361 770 2361 770 2350.39355469 381.884765625 c 0,35,36
 2348 293 2348 293 2323.31640625 225.758789062 c 1,0,1
1522.98730469 191.940429688 m 1,37,-1
 1720.54785156 191.940429688 l 2,38,39
 1956.74187719 192.056279033 1956.74187719 192.056279033 2023.84082031 199.354492188 c 0,40,41
 2168 218 2168 218 2179.9140625 352.93359375 c 0,42,43
 2206.8330989 598.985684899 2206.8330989 598.985684899 2017.16113281 599.099609375 c 0,44,45
 1830.60663788 598.999789524 1830.60663788 598.999789524 1522.98730469 191.940429688 c 1,37,-1
EndSplineSet
EndChar

StartChar: uniFEBB
Encoding: 65211 65211 200
Width: 1502
VWidth: 2304
GlyphClass: 2
Flags: W
AnchorPoint: "Anchor-10" 567.772 1091.99 basechar 0
AnchorPoint: "Anchor-7" 546.772 -233.152 basechar 0
LayerCount: 2
Fore
SplineSet
583.08203125 192.649414062 m 1,0,-1
 780.642578125 192.649414062 l 2,1,2
 1023 193 1023 193 1083.93554688 200.063476562 c 0,3,4
 1228 218 1228 218 1240.00976562 353.642578125 c 0,5,6
 1259.73073311 600.019419724 1259.73073311 600.019419724 1077.25585938 599.807617188 c 0,7,8
 890.92150877 600.000081073 890.92150877 600.000081073 583.08203125 192.649414062 c 1,0,-1
473.552734375 293.80859375 m 1,9,10
 798 771 798 771 1082.37597656 771 c 0,11,12
 1418 771 1418 771 1410.48925781 382.578125 c 0,13,14
 1406 162 1406 162 1253.43597197 79.616109673 c 0,15,16
 1101 -3 1101 -3 750.491210938 -0.087890625 c 0,17,18
 739 -0 739 -0 727.112304688 0 c 2,19,-1
 631.955078125 0.7080078125 l 2,20,21
 433 2 433 2 334.959960938 163.877929688 c 1,22,23
 218 0 218 0 32.173828125 0 c 2,24,-1
 -15.982421875 0 l 1,25,-1
 -15.982421875 181.002929688 l 1,26,-1
 -4.62890625 181.002929688 l 2,27,28
 200.724245707 181.000003929 200.724245707 181.000003929 233.888671875 408.381835938 c 2,29,-1
 255.565429688 557.001953125 l 1,30,-1
 378.59765625 557.001953125 l 1,31,-1
 400.12109375 450.966796875 l 2,32,33
 425 328 425 328 473.552734375 293.80859375 c 1,9,10
EndSplineSet
EndChar

StartChar: uniFEBC
Encoding: 65212 65212 201
Width: 1626
VWidth: 2304
GlyphClass: 2
Flags: W
AnchorPoint: "Anchor-10" 658.008 1121.31 basechar 0
AnchorPoint: "Anchor-7" 633.576 -266.944 basechar 0
LayerCount: 2
Fore
SplineSet
583.08203125 192.649414062 m 1,0,-1
 780.642578125 192.649414062 l 2,1,2
 1023 193 1023 193 1083.93554688 200.063476562 c 0,3,4
 1228 218 1228 218 1240.00976562 353.642578125 c 0,5,6
 1259.73073311 600.019419724 1259.73073311 600.019419724 1077.25585938 599.807617188 c 0,7,8
 890.921508817 600.000081073 890.921508817 600.000081073 587.927734375 199.061523438 c 2,9,-1
 583.08203125 192.649414062 l 1,0,-1
1394.859375 257.98828125 m 2,10,11
 1408.34623788 234.814549058 1408.34623788 234.814549058 1472.625 200.385742188 c 0,12,13
 1506.2467319 181.424804688 1506.2467319 181.424804688 1615.66601562 181.424804688 c 2,14,-1
 1634.1484375 181.424804688 l 1,15,-1
 1634.1484375 0.5283203125 l 1,16,-1
 1593.05859375 0.5283203125 l 2,17,18
 1387.36168688 1.00146826002 1387.36168688 1.00146826002 1310.0625 112.329101562 c 2,19,-1
 1307.546875 115.952148438 l 1,20,-1
 1304.18652344 113.095703125 l 2,21,22
 1296 106 1296 106 1282.41210938 96.583984375 c 0,23,24
 1271 89 1271 89 1258.6171875 82.373046875 c 0,25,26
 1100 -3 1100 -3 750.520507812 -0.087890625 c 0,27,28
 739 0 739 0 727.112304688 0 c 2,29,-1
 631.955078125 0.7080078125 l 2,30,31
 432.618855687 2.00247510885 432.618855687 2.00247510885 338.10546875 158.6640625 c 2,32,-1
 334.959960938 163.877929688 l 1,33,-1
 331.423828125 158.919921875 l 2,34,35
 218 0 218 0 32.173828125 0 c 2,36,-1
 -15.982421875 0 l 1,37,-1
 -15.982421875 181.002929688 l 1,38,-1
 -4.62890625 181.002929688 l 2,39,40
 200.724245707 181.000003929 200.724245707 181.000003929 233.888671875 408.381835938 c 2,41,-1
 255.565429688 557.001953125 l 1,42,-1
 378.59765625 557.001953125 l 1,43,-1
 400.12109375 450.966796875 l 2,44,45
 424.976892409 328.114211872 424.976892409 328.114211872 470.228515625 296.15625 c 2,46,-1
 473.552734375 293.80859375 l 1,47,-1
 475.842773438 297.172851562 l 2,48,49
 798 771 798 771 1078.37597656 771 c 0,50,51
 1419 771 1419 771 1410.48925781 382.55859375 c 0,52,53
 1408.9963384 313.831436668 1408.9963384 313.831436668 1394.45996094 261.061523438 c 2,54,-1
 1394.01367188 259.44140625 l 1,55,-1
 1394.859375 257.98828125 l 2,10,11
EndSplineSet
EndChar

StartChar: uniFEC2
Encoding: 65218 65218 207
Width: 1468
VWidth: 2304
GlyphClass: 2
Flags: W
AnchorPoint: "Anchor-7" 549.713 -271.84 basechar 0
AnchorPoint: "Anchor-10" 351.804 1592.67 basechar 0
LayerCount: 2
Fore
SplineSet
435.2421875 192.649414062 m 1,0,-1
 632.802734375 192.649414062 l 2,1,2
 884.941084037 193.37877177 884.941084037 193.37877177 936.095703125 200.063476562 c 0,3,4
 1080 218 1080 218 1092.16894531 353.642578125 c 0,5,6
 1110.84002595 600.018403644 1110.84002595 600.018403644 929.416015625 599.807617188 c 0,7,8
 743.081540159 599.99991585 743.081540159 599.99991585 435.2421875 192.649414062 c 1,0,-1
1243.56835938 250.029296875 m 1,9,10
 1281.76349258 181.424804688 1281.76349258 181.424804688 1449.44140625 181.424804688 c 2,11,-1
 1476.91113281 181.424804688 l 1,12,-1
 1476.91113281 0.5283203125 l 1,13,-1
 1387.28222656 0.5283203125 l 2,14,15
 1238 1 1238 1 1147.51074219 105.90625 c 1,16,-1
 1122.26464844 89.1474609375 l 1,17,18
 968 -3 968 -3 602.690429688 -0.087890625 c 0,19,20
 594 0 594 0 585.528320312 0 c 2,21,-1
 91.095703125 0 l 1,22,-1
 91.095703125 180.900390625 l 1,23,-1
 242.499023438 181.026367188 l 1,24,25
 271 229 271 229 303.521484375 274.760742188 c 1,26,-1
 303.521484375 1470.9765625 l 1,27,-1
 471.74609375 1470.9765625 l 1,28,-1
 471.74609375 486.34375 l 1,29,30
 723 771 723 771 931.536132812 771 c 4,31,32
 1271 771 1271 771 1262.6484375 382.553710938 c 0,33,34
 1261 306 1261 306 1243.56835938 250.029296875 c 1,9,10
EndSplineSet
EndChar

StartChar: uniFEC3
Encoding: 65219 65219 208
Width: 1188
VWidth: 2304
GlyphClass: 2
Flags: W
AnchorPoint: "Anchor-10" 199.178 1589.5 basechar 0
AnchorPoint: "Anchor-7" 394.994 -266.944 basechar 0
LayerCount: 2
Fore
SplineSet
269.450195312 192.649414062 m 1,0,-1
 467.010742188 192.649414062 l 2,1,2
 709 193 709 193 770.303710938 200.063476562 c 0,3,4
 914 218 914 218 926.376953125 353.642578125 c 0,5,6
 950.271787641 600.023440545 950.271787641 600.023440545 763.624023438 599.807617188 c 0,7,8
 577.289386171 599.999701684 577.289386171 599.999701684 274.295898438 199.061523438 c 2,9,-1
 269.450195312 192.649414062 l 1,0,-1
312.955078125 494.286132812 m 2,10,11
 556.870203434 771 556.870203434 771 768.744140625 771 c 0,12,13
 1104 771 1104 771 1096.85742188 382.572265625 c 0,14,15
 1093 162 1093 162 944.995117188 82.3779296875 c 0,16,17
 785 -3 785 -3 436.8984375 -0.087890625 c 0,18,19
 428 0 428 0 419.736328125 0 c 2,20,-1
 -26.1201171875 0 l 1,21,-1
 -26.1201171875 180.90234375 l 1,22,-1
 76.7080078125 181.02734375 l 1,23,-1
 77.8671875 182.989257812 l 2,24,25
 104.88250333 228.80075383 104.88250333 228.80075383 136.983398438 273.716796875 c 2,26,-1
 137.729492188 274.760742188 l 1,27,-1
 137.729492188 1470.9765625 l 1,28,-1
 305.954101562 1470.9765625 l 1,29,-1
 305.954101562 486.34375 l 1,30,-1
 312.955078125 494.286132812 l 2,10,11
EndSplineSet
EndChar

StartChar: uniFEC4
Encoding: 65220 65220 209
Width: 1301
VWidth: 2304
GlyphClass: 2
Flags: W
AnchorPoint: "Anchor-10" 215.877 1587.18 basechar 0
AnchorPoint: "Anchor-7" 473.307 -283.84 basechar 0
LayerCount: 2
Fore
SplineSet
269.450195312 192.649414062 m 1,0,-1
 467.010742188 192.649414062 l 2,1,2
 709 193 709 193 770.303710938 200.063476562 c 0,3,4
 914 218 914 218 926.376953125 353.642578125 c 0,5,6
 950.271787641 600.023440545 950.271787641 600.023440545 763.624023438 599.807617188 c 0,7,8
 577.289386187 599.999701684 577.289386187 599.999701684 269.450195312 192.649414062 c 1,0,-1
1077.77636719 250.029296875 m 1,9,10
 1115.76477265 181.424804688 1115.76477265 181.424804688 1283.64941406 181.424804688 c 2,11,-1
 1311.11914062 181.424804688 l 1,12,-1
 1311.11914062 0.5283203125 l 1,13,-1
 1221.49023438 0.5283203125 l 2,14,15
 1073 1 1073 1 981.71875 105.90625 c 1,16,17
 827 -3 827 -3 436.8984375 -0.087890625 c 0,18,19
 428 0 428 0 419.736328125 0 c 2,20,-1
 -15.5595703125 0 l 1,21,-1
 -15.5595703125 180.903320312 l 1,22,-1
 76.7080078125 181.02734375 l 1,23,24
 105 229 105 229 137.729492188 274.760742188 c 1,25,-1
 137.729492188 1470.9765625 l 1,26,-1
 305.954101562 1470.9765625 l 1,27,-1
 305.954101562 486.34375 l 1,28,29
 557 771 557 771 765.744140625 771 c 4,30,31
 1106 771 1106 771 1096.85644531 382.553710938 c 0,32,33
 1095 307 1095 307 1077.77636719 250.029296875 c 1,9,10
EndSplineSet
EndChar

StartChar: uniFECA
Encoding: 65226 65226 215
Width: 1173
VWidth: 2304
GlyphClass: 2
Flags: W
AnchorPoint: "Anchor-10" 586.808 1103.22 basechar 0
AnchorPoint: "Anchor-7" 409.072 -732.26 basechar 0
LayerCount: 2
Fore
SplineSet
662.436523438 627.1015625 m 1,0,1
 810.252194317 696.657847128 810.252194317 696.657847128 814.133789062 743.787109375 c 0,2,3
 819.857255724 793.144556898 819.857255724 793.144556898 689.178580067 794.712980224 c 128,-1,4
 558.499904411 796.281403551 558.499904411 796.281403551 558.766601562 742.809570312 c 0,5,6
 558.506235449 700.407628052 558.506235449 700.407628052 662.436523438 627.1015625 c 1,0,1
729.688476562 -377.774414062 m 0,7,8
 887.726754949 -377.601831807 887.726754949 -377.601831807 1002.94921875 -336.96484375 c 1,9,-1
 1045.57324219 -485.361328125 l 1,10,11
 919.80859375 -538.516601562 919.80859375 -538.516601562 705.43359375 -536.122070312 c 0,12,13
 404.607421875 -533.294921875 404.607421875 -533.294921875 246.915527344 -392.3671875 c 128,-1,14
 89.2236328125 -251.439453125 89.2236328125 -251.439453125 91.3203125 -5.08984375 c 128,-1,15
 93.4150390625 241.19140625 93.4150390625 241.19140625 309.499023438 417.4140625 c 0,16,17
 407.322918619 497.356601024 407.322918619 497.356601024 508.268554688 542.829101562 c 1,18,19
 328.95265819 717.688133733 328.95265819 717.688133733 321.186778314 755.327953585 c 128,-1,20
 313.420898438 792.967773438 313.420898438 792.967773438 367.037109375 844.774414062 c 0,21,22
 490.23828125 965.635742188 490.23828125 965.635742188 680.889160156 966.159667969 c 128,-1,23
 871.540039062 966.68359375 871.540039062 966.68359375 1021.74609375 841.34375 c 0,24,25
 1096.7517213 778.502502619 1096.7517213 778.502502619 1026.38611455 698.794220059 c 128,-1,26
 956.084653055 619.15859952 956.084653055 619.15859952 717.016601562 496.381835938 c 1,27,28
 831.067648571 181.020457994 831.067648571 181.020457994 1145.95996094 181.424804688 c 2,29,-1
 1196.02734375 181.424804688 l 1,30,-1
 1196.02734375 0.5283203125 l 1,31,-1
 1164.03320312 0.5283203125 l 2,32,33
 776.243152381 0.00385736672437 776.243152381 0.00385736672437 582.434570312 420.715820312 c 1,34,35
 469.422147851 368.953941133 469.422147851 368.953941133 390.797851562 293.517578125 c 0,36,37
 250.16796875 159.280273438 250.16796875 159.280273438 250.16796875 -13.0966796875 c 128,-1,38
 250.16796875 -185.473632812 250.16796875 -185.473632812 373.447753906 -281.536132812 c 128,-1,39
 496.727539062 -377.598632812 496.727539062 -377.598632812 729.688476562 -377.774414062 c 0,7,8
EndSplineSet
EndChar

StartChar: uniFECB
Encoding: 65227 65227 216
Width: 1047
VWidth: 2304
GlyphClass: 2
Flags: W
AnchorPoint: "Anchor-10" 448.528 1194.8 basechar 0
AnchorPoint: "Anchor-7" 416.146 -276.976 basechar 0
LayerCount: 2
Fore
SplineSet
296.129882812 181.0390625 m 5,0,1
 160 274 160 274 158 438 c 4,2,3
 154.194568737 643.400777701 154.194568737 643.400777701 322.740234375 758.522460938 c 0,4,5
 462 853 462 853 660.784179688 818.255859375 c 0,6,7
 797 794 797 794 876.484375 701.84765625 c 1,8,-1
 821.50390625 578.393554688 l 1,9,10
 727 665 727 665 590.533203125 665.345703125 c 0,11,12
 505 665 505 665 442.905273438 630.41796875 c 0,13,14
 331 567 331 567 328 452 c 0,15,16
 323 272 323 272 590.791992188 213.47265625 c 1,17,-1
 955.3515625 291.409179688 l 1,18,-1
 955.3515625 109.723632812 l 1,19,20
 860 95 860 95 741.419757209 64.5642855505 c 128,-1,21
 623 34 623 34 554.6484375 16.8232421875 c 0,22,23
 486.912297567 -0.021810396898 486.912297567 -0.021810396898 367.313476562 -0.0166015625 c 2,24,-1
 -13.87109375 0 l 1,25,-1
 -13.87109375 181.002929688 l 1,26,-1
 296.129882812 181.0390625 l 5,0,1
EndSplineSet
EndChar

StartChar: uniFECC
Encoding: 65228 65228 217
Width: 984
VWidth: 2304
GlyphClass: 2
Flags: W
AnchorPoint: "Anchor-10" 490.597 1121.17 basechar 0
AnchorPoint: "Anchor-7" 474.757 -276.976 basechar 0
LayerCount: 2
Fore
SplineSet
503.099609375 416.703125 m 1,0,1
 621.95703125 497.371140429 621.95703125 497.371140429 621.95703125 525.0234375 c 0,2,3
 621.95703125 574.466796875 621.95703125 574.466796875 503.099609375 574.466796875 c 128,-1,4
 384.2421875 574.466796875 384.2421875 574.466796875 384.2421875 525.0234375 c 0,5,6
 384.2421875 497.371140429 384.2421875 497.371140429 503.099609375 416.703125 c 1,0,1
492.249023438 173.095703125 m 1,7,8
 311.026761482 0 311.026761482 0 43.1484375 0 c 2,9,-1
 -17.54296875 0 l 1,10,-1
 -17.54296875 181.002929688 l 1,11,-1
 18.2900390625 181.002929688 l 2,12,13
 287.059083443 181.024415819 287.059083443 181.024415819 402.639648438 324.883789062 c 1,14,15
 269.310877853 391.1824492 269.310877853 391.1824492 200.642743614 445.61075585 c 128,-1,16
 131.974609375 500.0390625 131.974609375 500.0390625 131.974609375 530.294921875 c 0,17,18
 131.974609375 626.401511881 131.974609375 626.401511881 285.721679688 698.876953125 c 0,19,20
 376.830062096 741.759765625 376.830062096 741.759765625 498.431640625 741.759765625 c 128,-1,21
 620.03125 741.759765625 620.03125 741.759765625 710.889648438 698.8515625 c 0,22,23
 867.970703125 625.635742188 867.970703125 625.635742188 867.970703125 534.259765625 c 0,24,25
 867.970703125 513.911132812 867.970703125 513.911132812 812.974609375 464.624023437 c 128,-1,26
 757.994554777 415.351288237 757.994554777 415.351288237 594.659179688 323.495117188 c 1,27,28
 703.420235038 179.672173324 703.420235038 179.672173324 962.944335938 181.002929688 c 1,29,-1
 999.791015625 181.383789062 l 1,30,-1
 999.791015625 0.5283203125 l 1,31,-1
 938.036132812 0.5283203125 l 2,32,33
 937.196289062 0.5263671875 937.196289062 0.5263671875 936.358398438 0.5263671875 c 0,34,35
 664.332077344 0.5263671875 664.332077344 0.5263671875 492.249023438 173.095703125 c 1,7,8
EndSplineSet
EndChar

StartChar: uniFEDA
Encoding: 65242 65242 231
Width: 1934
VWidth: 2304
GlyphClass: 2
Flags: W
AnchorPoint: "Anchor-10" 612.984 1432.69 basechar 0
AnchorPoint: "Anchor-7" 825.24 -234.736 basechar 0
LayerCount: 2
Fore
SplineSet
1096.61328125 1249.84667969 m 1,0,-1
 1096.61328125 1192.44042969 l 1,1,2
 1022.44238281 1187.10351562 1022.44238281 1187.10351562 981.5703125 1172.04199219 c 0,3,4
 879.668945312 1133.83496094 879.668945312 1133.83496094 879.668945312 1084.26074219 c 0,5,6
 879.668945312 1046.5390625 879.668945312 1046.5390625 899.125 1021.52246094 c 0,7,8
 908.420898438 1009.12792969 908.420898438 1009.12792969 933.672851562 1000.34277344 c 128,-1,9
 958.924804688 991.557617188 958.924804688 991.557617188 1001.03125 985.365234375 c 0,10,11
 1053.58007812 977.635742188 1053.58007812 977.635742188 1080.19628906 953.327148438 c 0,12,13
 1106.41308594 929.3828125 1106.41308594 929.3828125 1106.41308594 886.522460938 c 0,14,15
 1106.41308594 852.346679688 1106.41308594 852.346679688 1095.9375 823.733398438 c 128,-1,16
 1085.46289062 795.120117188 1085.46289062 795.120117188 1064.39355469 771.870117188 c 128,-1,17
 1043.32519531 748.620117188 1043.32519531 748.620117188 1011.55566406 730.655273438 c 0,18,19
 975.087890625 710.03125 975.087890625 710.03125 931.853515625 699.465820312 c 128,-1,20
 888.620117188 688.900390625 888.620117188 688.900390625 838.639648438 688.4375 c 0,21,22
 774.580078125 688.4375 774.580078125 688.4375 718.516601562 697.912109375 c 1,23,-1
 718.516601562 762.181640625 l 1,24,25
 751.225585938 757.834960938 751.225585938 757.834960938 778.534179688 755.688476562 c 128,-1,26
 805.841796875 753.54296875 805.841796875 753.54296875 828.470703125 753.54296875 c 0,27,28
 907.229492188 753.54296875 907.229492188 753.54296875 957.939453125 773.508789062 c 0,29,30
 1046.1953125 807.40234375 1046.1953125 807.40234375 1046.1953125 863.923828125 c 0,31,32
 1046.1953125 926.760742188 1046.1953125 926.760742188 943.856445312 943.438476562 c 0,33,34
 883.45703125 952.641601562 883.45703125 952.641601562 850.689453125 986.159179688 c 0,35,36
 834.256835938 1002.96679688 834.256835938 1002.96679688 826.334960938 1026.46875 c 128,-1,37
 818.413085938 1049.97070312 818.413085938 1049.97070312 819.075195312 1080.43457031 c 0,38,39
 821.076171875 1161.36328125 821.076171875 1161.36328125 896.358398438 1199.51269531 c 0,40,41
 924.668945312 1213.8359375 924.668945312 1213.8359375 956.861328125 1224.30664062 c 128,-1,42
 989.0546875 1234.77734375 989.0546875 1234.77734375 1024.078125 1241.15917969 c 128,-1,43
 1059.1015625 1247.54101562 1059.1015625 1247.54101562 1096.61328125 1249.84667969 c 1,0,-1
1326.75976562 30.5595703125 m 0,44,45
 1149.81738281 -1.52734375 1149.81738281 -1.52734375 953.08984375 2.111328125 c 0,46,47
 609.29296875 8.4814453125 609.29296875 8.4814453125 473.610351562 46.31640625 c 0,48,49
 128.700195312 142.497070312 128.700195312 142.497070312 92.1298828125 479.012695312 c 0,50,51
 79.169921875 601.362304688 79.169921875 601.362304688 128.763671875 740.1171875 c 1,52,-1
 293.521484375 707.708984375 l 1,53,54
 262.5078125 546.161132812 262.5078125 546.161132812 268.991210938 500.208984375 c 0,55,56
 301.416992188 270.40234375 301.416992188 270.40234375 581.469726562 206.46875 c 0,57,58
 625.916015625 196.322265625 625.916015625 196.322265625 690.459960938 190.186523438 c 128,-1,59
 755.00390625 184.05078125 755.00390625 184.05078125 839.813476562 181.884765625 c 0,60,61
 1056.64160156 175.528320312 1056.64160156 175.528320312 1185.34765625 188.893554688 c 0,62,63
 1525.30175781 224.1953125 1525.30175781 224.1953125 1541.60253906 414.90625 c 2,64,-1
 1545.66210938 462.384765625 l 1,65,-1
 1545.66210938 1471.4140625 l 1,66,-1
 1718.10058594 1471.4140625 l 1,67,-1
 1718.10058594 430.875976562 l 2,68,69
 1718.10058594 411.064453125 1718.10058594 411.064453125 1715.30273438 373.288085938 c 0,70,71
 1713.390625 347.470703125 1713.390625 347.470703125 1707.62695312 320.69921875 c 128,-1,72
 1701.86328125 293.927734375 1701.86328125 293.927734375 1692.23828125 266.197265625 c 2,73,-1
 1691.54589844 264.201171875 l 1,74,-1
 1692.80371094 262.50390625 l 2,75,76
 1752.90722656 181.424804688 1752.90722656 181.424804688 1887.54394531 181.424804688 c 2,77,-1
 1954.56054688 181.424804688 l 1,78,-1
 1954.56054688 0.5283203125 l 1,79,-1
 1825.3984375 0.5283203125 l 2,80,81
 1716.79296875 0.5283203125 1716.79296875 0.5283203125 1578.16894531 114.112304688 c 2,82,-1
 1575.97363281 115.911132812 l 1,83,-1
 1573.55175781 114.43359375 l 2,84,85
 1482.24121094 58.7548828125 1482.24121094 58.7548828125 1326.75976562 30.5595703125 c 0,44,45
EndSplineSet
EndChar

StartChar: uniFEDB
Encoding: 65243 65243 232
Width: 898
VWidth: 2304
GlyphClass: 2
Flags: W
AnchorPoint: "Anchor-10" 224.288 1445.89 basechar 0
AnchorPoint: "Anchor-7" 324.08 -241.6 basechar 0
LayerCount: 2
Fore
SplineSet
664 153 m 4,0,1
 567 0 567 0 312.147460938 0 c 2,2,-1
 -15.54296875 0 l 1,3,-1
 -15.54296875 181.002929688 l 1,4,-1
 268.51953125 181.028320312 l 2,5,6
 581 181 581 181 552.956054688 352.514648438 c 0,7,8
 523 531 523 531 99.931640625 778.69140625 c 0,9,10
 19 826 19 826 18.9013671875 940.968261719 c 128,-1,11
 18.999780934 1055.74451155 18.999780934 1055.74451155 135.26171875 1112.23730469 c 2,12,-1
 867.3515625 1467.96679688 l 1,13,-1
 867.3515625 1290.29785156 l 1,14,-1
 172.022460938 955.54296875 l 1,15,16
 498 720 498 720 563.381835938 647.25 c 0,17,18
 808 381 808 381 664 153 c 4,0,1
EndSplineSet
EndChar

StartChar: uniFEDC
Encoding: 65244 65244 233
Width: 948
VWidth: 2304
GlyphClass: 2
Flags: W
AnchorPoint: "Anchor-10" 232.736 1416.32 basechar 0
AnchorPoint: "Anchor-7" 340.976 -311.296 basechar 0
LayerCount: 2
Fore
SplineSet
660.58984375 141.748046875 m 5,0,1
 550.213867188 0 550.213867188 0 312.147460938 0 c 6,2,-1
 -15.54296875 0 l 5,3,-1
 -15.54296875 181.002929688 l 5,4,-1
 268.51953125 181.028320312 l 6,5,6
 580.092773438 181.0234375 580.092773438 181.0234375 552.95703125 352.5078125 c 4,7,8
 523.34765625 536.513671875 523.34765625 536.513671875 99.931640625 778.69140625 c 4,9,10
 19.1396484375 826.354492188 19.1396484375 826.354492188 18.9013671875 940.96875 c 132,-1,11
 18.6630859375 1055.58203125 18.6630859375 1055.58203125 135.26171875 1112.23730469 c 6,12,-1
 867.3515625 1467.96679688 l 5,13,-1
 867.3515625 1290.29785156 l 5,14,-1
 172.022460938 955.54296875 l 5,15,16
 497.69921875 719.586914062 497.69921875 719.586914062 563.379882812 647.252929688 c 4,17,18
 675.345703125 525.122070312 675.345703125 525.122070312 728.913085938 353.2734375 c 132,-1,19
 782.481445312 181.424804688 782.481445312 181.424804688 931.010742188 181.424804688 c 6,20,-1
 966.115234375 181.424804688 l 5,21,-1
 966.115234375 0.5283203125 l 5,22,-1
 938.69921875 0.5283203125 l 6,23,24
 733.083007812 0.005859375 733.083007812 0.005859375 660.58984375 141.748046875 c 5,0,1
EndSplineSet
EndChar

StartChar: uniFEDE
Encoding: 65246 65246 235
Width: 1429
VWidth: 2304
GlyphClass: 2
Flags: W
AnchorPoint: "Anchor-10" 468.84 931.088 basechar 0
AnchorPoint: "Anchor-7" 377.855 -736.125 basechar 0
LayerCount: 2
Fore
SplineSet
1405.88867188 0.5283203125 m 2,0,1
 1259.46790696 0.5283203125 1259.46790696 0.5283203125 1186.57226562 74.01171875 c 1,2,3
 1182 -197 1182 -197 1042.47753906 -348.181640625 c 0,4,5
 902 -500 902 -500 643.2890625 -499.48828125 c 0,6,7
 396 -499 396 -499 243.493652344 -366.471191406 c 0,8,9
 91 -233 91 -233 91.6884765625 23.939453125 c 0,10,11
 92 159 92 159 138.396484375 281.396484375 c 1,12,-1
 293.127929688 249.112304688 l 5,13,14
 255 116 255 116 255.044921875 33.8525390625 c 4,15,16
 256 -148 256 -148 360.993164062 -246.53515625 c 4,17,18
 450 -330 450 -330 657.565429688 -329.544921875 c 0,19,20
 1019.59795268 -328.001713776 1019.59795268 -328.001713776 1019.140625 31.7578125 c 2,21,-1
 1018.68652344 388.979492188 l 1,22,-1
 1018.68652344 1470.27636719 l 1,23,-1
 1185.85546875 1470.27636719 l 1,24,-1
 1185.85546875 424.0078125 l 2,25,26
 1185.99974734 181.424804688 1185.99974734 181.424804688 1390.95996094 181.424804688 c 2,27,-1
 1434.74414062 181.424804688 l 1,28,-1
 1434.74414062 0.5283203125 l 1,29,-1
 1405.88867188 0.5283203125 l 2,0,1
EndSplineSet
EndChar

StartChar: uniFEDF
Encoding: 65247 65247 236
Width: 533
VWidth: 2304
GlyphClass: 2
Flags: W
AnchorPoint: "Anchor-10" 305.403 1591.67 basechar 0
AnchorPoint: "Anchor-7" 243.099 -259.024 basechar 0
LayerCount: 2
Fore
SplineSet
407.467773438 462.424804688 m 2,0,1
 407.467773438 228.516714363 407.467773438 228.516714363 301.32421875 113.986816406 c 0,2,3
 195 0 195 0 56.1552734375 0 c 2,4,-1
 -15.982421875 0 l 1,5,-1
 -15.982421875 181.002929688 l 1,6,-1
 4.5703125 181.002929688 l 2,7,8
 112 181 112 181 175.75 260.658691406 c 0,9,10
 239.2421875 340.303801947 239.2421875 340.303801947 239.2421875 475.983398438 c 2,11,-1
 239.2421875 1470.48730469 l 5,12,-1
 407.467773438 1470.48730469 l 5,13,-1
 407.467773438 462.424804688 l 2,0,1
EndSplineSet
EndChar

StartChar: uniFEE0
Encoding: 65248 65248 237
Width: 686
VWidth: 2304
GlyphClass: 2
Flags: W
AnchorPoint: "Anchor-10" 353.467 1588.45 basechar 0
AnchorPoint: "Anchor-7" 257.379 -256.912 basechar 0
LayerCount: 2
Fore
SplineSet
602.72265625 0 m 2,0,1
 468 0 468 0 362.802734375 114.80859375 c 5,2,3
 260 0 260 0 85.2197265625 0 c 2,4,-1
 -12.2626953125 0 l 1,5,-1
 -12.2626953125 181.002929688 l 1,6,-1
 23.07421875 181.002929688 l 2,7,8
 278.858398438 181.000001621 278.858398438 181.000001621 278.858398438 424.0078125 c 6,9,-1
 278.858398438 1470.35742188 l 5,10,-1
 447.083984375 1470.35742188 l 5,11,-1
 447.083984375 424.013671875 l 6,12,13
 447.000001012 181.002929688 447.000001012 181.002929688 664.868164062 181.002929688 c 2,14,-1
 700.204101562 181.002929688 l 1,15,-1
 700.204101562 0 l 1,16,-1
 602.72265625 0 l 2,0,1
EndSplineSet
EndChar

StartChar: uniFEE2
Encoding: 65250 65250 239
Width: 1102
VWidth: 2304
GlyphClass: 2
Flags: W
AnchorPoint: "Anchor-10" 551.208 1122.75 basechar 0
AnchorPoint: "Anchor-7" 170.719 -576.798 basechar 0
LayerCount: 2
Fore
SplineSet
453.751953125 232.65625 m 1,0,1
 665.518718102 174.908056599 665.518718102 174.908056599 726.072265625 176.80078125 c 0,2,3
 817.72265625 179.009765625 817.72265625 179.009765625 815.904296875 251.864257812 c 0,4,5
 814.4296875 298.9296875 814.4296875 298.9296875 782.415039062 370.428710938 c 0,6,7
 710.551757812 524.8828125 710.551757812 524.8828125 600.244140625 522.71875 c 0,8,9
 536.085871314 521.63251807 536.085871314 521.63251807 494.918423938 471.256688723 c 128,-1,10
 453.750976562 420.880859375 453.750976562 420.880859375 453.799804688 306.748046875 c 0,11,12
 453.751953125 271.619140625 453.751953125 271.619140625 453.751953125 235.711914062 c 2,13,-1
 453.751953125 232.65625 l 1,0,1
1090.29589844 0 m 2,14,15
 998.898914444 0 998.898914444 0 920.919921875 71.091796875 c 1,16,17
 839.701074001 -1.93741017658 839.701074001 -1.93741017658 662.102539062 23.1953125 c 0,18,19
 585.152083484 33.737274567 585.152083484 33.737274567 448.049804688 63.185546875 c 0,20,21
 343.669921875 86.1025390625 343.669921875 86.1025390625 289.450195312 -19.0830078125 c 0,22,23
 258.391601562 -80.129276103 258.391601562 -80.129276103 258.391601562 -227.872070312 c 2,24,-1
 258.391601562 -539.616210938 l 1,25,-1
 91.095703125 -539.616210938 l 1,26,-1
 91.095703125 -213.087890625 l 2,27,28
 91.095703125 181.650075163 91.095703125 181.650075163 293.54296875 215.401367188 c 1,29,30
 293.848930194 229.425978255 293.848930194 229.425978255 293.439453125 240.142578125 c 0,31,32
 283.357421875 502.201171875 283.357421875 502.201171875 424.5234375 627.682617188 c 0,33,34
 486.739257812 683.676757812 486.739257812 683.676757812 594.924804688 683.463867188 c 0,35,36
 848.59375 683.676757812 848.59375 683.676757812 952.146484375 308.1953125 c 0,37,38
 963.890963789 265.465460412 963.890963789 265.465460412 968.4453125 232.1640625 c 1,39,40
 1002.54508736 179.967773438 1002.54508736 179.967773438 1074.45605469 179.967773438 c 2,41,-1
 1109.52832031 179.967773438 l 1,42,-1
 1109.52832031 0 l 1,43,-1
 1090.29589844 0 l 2,14,15
EndSplineSet
EndChar

StartChar: uniFEE3
Encoding: 65251 65251 240
Width: 865
VWidth: 2304
GlyphClass: 2
Flags: W
AnchorPoint: "Anchor-10" 356.049 963.824 basechar 0
AnchorPoint: "Anchor-7" 362.385 -221.008 basechar 0
LayerCount: 2
Fore
SplineSet
210.536132812 96.9130859375 m 1,0,1
 144.125165501 1.42108547152e-14 144.125165501 1.42108547152e-14 -1.62890625 0 c 2,2,-1
 -13.87109375 0 l 1,3,-1
 -13.87109375 181.001953125 l 1,4,-1
 14.19140625 181.000976562 l 2,5,6
 75.7353515625 181.025390625 75.7353515625 181.025390625 104.883789062 234.090820312 c 1,7,-1
 105.166015625 234.733398438 l 1,8,9
 265.120117188 706.912109375 265.120117188 706.912109375 488.904296875 706.912109375 c 0,10,11
 751.753264976 706.912109375 751.753264976 706.912109375 773.106445312 310.344726562 c 0,12,13
 773.71875 298.981445312 773.71875 298.981445312 773.62890625 288.412109375 c 0,14,15
 773.71875 160.163085938 773.71875 160.163085938 703.545163461 82.192815437 c 128,-1,16
 633.371576922 4.22254493593 633.371576922 4.22254493593 523.625 4.17578125 c 0,17,18
 316.654839755 4.22364171991 316.654839755 4.22364171991 210.536132812 96.9130859375 c 1,0,1
272.4765625 229.456054688 m 1,19,20
 411 160 411 160 508.263743709 158.294891922 c 0,21,22
 605 157 605 157 609.794921875 305.40234375 c 0,23,24
 611 352 611 352 602 401 c 0,25,26
 576 533 576 533 495.240234375 533.280273438 c 0,27,28
 366 533 366 533 272.4765625 229.456054688 c 1,19,20
EndSplineSet
EndChar

StartChar: uniFEE4
Encoding: 65252 65252 241
Width: 964
VWidth: 2304
GlyphClass: 2
Flags: W
AnchorPoint: "Anchor-10" 505.05 1050.42 basechar 0
AnchorPoint: "Anchor-7" 486.042 -241.072 basechar 0
LayerCount: 2
Fore
SplineSet
272.4765625 229.456054688 m 1,0,1
 411 160 411 160 508.263743709 158.294891922 c 0,2,3
 606 157 606 157 609.794921875 305.40234375 c 0,4,5
 611 350 611 350 601 401 c 4,6,7
 574 533 574 533 495.240234375 533.280273438 c 0,8,9
 366 533 366 533 272.4765625 229.456054688 c 1,0,1
724.330078125 109.081054688 m 1,10,11
 648.265787227 4.2288914498 648.265787227 4.2288914498 523.625 4.17578125 c 0,12,13
 316.654839755 4.22364171991 316.654839755 4.22364171991 210.536132812 96.9130859375 c 1,14,15
 144.125165501 1.42108547152e-14 144.125165501 1.42108547152e-14 -1.62890625 0 c 2,16,-1
 -13.87109375 0 l 1,17,-1
 -13.87109375 181.001953125 l 1,18,-1
 14.1904296875 181.000976562 l 2,19,20
 87.6953125 181.0234375 87.6953125 181.0234375 105.181640625 234.77734375 c 0,21,22
 258.959960938 706.912109375 258.959960938 706.912109375 495.240234375 706.912109375 c 0,23,24
 725.619140625 706.912109375 725.619140625 706.912109375 766.357421875 386.220703125 c 0,25,26
 792.131835938 181.119140625 792.131835938 181.119140625 961.759765625 181.119140625 c 2,27,-1
 971.381835938 181.119140625 l 1,28,-1
 971.381835938 0.13671875 l 1,29,30
 821.696875101 -3.0924090771 821.696875101 -3.0924090771 724.330078125 109.081054688 c 1,10,11
EndSplineSet
EndChar

StartChar: uniFEEA
Encoding: 65258 65258 247
Width: 1031
VWidth: 2304
GlyphClass: 2
Flags: W
AnchorPoint: "Anchor-10" 636.547 1044.18 basechar 0
AnchorPoint: "Anchor-7" 366.81 -241.6 basechar 0
LayerCount: 2
Fore
SplineSet
654.135742188 320.892578125 m 1,0,-1
 638.924804688 608.811523438 l 1,1,2
 262.84146624 557.081954754 262.84146624 557.081954754 255.233398438 442.965820312 c 0,3,4
 243.282011992 271.386919508 243.282011992 271.386919508 654.135742188 320.892578125 c 1,0,-1
1007.78320312 0 m 2,5,6
 758 0 758 0 691.30859375 177.786132812 c 1,7,8
 96 100 96 100 90.57421875 411.521484375 c 0,9,10
 85 691 85 691 640.047851562 753.939453125 c 1,11,12
 638.16796875 833.560546875 l 1,13,-1
 785.428710938 841.590820312 l 1,14,-1
 793.78515625 442.606445312 l 2,15,16
 798.996191298 181.191066323 798.996191298 181.191066323 1018.80175781 181.024414062 c 2,17,-1
 1043.27441406 181.005859375 l 1,18,-1
 1043.27441406 0 l 1,19,-1
 1007.78320312 0 l 2,5,6
EndSplineSet
EndChar

StartChar: uniFEEB
Encoding: 65259 65259 248
Width: 1208
VWidth: 2304
GlyphClass: 2
Flags: W
AnchorPoint: "Anchor-10" 434.31 1322.58 basechar 0
AnchorPoint: "Anchor-7" 383.349 -245.767 basechar 0
LayerCount: 2
Fore
SplineSet
337.396484375 221.293945312 m 1,0,1
 450 263 450 263 506.684570312 314.579101562 c 0,2,3
 602 399 602 399 601.946571647 474.235059551 c 0,4,5
 602 516 602 516 564.507303506 564.907851006 c 0,6,7
 526 614 526 614 468.928792055 613.394052292 c 0,8,9
 442 613 442 613 413.081054687 601.368164063 c 0,10,11
 337.120945474 570.057281926 337.120945474 570.057281926 285.5234375 489.296875 c 0,12,13
 248 430 248 430 249.448242188 368.268554688 c 0,14,15
 251.317665075 275.539444432 251.317665075 275.539444432 337.396484375 221.293945312 c 1,0,1
742.275623208 479.458916647 m 0,16,17
 742.275623208 311.075333557 742.275623208 311.075333557 537.171875 184.213867188 c 1,18,19
 675.491031907 150.962260336 675.491031907 150.962260336 769.406575637 150.962260336 c 0,20,21
 943.488242549 150.962260336 943.488242549 150.962260336 965.006835938 265.208984375 c 0,22,23
 966.951838365 275.52861484 966.951838365 275.52861484 966.951838365 286.474377754 c 0,24,25
 966.951838365 404.942227228 966.951838365 404.942227228 739.112304688 596.755859375 c 0,26,27
 719.043317155 613.65503211 719.043317155 613.65503211 676.262695312 648.854492188 c 1,28,29
 742.275623208 568.431328444 742.275623208 568.431328444 742.275623208 479.458916647 c 0,16,17
375.396484375 84.9609375 m 1,30,31
 190 0 190 0 -0.9423828125 0 c 2,32,-1
 -15.982421875 0 l 1,33,-1
 -15.982421875 181.873046875 l 5,34,35
 177.849609375 181.009765625 l 1,36,37
 111 262 111 262 111.145733913 380.670722732 c 0,38,39
 111 501 111 501 182.187124769 592.225532532 c 0,40,41
 253 683 253 683 361.794921875 722.932128906 c 0,42,43
 408 740 408 740 467.875201932 739.736954501 c 0,44,45
 528 740 528 740 606.333007812 708.629882812 c 1,46,47
 539 761 539 761 504.11328125 782.208984375 c 1,48,-1
 599.302734375 905.982421875 l 1,49,50
 710 832 710 832 894.777314859 655.925289917 c 0,51,52
 1078 482 1078 482 1107.40234375 350.305664062 c 0,53,54
 1117 307 1117 307 1116.71022478 268.969577878 c 0,55,56
 1111 80 1111 80 897 14 c 0,57,58
 839 -4 839 -4 721.329137867 4.0884842191 c 0,59,60
 523 17 523 17 375.396484375 84.9609375 c 1,30,31
EndSplineSet
EndChar

StartChar: uniFEEC
Encoding: 65260 65260 249
Width: 1043
VWidth: 2304
GlyphClass: 2
Flags: W
AnchorPoint: "Anchor-7" 386.369 -635.488 basechar 0
AnchorPoint: "Anchor-10" 446.435 1053.24 basechar 0
LayerCount: 2
Fore
SplineSet
350.813095727 340.433478397 m 0,0,1
 349 210 349 210 353.173828125 180.93359375 c 1,2,-1
 418.619140625 181.780273438 l 2,3,4
 488 183 488 183 543.74609375 265.350097656 c 0,5,6
 600 348 600 348 600.639648438 475.879882812 c 4,7,8
 601 550 601 550 570.116210938 595.720703125 c 4,9,10
 540 642 540 642 491.9765625 640.333984375 c 4,11,12
 355 637 355 637 350.813095727 340.433478397 c 0,0,1
201.389648438 181.064453125 m 1,13,14
 191 475 191 475 238.59765625 608.000976562 c 4,15,16
 304 790 304 790 502.702148438 793.970703125 c 4,17,18
 607 796 607 796 676.086914062 712.861328125 c 4,19,20
 745 630 745 630 744.704101562 481.16015625 c 4,21,22
 744 213 744 213 585.53125 75.6875 c 0,23,24
 507 7 507 7 368.869140625 -0.314453125 c 1,25,-1
 368.8671875 -4.0986328125 l 2,26,27
 369 -218 369 -218 435.7734375 -296.094726562 c 1,28,29
 533 -120 533 -120 625.840820312 -30.087890625 c 0,30,31
 844.70437635 184.709868109 844.70437635 184.709868109 1020.05566406 182.057617188 c 2,32,-1
 1057.95507812 181.484375 l 1,33,-1
 1057.95507812 0.4365234375 l 1,34,35
 866 -4 866 -4 745.708238151 -118.59265443 c 0,36,37
 626 -233 626 -233 458.513671875 -535.62109375 c 1,38,39
 320 -489 320 -489 244.546875 -270.913085938 c 0,40,41
 217 -192 217 -192 203.486328125 -0 c 1,42,-1
 -14.939453125 0 l 1,43,-1
 -14.939453125 181.002929688 l 1,44,-1
 201.389648438 181.064453125 l 1,13,14
EndSplineSet
EndChar

StartChar: uniFEEE
Encoding: 65262 65262 251
Width: 842
VWidth: 2304
GlyphClass: 2
Flags: W
AnchorPoint: "Anchor-10" 409.12 1119.58 basechar 0
AnchorPoint: "Anchor-7" 429.728 -706.491 basechar 0
LayerCount: 2
Fore
SplineSet
565.787109375 174.567382812 m 2,0,1
 564.605553371 520.130587934 564.605553371 520.130587934 411.24159054 520.130587934 c 0,2,3
 351.802420222 520.130587934 351.802420222 520.130587934 302.955897611 452.493028342 c 128,-1,4
 254.109375 384.85546875 254.109375 384.85546875 254.287109375 300.985351562 c 0,5,6
 254.106985249 170.485422622 254.106985249 170.485422622 428.438476562 169.540039062 c 0,7,8
 437.583941578 169.530442338 437.583941578 169.530442338 496.263400554 169.530442338 c 128,-1,9
 554.942859531 169.530442338 554.942859531 169.530442338 565.798828125 171.087890625 c 1,10,-1
 565.787109375 174.567382812 l 2,0,1
730.170898438 180.461914062 m 1,11,-1
 860.665039062 181.389648438 l 1,12,-1
 860.665039062 0.5283203125 l 1,13,-1
 725.594726562 0.5283203125 l 1,14,15
 682 -206 682 -206 546.253270604 -325.384913586 c 0,16,17
 410 -445 410 -445 100.931640625 -481.22265625 c 1,18,-1
 70.8408203125 -315.7109375 l 1,19,20
 453 -277 453 -277 552.544921875 0.8671875 c 1,21,22
 535 -0 535 -0 500.114873239 -0.161242540265 c 0,23,24
 465 -0 465 -0 395.544921875 3.5126953125 c 0,25,26
 212 14 212 14 152.998535156 97.2036132812 c 0,27,28
 96 177 96 177 96.2353515625 278.383789062 c 0,29,30
 96 386 96 386 140.984379847 484.127222672 c 0,31,32
 246 712 246 712 404.457519531 712.19921875 c 0,33,34
 563 712 563 712 669.622070312 514.74609375 c 0,35,36
 726 410 726 410 730.170898438 180.461914062 c 1,11,-1
EndSplineSet
EndChar

StartChar: uniFEF0
Encoding: 65264 65264 253
Width: 1426
VWidth: 2304
GlyphClass: 2
Flags: W
AnchorPoint: "Anchor-10" 594.747 582.413 basechar 0
AnchorPoint: "Anchor-7" 378.488 -708.226 basechar 0
LayerCount: 2
Fore
SplineSet
266.942382812 17.4970703125 m 0,0,1
 267 -321 267 -321 685.23046875 -320.797851562 c 0,2,3
 926 -321 926 -321 1066.5 -240.5 c 128,-1,4
 1207 -160 1207 -160 1206.96972656 -84.150390625 c 0,5,6
 1207.00030279 -37.5384116361 1207.00030279 -37.5384116361 1146.34960938 0.5205078125 c 1,7,-1
 928.60546875 0.728515625 l 1,8,9
 875 7 875 7 853.5 90 c 128,-1,10
 832 173 832 173 866.508789062 181.004882812 c 1,11,-1
 1443.55566406 181.421875 l 1,12,-1
 1443.55566406 0.529296875 l 1,13,-1
 1296.27050781 0.5751953125 l 1,14,15
 1360.00011188 -40.1083186107 1360.00011188 -40.1083186107 1360.078125 -115.639648438 c 4,16,17
 1360 -284 1360 -284 1114.46484375 -400.681640625 c 0,18,19
 939 -484 939 -484 677.594726562 -486.397460938 c 0,20,21
 613 -487 613 -487 543.352539062 -479.969726562 c 0,22,23
 90 -439 90 -439 90.1865234375 8.962890625 c 0,24,25
 90 166 90 166 163.99609375 357.614257812 c 1,26,-1
 325.118164062 318.17578125 l 1,27,28
 267 142 267 142 266.942382812 17.4970703125 c 0,0,1
EndSplineSet
EndChar

StartChar: uniFEFB
Encoding: 65275 65275 264
Width: 1162
VWidth: 2304
GlyphClass: 3
Flags: W
AnchorPoint: "Anchor-9" 954.297 1581.01 baselig 0
AnchorPoint: "Anchor-6" 870.32 -176.656 baselig 0
AnchorPoint: "Anchor-6" 196.92 -233.152 baselig 1
AnchorPoint: "Anchor-9" 172.944 1436.48 baselig 1
LayerCount: 2
Fore
SplineSet
427.959960938 175.555664062 m 2,0,1
 422.692382812 762.369140625 422.692382812 762.369140625 109.08203125 1275.07714844 c 1,2,-1
 256.715820312 1338.47949219 l 1,3,4
 555.275390625 898.458984375 555.275390625 898.458984375 584.700195312 200.6953125 c 2,5,-1
 584.911132812 195.676757812 l 1,6,-1
 589.755859375 197.006835938 l 2,7,8
 850.235351562 268.532226562 850.235351562 268.532226562 861.02734375 527.508789062 c 0,9,10
 869.370117188 711.912109375 869.370117188 711.912109375 869.31640625 974.275390625 c 2,11,-1
 869.62890625 1470.35742188 l 1,12,-1
 1036.80078125 1470.35742188 l 1,13,-1
 1036.6953125 933.602539062 l 2,14,15
 1036.61132812 504.163085938 1036.61132812 504.163085938 1012.37304688 398.706054688 c 0,16,17
 956.92578125 158.154296875 956.92578125 158.154296875 776.380859375 64.408203125 c 0,18,19
 631.096679688 -11.5703125 631.096679688 -11.5703125 297.322265625 3.912109375 c 0,20,21
 153.561523438 10.376953125 153.561523438 10.376953125 91.5556640625 29.037109375 c 1,22,-1
 93.5361328125 195.846679688 l 1,23,24
 291.681640625 150.639648438 291.681640625 150.639648438 424.58203125 171.568359375 c 2,25,-1
 427.991210938 172.10546875 l 1,26,-1
 427.959960938 175.555664062 l 2,0,1
EndSplineSet
LCarets2: 1 0
Ligature2: "'rlig' Required Ligatures in Arabic lookup 16 subtable" uniFEDF uniFE8E
EndChar

StartChar: uniFEFC
Encoding: 65276 65276 265
Width: 1318
VWidth: 2304
GlyphClass: 3
Flags: W
AnchorPoint: "Anchor-9" 945.249 1573.66 baselig 0
AnchorPoint: "Anchor-6" 823.809 -200.944 baselig 0
AnchorPoint: "Anchor-6" 152.52 -257.44 baselig 1
AnchorPoint: "Anchor-9" 139.894 1441.15 baselig 1
LayerCount: 2
Fore
SplineSet
777.7109375 161.361328125 m 4,0,1
 633.329101562 1.052734375 633.329101562 1.052734375 325.681640625 0.5283203125 c 4,2,3
 151.879882812 0.01953125 151.879882812 0.01953125 102.748046875 9.8076171875 c 5,4,-1
 102.748046875 190.859375 l 5,5,6
 289.352539062 159.143554688 289.352539062 159.143554688 404.833984375 188.540039062 c 6,7,-1
 407.875976562 189.313476562 l 5,8,-1
 407.84765625 192.453125 l 6,9,10
 402.581054688 765.559570312 402.581054688 765.559570312 91.0810546875 1275.07617188 c 5,11,-1
 238.708984375 1338.4765625 l 5,12,13
 533.057617188 902.719726562 533.057617188 902.719726562 562.475585938 236.590820312 c 6,14,-1
 562.70703125 231.345703125 l 5,15,-1
 567.703125 232.961914062 l 6,16,17
 749.151367188 291.666015625 749.151367188 291.666015625 817.374023438 497.40234375 c 4,18,19
 854.434570312 609.640625 854.434570312 609.640625 854.588867188 974.27734375 c 6,20,-1
 854.797851562 1470.51660156 l 5,21,-1
 1021.96875 1470.51660156 l 5,22,-1
 1021.96875 669.203125 l 6,23,24
 1021.90039062 578.356445312 1021.90039062 578.356445312 1031.79492188 503.884765625 c 132,-1,25
 1041.69042969 429.413085938 1041.69042969 429.413085938 1061.60351562 371.237304688 c 4,26,27
 1093.796875 276.815429688 1093.796875 276.815429688 1146.86035156 229.120117188 c 132,-1,28
 1199.92382812 181.424804688 1199.92382812 181.424804688 1273.55859375 181.424804688 c 6,29,-1
 1341.73730469 181.424804688 l 5,30,-1
 1341.73730469 0.5283203125 l 5,31,-1
 1274.94628906 0.5283203125 l 6,32,33
 967.125 0.005859375 967.125 0.005859375 926.321289062 383.974609375 c 6,34,-1
 924.565429688 400.498046875 l 5,35,-1
 918.609375 384.985351562 l 6,36,37
 911.08984375 365.3984375 911.08984375 365.3984375 902.166015625 346.133789062 c 132,-1,38
 893.2421875 326.868164062 893.2421875 326.868164062 882.91015625 307.916015625 c 132,-1,39
 872.579101562 288.963867188 872.579101562 288.963867188 860.838867188 270.329101562 c 132,-1,40
 849.099609375 251.694335938 849.099609375 251.694335938 835.951171875 233.375976562 c 132,-1,41
 822.803710938 215.057617188 822.803710938 215.057617188 808.2421875 197.052734375 c 132,-1,42
 793.681640625 179.047851562 793.681640625 179.047851562 777.7109375 161.361328125 c 4,0,1
EndSplineSet
LCarets2: 1 0
Ligature2: "'rlig' Required Ligatures in Arabic lookup 16 subtable" uniFEE0 uniFE8E
EndChar

StartChar: arabic_dot
Encoding: 65536 -1 266
Width: 158
VWidth: 2162
GlyphClass: 2
Flags: W
LayerCount: 2
Fore
SplineSet
124.6657135 163.52899475 m 6,0,-1
 155.289765347 132.904942904 l 6,1,2
 201.075539216 87.1200887784 201.075539216 87.1200887784 154.0250885 40.0696380622 c 6,3,-1
 123.401094103 9.44564366478 l 6,4,5
 78.67190404 -35.2826279155 78.67190404 -35.2826279155 36.0549896247 7.33428649975 c 6,6,-1
 4.37530212475 39.0139739997 l 6,7,8
 -43.730841063 87.1201171875 -43.730841063 87.1201171875 3.10967712475 133.960635375 c 6,9,-1
 32.6780364997 163.52899475 l 6,10,11
 56.0911064231 186.94201499 56.0911064231 186.94201499 78.6719242345 186.941990597 c 132,-1,12
 101.252742046 186.941966205 101.252742046 186.941966205 124.6657135 163.52899475 c 6,0,-1
EndSplineSet
EndChar

StartChar: arabic_2dots
Encoding: 65537 -1 267
Width: 422
VWidth: 2162
GlyphClass: 2
Flags: W
LayerCount: 2
Fore
SplineSet
388.6657135 163.52899475 m 2,0,-1
 419.289736938 132.904971313 l 2,1,2
 465.074618752 87.1200894988 465.074618752 87.1200894988 418.0250885 40.0696380622 c 2,3,-1
 387.401094103 9.44564366478 l 2,4,5
 372.14648823 -5.80864896539 372.14648823 -5.80864896539 357.595280347 -11.0559991478 c 128,-1,6
 343.044072463 -16.3033493302 343.044072463 -16.3033493302 328.788880479 -11.7238808501 c 128,-1,7
 314.533688494 -7.14441236997 314.533688494 -7.14441236997 300.054989625 7.33428649975 c 2,8,-1
 268.375302125 39.0139739997 l 2,9,10
 220.269158937 87.1201171875 220.269158937 87.1201171875 267.109677125 133.960635375 c 2,11,-1
 296.6780365 163.52899475 l 2,12,13
 342.671875 209.522833251 342.671875 209.522833251 388.6657135 163.52899475 c 2,0,-1
124.669797591 163.524910663 m 2,14,-1
 155.281566936 132.913164983 l 2,15,16
 200.942163706 86.9876344571 200.942163706 86.9876344571 154.0250885 40.0696380622 c 2,17,-1
 123.409470091 9.45399475058 l 2,18,19
 78.5396301627 -35.1503540382 78.5396301627 -35.1503540382 36.0549896247 7.33428649975 c 2,20,-1
 4.35371897508 39.0353936954 l 2,21,22
 -44.0960040519 86.7540332379 -44.0960040519 86.7540332379 3.10967712475 133.960635375 c 2,23,-1
 32.7003876287 163.551523917 l 2,24,25
 78.1742395214 209.752729395 78.1742395214 209.752729395 124.669797591 163.524910663 c 2,14,-1
EndSplineSet
EndChar

StartChar: arabic_3dots
Encoding: 65538 -1 268
Width: 422
VWidth: 2162
GlyphClass: 2
Flags: W
LayerCount: 2
Fore
SplineSet
254.424516705 378.671558733 m 2,0,-1
 285.048497591 348.047577847 l 2,1,2
 330.832459661 302.262696033 330.832459661 302.262696033 283.782901 255.212216187 c 2,3,-1
 253.158906603 224.58822179 l 2,4,5
 208.429746929 179.859980598 208.429746929 179.859980598 165.813735093 222.476908218 c 2,6,-1
 134.133114625 254.156552125 l 2,7,8
 86.0269992413 302.262667508 86.0269992413 302.262667508 132.868512895 349.103260209 c 2,9,-1
 162.435849 378.671572875 l 2,10,11
 208.429715787 424.665439663 208.429715787 424.665439663 254.424516705 378.671558733 c 2,0,-1
389.027041625 147.689151 m 2,12,-1
 419.651065063 117.065127563 l 2,13,14
 465.435919188 71.2802734375 465.435919188 71.2802734375 418.385440063 24.2297943122 c 2,15,-1
 387.761416625 -6.39422912525 l 2,16,17
 343.033203125 -51.1224426255 343.033203125 -51.1224426255 300.41631775 -8.50555725025 c 2,18,-1
 268.73663025 23.1741302497 l 2,19,20
 220.630487062 71.2802734375 220.630487062 71.2802734375 267.47100525 118.120791625 c 2,21,-1
 297.039364625 147.689151 l 2,22,23
 343.033203125 193.682989501 343.033203125 193.682989501 389.027041625 147.689151 c 2,12,-1
125.031125716 147.685066913 m 2,24,-1
 155.642895061 117.073321233 l 2,25,26
 201.303464224 71.1478184739 201.303464224 71.1478184739 154.385440063 24.2297943122 c 2,27,-1
 123.769763402 -6.38590690729 l 2,28,29
 78.9009308626 -50.9910861377 78.9009308626 -50.9910861377 36.4163177497 -8.50555725025 c 2,30,-1
 4.71501998932 23.1955766468 l 2,31,32
 -43.7355973641 70.9141890114 -43.7355973641 70.9141890114 3.47100524975 118.120791625 c 2,33,-1
 33.0617157537 147.711680167 l 2,34,35
 78.5355676464 193.912885645 78.5355676464 193.912885645 125.031125716 147.685066913 c 2,24,-1
EndSplineSet
EndChar

StartChar: arabic_3dots_a
Encoding: 65539 -1 269
Width: 422
VWidth: 2162
GlyphClass: 2
Flags: W
LayerCount: 2
Fore
SplineSet
254.424516706 -207.03386342 m 2,0,1
 208.429715787 -253.02774435 208.429715787 -253.02774435 162.435849 -207.033877563 c 2,2,-1
 132.868466187 -177.46649475 l 2,3,4
 86.0269714367 -130.625 86.0269714367 -130.625 134.13307103 -82.518900406 c 2,5,-1
 165.813809077 -50.8391389221 l 2,6,7
 208.42971789 -8.22231432715 208.42971789 -8.22231432715 253.158877563 -52.9514739997 c 2,8,-1
 283.782901 -83.5754974372 l 2,9,10
 330.832431973 -130.62502841 330.832431973 -130.62502841 285.048526 -176.409854125 c 2,11,-1
 254.424516706 -207.03386342 l 2,0,1
389.027041625 23.9485443122 m 2,12,13
 343.033203125 -22.045294188 343.033203125 -22.045294188 297.039364625 23.9485443122 c 2,14,-1
 267.47100525 53.5169036872 l 2,15,16
 220.630487062 100.357421875 220.630487062 100.357421875 268.73663025 148.463565063 c 2,17,-1
 300.41631775 180.143252563 l 2,18,19
 343.033174085 222.760108898 343.033174085 222.760108898 387.761416625 178.030947875 c 2,20,-1
 418.385467752 147.406896749 l 2,21,22
 465.435891499 100.357394186 465.435891499 100.357394186 419.651065063 54.5725677497 c 2,23,-1
 389.027041625 23.9485443122 l 2,12,13
125.031111094 23.9526137812 m 2,24,25
 78.53547845 -22.2761991644 78.53547845 -22.2761991644 33.0393646247 23.9485443122 c 2,26,-1
 3.47100524975 53.5169036872 l 2,27,28
 -43.7356792981 100.723588235 -43.7356792981 100.723588235 4.73663024975 148.463565063 c 2,29,-1
 36.4163177497 180.143252563 l 2,30,31
 78.9009126588 222.627847472 78.9009126588 222.627847472 123.761416625 178.030947875 c 2,32,-1
 154.385440063 147.406924438 l 2,33,34
 201.303447731 100.48891677 201.303447731 100.48891677 155.651065063 54.5725677497 c 2,35,-1
 125.031111094 23.9526137812 l 2,24,25
EndSplineSet
EndChar

StartChar: uni066E.fina
Encoding: 65540 -1 270
Width: 1893
VWidth: 2304
GlyphClass: 2
Flags: W
AnchorPoint: "Anchor-10" 735.368 1121.17 basechar 0
AnchorPoint: "Anchor-7" 735.368 -187.744 basechar 0
LayerCount: 2
Fore
SplineSet
290.625976562 710.655273438 m 1,0,1
 268 593 268 593 267.591796875 555.345703125 c 0,2,3
 268 275 268 275 547.8671875 212.385742188 c 0,4,5
 679 183 679 183 940.172851562 183.015625 c 0,6,7
 1433 183 1433 183 1499.7734375 340.8125 c 0,8,9
 1536 427 1536 427 1540.18652344 570.471679688 c 1,10,-1
 1657.59765625 570.471679688 l 1,11,12
 1678 298 1678 298 1763 223 c 0,13,14
 1810 181 1810 181 1883.20800781 181.424804688 c 2,15,-1
 1900.5390625 181.424804688 l 1,16,-1
 1900.5390625 0.5283203125 l 1,17,-1
 1855.80566406 0.5283203125 l 2,18,19
 1666 1 1666 1 1586.62011719 193.762695312 c 1,20,21
 1522 91 1522 91 1375.42285156 37.29296875 c 0,22,23
 1286 4 1286 4 1083.46777344 3.166015625 c 0,24,25
 881 2 881 2 867.595703125 2.234375 c 0,26,27
 609 2 609 2 468.250976562 42.083984375 c 0,28,29
 90 151 90 151 91.60546875 522.338867188 c 0,30,31
 92 622 92 622 129.100585938 746.998046875 c 1,32,-1
 290.625976562 710.655273438 l 1,0,1
EndSplineSet
EndChar

StartChar: uni06A1.fina
Encoding: 65543 -1 273
Width: 1980
VWidth: 2304
GlyphClass: 2
Flags: W
AnchorPoint: "Anchor-10" 630.936 1234.16 basechar 0
AnchorPoint: "Anchor-7" 534.84 -228.4 basechar 0
LayerCount: 2
Fore
SplineSet
1339.47363281 504.069335938 m 0,0,1
 1339.47363281 479.787109375 1339.47363281 479.787109375 1345.38671875 457.767578125 c 128,-1,2
 1351.29980469 435.749023438 1351.29980469 435.749023438 1363.09179688 416.08984375 c 128,-1,3
 1374.88378906 396.430664062 1374.88378906 396.430664062 1392.51269531 379.198242188 c 0,4,5
 1418.95898438 353.345703125 1418.95898438 353.345703125 1451.06933594 340.3671875 c 128,-1,6
 1483.18066406 327.388671875 1483.18066406 327.388671875 1520.671875 327.388671875 c 0,7,8
 1595.82714844 327.388671875 1595.82714844 327.388671875 1648.828125 379.197265625 c 128,-1,9
 1701.8671875 431.043945312 1701.8671875 431.043945312 1701.8671875 504.069335938 c 128,-1,10
 1701.8671875 577.090820312 1701.8671875 577.090820312 1648.82714844 628.936523438 c 128,-1,11
 1595.82519531 680.747070312 1595.82519531 680.747070312 1520.671875 680.747070312 c 0,12,13
 1495.68554688 680.747070312 1495.68554688 680.747070312 1473.07519531 674.978515625 c 128,-1,14
 1450.46386719 669.209960938 1450.46386719 669.209960938 1430.30273438 657.689453125 c 128,-1,15
 1410.14160156 646.168945312 1410.14160156 646.168945312 1392.51367188 628.9375 c 0,16,17
 1366.06152344 603.08203125 1366.06152344 603.08203125 1352.76757812 571.791015625 c 128,-1,18
 1339.47363281 540.5 1339.47363281 540.5 1339.47363281 504.069335938 c 0,0,1
1334.6015625 216.83203125 m 2,19,20
 1287.92480469 247.705078125 1287.92480469 247.705078125 1253.39648438 288.958984375 c 128,-1,21
 1218.86816406 330.213867188 1218.86816406 330.213867188 1196.3515625 382.029296875 c 0,22,23
 1171.39160156 438.23828125 1171.39160156 438.23828125 1171.89355469 492.530273438 c 0,24,25
 1174.52148438 728.275390625 1174.52148438 728.275390625 1373.66992188 809.565429688 c 0,26,27
 1439.55371094 836.79296875 1439.55371094 836.79296875 1536.61523438 835.924804688 c 0,28,29
 1633.07910156 835.74609375 1633.07910156 835.74609375 1693.15820312 801.760742188 c 0,30,31
 1868.78808594 702.247070312 1868.78808594 702.247070312 1868.41601562 500.450195312 c 0,32,33
 1868.78710938 321.293945312 1868.78710938 321.293945312 1691.35351562 205.025390625 c 2,34,-1
 1687.65722656 202.603515625 l 1,35,-1
 1690.43457031 199.166015625 l 2,36,37
 1704.76464844 181.424804688 1704.76464844 181.424804688 1926.53125 181.424804688 c 2,38,-1
 1991.92089844 181.424804688 l 1,39,-1
 1991.92089844 0.5283203125 l 1,40,-1
 1858.23144531 0.5283203125 l 2,41,42
 1622.07226562 0.00390625 1622.07226562 0.00390625 1517.20605469 105.861328125 c 2,43,-1
 1515.05957031 108.02734375 l 1,44,-1
 1512.40234375 106.53125 l 2,45,46
 1394.1328125 39.9599609375 1394.1328125 39.9599609375 1252.55859375 16.615234375 c 0,47,48
 1154.37597656 0 1154.37597656 0 882.263671875 0 c 0,49,50
 610.353515625 0 610.353515625 0 462.512695312 40.4111328125 c 0,51,52
 276.487304688 91.099609375 276.487304688 91.099609375 183.373046875 213.448242188 c 128,-1,53
 90.2578125 335.797851562 90.2578125 335.797851562 89.4306640625 530.659179688 c 0,54,55
 89.212890625 580.482421875 89.212890625 580.482421875 99.078125 632.920898438 c 128,-1,56
 108.942382812 685.360351562 108.942382812 685.360351562 128.750976562 740.119140625 c 1,57,-1
 293.455078125 707.721679688 l 1,58,59
 266.841796875 580.772460938 266.841796875 580.772460938 267.17578125 544.696289062 c 0,60,61
 270.041015625 260.909179688 270.041015625 260.909179688 555.20703125 206.439453125 c 0,62,63
 682.278320312 182.083984375 682.278320312 182.083984375 879.5625 179.967773438 c 0,64,65
 947.787109375 178.911132812 947.787109375 178.911132812 1108.38085938 185.448242188 c 0,66,67
 1207.97363281 189.487304688 1207.97363281 189.487304688 1333.02734375 209.546875 c 2,68,-1
 1343.16015625 211.170898438 l 1,69,-1
 1334.6015625 216.83203125 l 2,19,20
EndSplineSet
EndChar

StartChar: uni06A1.init
Encoding: 65544 -1 274
Width: 806
VWidth: 2304
GlyphClass: 2
Flags: W
AnchorPoint: "Anchor-10" 370.239 1285.9 basechar 0
AnchorPoint: "Anchor-7" 343.84 -178.24 basechar 0
LayerCount: 2
Fore
SplineSet
-13.87109375 181.002929688 m 1,0,-1
 77.591796875 181.002929688 l 2,1,2
 308 181 308 181 392 211 c 0,3,4
 516.617262293 255.862214426 516.617262293 255.862214426 536.849609375 327.778320312 c 2,5,-1
 538.408203125 333.318359375 l 1,6,7
 389 321 389 321 380.619140625 320.532226562 c 0,8,9
 215 320 215 320 134.909179688 429.4140625 c 0,10,11
 22 585 22 585 126.716796875 812.1953125 c 0,12,13
 232 1041 232 1041 406.634765625 1040.60253906 c 0,14,15
 581 1041 581 1041 668.8828125 809.474609375 c 0,16,17
 714 690 714 690 714.168945312 537.08203125 c 0,18,19
 714 251 714 251 565.12109375 125.584960938 c 0,20,21
 416 0 416 0 149.21875 0 c 2,22,-1
 -13.87109375 0 l 1,23,-1
 -13.87109375 181.002929688 l 1,0,-1
551.329101562 502.141601562 m 2,24,25
 550.832186326 847.000775812 550.832186326 847.000775812 397.641601562 847.708984375 c 0,26,27
 338 848 338 848 289.044921875 780.094726562 c 128,-1,28
 240 712 240 712 239.830078125 628.555664062 c 0,29,30
 240 488 240 488 413.962890625 486.561523438 c 0,31,32
 477 486 477 486 551.333984375 498.752929688 c 1,33,-1
 551.329101562 502.141601562 l 2,24,25
EndSplineSet
EndChar

StartChar: uni06A1.medi
Encoding: 65545 -1 275
Width: 1043
VWidth: 2304
GlyphClass: 2
Flags: W
AnchorPoint: "Anchor-10" 521.39 1064.67 basechar 0
AnchorPoint: "Anchor-7" 521.39 -178.24 basechar 0
LayerCount: 2
Fore
SplineSet
341.83203125 504.069335938 m 128,-1,1
 341.83203125 431.043822979 341.83203125 431.043822979 394.870117188 379.198242188 c 128,-1,2
 447.86958735 327.388671875 447.86958735 327.388671875 523.029296875 327.388671875 c 128,-1,3
 598.185546875 327.388671875 598.185546875 327.388671875 651.186523438 379.197265625 c 128,-1,4
 704.224609375 431.043945312 704.224609375 431.043945312 704.224609375 504.069335938 c 128,-1,5
 704.224609375 577.090820312 704.224609375 577.090820312 651.184570312 628.936523438 c 128,-1,6
 598.18359375 680.747070312 598.18359375 680.747070312 523.029296875 680.747070312 c 128,-1,7
 447.870809001 680.747070312 447.870809001 680.747070312 394.872070312 628.9375 c 128,-1,0
 341.83203125 577.093882241 341.83203125 577.093882241 341.83203125 504.069335938 c 128,-1,1
521.53515625 113.299804688 m 1,8,9
 348.08854173 4.26325641456e-14 348.08854173 4.26325641456e-14 202.255859375 0 c 2,10,-1
 -5.1455078125 0 l 1,11,-1
 -5.1455078125 181.002929688 l 1,12,-1
 57.267578125 181.002929688 l 2,13,14
 261.299699807 181.023427481 261.299699807 181.023427481 343.439453125 212.545898438 c 1,15,16
 243.69048591 278.519107759 243.69048591 278.519107759 198.708984375 382.029296875 c 0,17,18
 173.749023438 438.23828125 173.749023438 438.23828125 174.250976562 492.560546875 c 0,19,20
 173.747070312 726.188476562 173.747070312 726.188476562 376.028320312 809.565429688 c 0,21,22
 441.911132812 836.79296875 441.911132812 836.79296875 538.879169753 836.153962643 c 128,-1,23
 635.847206693 835.514956535 635.847206693 835.514956535 695.517578125 801.760742188 c 0,24,25
 871.145507812 702.248046875 871.145507812 702.248046875 871.144913329 511.778348015 c 128,-1,26
 871.144318846 321.308649155 871.144318846 321.308649155 685.905273438 199.909179688 c 1,27,28
 772.605859101 179.6476804 772.605859101 179.6476804 986.086914062 181.002929688 c 2,29,-1
 1048.47265625 181.399414062 l 1,30,-1
 1048.47265625 0.5185546875 l 1,31,-1
 842.12890625 0 l 2,32,33
 717.717502651 0 717.717502651 0 521.53515625 113.299804688 c 1,8,9
EndSplineSet
EndChar

StartChar: uni066F.fina
Encoding: 65546 -1 276
Width: 1493
VWidth: 2304
GlyphClass: 2
Flags: W
AnchorPoint: "Anchor-10" 363.768 951.68 basechar 0
AnchorPoint: "Anchor-7" 468.993 -622.626 basechar 0
LayerCount: 2
Fore
SplineSet
905.72859699 305.819768493 m 128,-1,1
 905.730432058 217.265680907 905.730432058 217.265680907 959.936291034 193.651952718 c 128,-1,2
 1014.14215001 170.038224528 1014.14215001 170.038224528 1080.21480419 170.038224528 c 128,-1,3
 1146.28745837 170.038224528 1146.28745837 170.038224528 1216.78125 181.1484375 c 1,4,-1
 1216.78125 184.567382812 l 2,5,6
 1216.79897808 451.46802318 1216.79897808 451.46802318 1135.20898438 509.021484375 c 0,7,8
 1105.3001337 530.119143516 1105.3001337 530.119143516 1054.57173827 530.119143516 c 128,-1,9
 1003.78211809 530.115234295 1003.78211809 530.115234295 954.752112279 462.229738521 c 128,-1,0
 905.72859699 394.35322934 905.72859699 394.35322934 905.72859699 305.819768493 c 128,-1,1
267.0234375 65.0791015625 m 0,10,11
 267 -358 267 -358 750.316270528 -358.028597407 c 0,12,13
 971 -358 971 -358 1081.5 -256 c 128,-1,14
 1192 -154 1192 -154 1202.72363281 2.609375 c 1,15,-1
 1054.59375 3.0390625 l 1,16,17
 878 6 878 6 800.353515625 111.852539062 c 0,18,19
 742 191 742 191 742 289.5 c 132,-1,20
 742 388 742 388 791 495 c 0,21,22
 895 723 895 723 1053.69980669 723.04598326 c 0,23,24
 1244.93832036 723.000490443 1244.93832036 723.000490443 1320.72070312 549.782226562 c 0,25,26
 1373.50103563 430.13113407 1373.50103563 430.13113407 1378.89453125 225.97265625 c 2,27,-1
 1380.06152344 181.798828125 l 1,28,-1
 1508.65332031 181.424804688 l 1,29,-1
 1508.65332031 0.5283203125 l 1,30,-1
 1370.36816406 0.5283203125 l 1,31,32
 1356 -237 1356 -237 1179.49707031 -394.715820312 c 0,33,34
 1039 -521 1039 -521 757.911379727 -520.748548553 c 2,35,36
 755.682527407 -520.748455732 l 2,37,38
 416 -521 416 -521 253 -366 c 128,-1,39
 90 -211 90 -211 90.2451171875 52.5751953125 c 0,40,41
 90 275 90 275 192.291992188 484.266601562 c 1,42,-1
 356.862304688 443.521484375 l 1,43,44
 267 209 267 209 267.0234375 65.0791015625 c 0,10,11
EndSplineSet
EndChar

StartChar: arabic_ring
Encoding: 65549 -1 279
Width: 435
VWidth: 2158
GlyphClass: 2
Flags: W
LayerCount: 2
Fore
SplineSet
328.696289062 228.3203125 m 0,0,1
 328.696289062 272.216796875 328.696289062 272.216796875 297.981445312 302.931640625 c 0,2,3
 267.2578125 334.751953125 267.2578125 334.751953125 222.263671875 334.751953125 c 128,-1,4
 177.310546875 334.751953125 177.310546875 334.751953125 146.572265625 304.01171875 c 128,-1,5
 115.83203125 273.2734375 115.83203125 273.2734375 115.83203125 228.3203125 c 0,6,7
 115.83203125 182.310546875 115.83203125 182.310546875 146.59765625 151.545898438 c 0,8,9
 177.353515625 121.887695312 177.353515625 121.887695312 222.263671875 121.887695312 c 128,-1,10
 267.216796875 121.887695312 267.216796875 121.887695312 297.956054688 152.627929688 c 128,-1,11
 328.696289062 183.3671875 328.696289062 183.3671875 328.696289062 228.3203125 c 0,0,1
449.528320312 228.3203125 m 128,-1,13
 449.528320312 132.806640625 449.528320312 132.806640625 384.171875 66.412109375 c 0,14,15
 317.758789062 0 317.758789062 0 222.263671875 0 c 128,-1,16
 126.787109375 0 126.787109375 0 61.412109375 66.412109375 c 0,17,18
 -5 132.825195312 -5 132.825195312 -5 228.3203125 c 128,-1,19
 -5 323.814453125 -5 323.814453125 61.412109375 390.227539062 c 0,20,21
 126.76953125 455.583984375 126.76953125 455.583984375 222.263671875 455.583984375 c 128,-1,22
 317.77734375 455.583984375 317.77734375 455.583984375 384.171875 390.227539062 c 0,23,12
 449.528320312 323.833007812 449.528320312 323.833007812 449.528320312 228.3203125 c 128,-1,13
EndSplineSet
EndChar

StartChar: arabic_gaf_bar
Encoding: 65550 -1 280
Width: 688
VWidth: 2158
GlyphClass: 2
Flags: W
LayerCount: 2
Fore
SplineSet
682.904296875 1745.125 m 1,0,-1
 -5 1410.04589844 l 1,1,-1
 -5 1516.25097656 l 1,2,-1
 682.904296875 1851.33007812 l 1,3,-1
 682.904296875 1745.125 l 1,0,-1
EndSplineSet
EndChar

StartChar: uni066E.init.math
Encoding: 65560 -1 290
Width: 899
VWidth: 2304
GlyphClass: 2
Flags: W
LayerCount: 2
Fore
SplineSet
597.7421875 99.8125 m 0,0,1
 521.688476562 8.9755859375 521.688476562 8.9755859375 352.57421875 8.9755859375 c 2,2,-1
 -13.87109375 8.9755859375 l 1,3,-1
 -13.87109375 181.424804688 l 1,4,-1
 290.428710938 181.424804688 l 2,5,6
 349.83203125 181.424804688 349.83203125 181.424804688 393.400390625 195.092773438 c 128,-1,7
 436.96875 208.760742188 436.96875 208.760742188 464.541992188 236.334960938 c 0,8,9
 525.1015625 296.891601562 525.1015625 296.891601562 525.1015625 424.0078125 c 2,10,-1
 525.1015625 651.471679688 l 1,11,-1
 697.55078125 651.471679688 l 1,12,-1
 697.55078125 424.0078125 l 2,13,14
 697.55078125 321.439453125 697.55078125 321.439453125 672.577148438 240.434570312 c 128,-1,15
 647.603515625 159.430664062 647.603515625 159.430664062 597.7421875 99.8125 c 0,0,1
EndSplineSet
EndChar

StartChar: guillemotleft
Encoding: 171 171 291
Width: 1145
VWidth: -4
Flags: W
LayerCount: 2
Fore
SplineSet
966.313476562 921.06640625 m 1,0,-1
 966.313476562 742.189453125 l 1,1,-1
 769.780273438 567.203125 l 2,2,3
 759.748046875 558.270507812 759.748046875 558.270507812 751.702148438 549.284179688 c 0,4,5
 740.97265625 537.299804688 740.97265625 537.299804688 733.772460938 525.151367188 c 128,-1,6
 726.572265625 513.00390625 726.572265625 513.00390625 722.94140625 500.796875 c 128,-1,7
 719.310546875 488.58984375 719.310546875 488.58984375 719.178710938 476.291015625 c 128,-1,8
 719.045898438 463.9921875 719.045898438 463.9921875 722.438476562 451.671875 c 128,-1,9
 725.830078125 439.352539062 725.830078125 439.352539062 732.690429688 427.014648438 c 128,-1,10
 739.55078125 414.677734375 739.55078125 414.677734375 749.889648438 402.357421875 c 128,-1,11
 760.228515625 390.038085938 760.228515625 390.038085938 774.00390625 377.772460938 c 2,12,-1
 966.313476562 206.546875 l 1,13,-1
 966.313476562 27.6689453125 l 1,14,-1
 688.508789062 275.264648438 l 2,15,16
 665.62109375 295.663085938 665.62109375 295.663085938 647.426757812 316.063476562 c 0,17,18
 488.0234375 494.787109375 488.0234375 494.787109375 690.62109375 675.353515625 c 2,19,-1
 966.313476562 921.06640625 l 1,0,-1
535.46484375 921.06640625 m 1,20,-1
 535.46484375 742.189453125 l 1,21,-1
 338.931640625 567.203125 l 2,22,23
 328.899414062 558.270507812 328.899414062 558.270507812 320.853515625 549.284179688 c 0,24,25
 245.301757812 464.8984375 245.301757812 464.8984375 343.15625 377.772460938 c 2,26,-1
 535.46484375 206.546875 l 1,27,-1
 535.46484375 27.6689453125 l 1,28,-1
 257.661132812 275.264648438 l 2,29,30
 234.7734375 295.663085938 234.7734375 295.663085938 216.579101562 316.063476562 c 0,31,32
 57.17578125 494.787109375 57.17578125 494.787109375 259.7734375 675.353515625 c 2,33,-1
 535.46484375 921.06640625 l 1,20,-1
EndSplineSet
EndChar

StartChar: guillemotright
Encoding: 187 187 292
Width: 1147
VWidth: -4
Flags: W
LayerCount: 2
Fore
SplineSet
189.303710938 921.06640625 m 1,0,-1
 464.99609375 675.353515625 l 2,1,2
 488.486328125 654.41796875 488.486328125 654.41796875 507.125 633.520507812 c 0,3,4
 667.424804688 453.797851562 667.424804688 453.797851562 467.108398438 275.264648438 c 2,5,-1
 189.303710938 27.6689453125 l 1,6,-1
 189.303710938 206.546875 l 1,7,-1
 381.61328125 377.772460938 l 2,8,9
 392.848632812 387.776367188 392.848632812 387.776367188 401.784179688 397.756835938 c 0,10,11
 479.12109375 484.146484375 479.12109375 484.146484375 385.836914062 567.203125 c 2,12,-1
 189.303710938 742.189453125 l 1,13,-1
 189.303710938 921.06640625 l 1,0,-1
620.15234375 921.06640625 m 1,14,-1
 895.84375 675.353515625 l 2,15,16
 919.333984375 654.41796875 919.333984375 654.41796875 937.97265625 633.520507812 c 0,17,18
 1098.27246094 453.797851562 1098.27246094 453.797851562 897.956054688 275.264648438 c 2,19,-1
 620.15234375 27.6689453125 l 1,20,-1
 620.15234375 206.546875 l 1,21,-1
 812.4609375 377.772460938 l 2,22,23
 823.697265625 387.776367188 823.697265625 387.776367188 832.631835938 397.756835938 c 0,24,25
 870.965820312 440.698242188 870.965820312 440.698242188 866.890625 483.4140625 c 128,-1,26
 862.815429688 526.130859375 862.815429688 526.130859375 816.685546875 567.203125 c 2,27,-1
 620.15234375 742.189453125 l 1,28,-1
 620.15234375 921.06640625 l 1,14,-1
EndSplineSet
EndChar

